<?xml version="1.0" encoding="utf-8"?>
<!-- Generator: Adobe Illustrator 15.1.0, SVG Export Plug-In . SVG Version: 6.00 Build 0)  -->
<!DOCTYPE svg PUBLIC "-//W3C//DTD SVG 1.1//EN" "http://www.w3.org/Graphics/SVG/1.1/DTD/svg11.dtd">
<svg version="1.1" xmlns="http://www.w3.org/2000/svg" xmlns:xlink="http://www.w3.org/1999/xlink" x="0px" y="0px" width="50px"
	 height="50px" viewBox="0 0 50 50" enable-background="new 0 0 50 50" xml:space="preserve">
<g id="Layer_2">
</g>
<g id="Layer_1">
	<g>
		<title>background</title>
		<polygon id="canvas_background" fill="none" points="6.002,5.767 248,-129.186 248,178.186 -197,178.186 		"/>
	</g>
	<g>
		<title  fill="#64277d">Layer 1</title>
		<path id="svg_3" fill="#64277D" d="M25.118,20.991c-10.911,0-19.458-3.846-19.458-8.756s8.547-8.756,19.458-8.756
			s19.458,3.846,19.458,8.756S36.028,20.991,25.118,20.991z M25.118,5.424c-8.283,0-17.512,2.797-17.512,6.81
			c0,4.013,9.229,6.81,17.512,6.81c8.283,0,17.512-2.797,17.512-6.81C42.63,8.222,33.4,5.424,25.118,5.424z"/>
		<path id="svg_5" fill="#64277D" d="M25.118,28.773c-10.911,0-19.458-3.846-19.458-8.756v-7.783c0-0.538,0.434-0.973,0.973-0.973
			c0.538,0,0.973,0.435,0.973,0.973v7.783c0,4.014,9.229,6.811,17.512,6.811c8.283,0,17.512-2.797,17.512-6.811v-7.783
			c0-0.538,0.436-0.973,0.974-0.973c0.536,0,0.973,0.435,0.973,0.973v7.783C44.576,24.928,36.028,28.773,25.118,28.773z"/>
		<path id="svg_7" fill="#64277D" d="M25.118,37.53c-10.911,0-19.458-3.846-19.458-8.757v-8.756c0-0.538,0.434-0.973,0.973-0.973
			c0.538,0,0.973,0.435,0.973,0.973v8.756c0,4.014,9.229,6.811,17.512,6.811c8.283,0,17.512-2.797,17.512-6.811v-8.756
			c0-0.538,0.436-0.973,0.974-0.973c0.536,0,0.973,0.435,0.973,0.973v8.756C44.576,33.685,36.028,37.53,25.118,37.53z"/>
		<path id="svg_9" fill="#64277D" d="M25.118,46.285c-10.911,0-19.458-3.846-19.458-8.755v-8.757c0-0.537,0.434-0.973,0.973-0.973
			c0.538,0,0.973,0.436,0.973,0.973v8.757c0,4.014,9.229,6.811,17.512,6.811c8.283,0,17.512-2.797,17.512-6.811v-8.757
			c0-0.537,0.436-0.973,0.974-0.973c0.536,0,0.973,0.436,0.973,0.973v8.757C44.576,42.439,36.028,46.285,25.118,46.285z"/>
	</g>
	<g>
		<title>background</title>
		<rect id="canvas_background_1_" x="28" y="26.82" fill="none" width="361.012" height="249.359"/>
	</g>
	<circle fill="#FFFFFF" cx="36.583" cy="34.582" r="12.292"/>
	<g>
		<title>background</title>
		<rect id="canvas_background_2_" x="-263.5" y="-173.5" fill="none" width="582" height="402"/>
	</g>
	<g>
		<title>Layer 1</title>
		<path fill="#64277D" stroke="#64277D" stroke-width="0.7" stroke-miterlimit="10" d="M46.033,28.643
			c-0.333-0.092-0.667,0.12-0.726,0.451l-0.365,1.452c-1.451-2.959-4.476-4.868-7.861-4.868c-4.84,0-8.771,3.932-8.771,8.771
			s3.932,8.772,8.771,8.772c3.535,0,6.51-1.781,7.875-4.958c0.089-0.285,0.125-0.712-0.32-0.819
			c-0.541-0.129-0.827,0.436-0.837,0.438c-1.281,2.479-3.835,4.127-6.718,4.127c-4.175,0-7.563-3.387-7.563-7.561
			c0-4.176,3.388-7.561,7.563-7.561c3.144,0,5.927,1.905,7.046,4.809l-2.27-0.545c-0.331-0.092-0.662,0.121-0.725,0.455
			c-0.091,0.331,0.119,0.663,0.454,0.725l3.355,0.817c0.062,0,0.092,0.028,0.151,0.028c0.272,0,0.517-0.181,0.577-0.453l0.815-3.295
			C46.547,29.063,46.364,28.731,46.033,28.643z"/>
	</g>
</g>
</svg>
