<svg width="512" height="512" xmlns="http://www.w3.org/2000/svg">

 <g>
  <title>background</title>
  <rect fill="none" id="canvas_background" height="402" width="582" y="-1" x="-1"/>
 </g>
 <g>
  <title>Layer 1</title>
  <path fill="#88bd47" id="svg_1" d="m298.3,256l0,0l0,0l-167.2,-174.1c-4.2,-4.3 -4.1,-11.4 0.2,-15.8l29.9,-30.6c4.3,-4.4 11.3,-4.5 15.5,-0.2l204.2,212.7c2.2,2.2 3.2,5.2 3,8.1c0.1,3 -0.9,5.9 -3,8.1l-204.2,212.6c-4.2,4.3 -11.2,4.2 -15.5,-0.2l-29.9,-30.6c-4.3,-4.4 -4.4,-11.5 -0.2,-15.8l167.2,-174.2z"/>
 </g>
</svg>