<svg xmlns="http://www.w3.org/2000/svg" viewBox="0 0 95049 95149" width="30" height="30">

 <g>
  <title>background</title>
  <rect fill="none" id="canvas_background" height="402" width="582" y="-1" x="-1"/>
 </g>
 <g>
  <title>Layer 1</title>
  <path fill="#5f889a" id="svg_1" d="m40562,14026c8527,0 16438,2634 22968,7129l-7879,7879c-4422,-2617 -9580,-4120 -15089,-4120c-16389,0 -29674,13285 -29674,29673c0,16389 13285,29674 29674,29674c16388,0 29673,-13285 29673,-29674c0,-5510 -1503,-10668 -4120,-15089l7879,-7879c4496,6530 7129,14441 7129,22968c0,22402 -18160,40562 -40561,40562c-22402,0 -40562,-18160 -40562,-40562c0,-22401 18160,-40561 40562,-40561zm1850,42412c-1022,1021 -2679,1021 -3701,0c-1021,-1022 -1021,-2679 0,-3701l32732,-32731l752,-10512l8448,-9494l731,10075c1022,-1022 2679,-1022 3700,0c1022,1021 1022,2678 0,3700l-7,7l9982,731l-9500,8442l-10391,737l-32746,32746zm-1850,-20308c2373,0 4643,448 6727,1265l-7503,7504c-5005,395 -8944,4581 -8944,9688c0,5369 4352,9720 9720,9720c5106,0 9293,-3939 9689,-8944l7503,-7504c816,2085 1265,4355 1265,6728c0,10194 -8264,18458 -18457,18458c-10194,0 -18458,-8264 -18458,-18458c0,-10193 8264,-18457 18458,-18457z" class="fil0"/>
 </g>
</svg>