<?xml version="1.0" encoding="utf-8"?>
<!-- Generator: Adobe Illustrator 21.0.0, SVG Export Plug-In . SVG Version: 6.00 Build 0)  -->
<svg version="1.1" id="Layer_1" xmlns="http://www.w3.org/2000/svg" xmlns:xlink="http://www.w3.org/1999/xlink" x="0px" y="0px"
	 viewBox="0 0 32 32" style="enable-background:new 0 0 32 32;" xml:space="preserve">
<style type="text/css">
	.st0{fill:#FFFFFF;}
</style>
<g>
	<path class="st0" d="M19.6,16.3c0-2-1.6-3.6-3.6-3.6c-2,0-3.6,1.6-3.6,3.6c0,1.6,1.1,3,2.6,3.5v11.5h2.1V19.8
		C18.5,19.3,19.6,18,19.6,16.3z"/>
	<path class="st0" d="M16.2,0.3c-0.1,0-0.1,0-0.2,0c-8.7,0-15.9,7-16,15.8c-0.1,7.1,4.6,13.5,11.4,15.5l0.6-2
		C6.1,27.8,2,22.3,2.1,16.2C2.2,8.6,8.4,2.4,16,2.4c0.1,0,0.1,0,0.2,0C23.8,2.5,30,8.9,29.9,16.5c-0.1,6.1-4.1,11.4-9.9,13.1l0.6,2
		c6.7-2,11.3-8.1,11.4-15.1C32.1,7.7,25,0.5,16.2,0.3z"/>
	<path class="st0" d="M25.8,16.3c0-5-3.8-9.2-8.8-9.8c-0.7-0.1-1.4-0.1-2.1,0c-5,0.5-8.8,4.7-8.8,9.8c0,3.9,2.3,7.5,6,9l0.8-1.9
		c-2.9-1.2-4.7-4-4.7-7.1c0-4,3-7.3,6.9-7.7c0.5-0.1,1.1-0.1,1.6,0c3.9,0.4,6.9,3.7,6.9,7.7c0,3.1-1.8,5.9-4.7,7.1l0.8,1.9
		C23.5,23.8,25.8,20.3,25.8,16.3z"/>
</g>
</svg>
