<svg width="512" height="512" xmlns="http://www.w3.org/2000/svg">

 <g>
  <title>background</title>
  <rect fill="none" id="canvas_background" height="402" width="582" y="-1" x="-1"/>
 </g>
 <g>
  <title>Layer 1</title>
  <path fill="#06bf09" id="svg_1" d="m256,60.338c-107.895,0 -195.659,87.776 -195.659,195.664c0,107.888 87.764,195.659 195.659,195.659c107.888,0 195.658,-87.771 195.658,-195.659c0,-107.887 -87.77,-195.664 -195.658,-195.664zm0,360.46c-90.871,0 -164.796,-73.931 -164.796,-164.796c0,-90.87 73.925,-164.795 164.796,-164.795c90.871,0 164.796,73.925 164.796,164.795c0,90.865 -73.925,164.796 -164.796,164.796z"/>
  <ellipse stroke="null" ry="170.051133" rx="170.051133" id="svg_3" cy="255.456711" cx="257.086611" fill-opacity="null" stroke-opacity="null" stroke-width="null" fill="#06bf09"/>
  <path fill="#ffffff" id="svg_2" d="m348.617,174.362l-125.368,127.732l-62.117,-44.981c-7.882,-5.708 -18.912,-3.944 -24.632,3.938c-5.708,7.894 -3.944,18.917 3.944,24.632l74.418,53.884c3.106,2.251 6.729,3.35 10.341,3.35c4.597,0 9.165,-1.787 12.586,-5.279l136,-138.566c6.825,-6.95 6.724,-18.116 -0.237,-24.941c-6.938,-6.819 -18.11,-6.718 -24.935,0.231z"/>
 </g>
</svg>