<svg width="64" height="64" xmlns="http://www.w3.org/2000/svg">

 <g>
  <title>background</title>
  <rect fill="none" id="canvas_background" height="402" width="582" y="-1" x="-1"/>
 </g>
 <g>
  <title fill="#0581e1">Layer 1</title>
  <path id="svg_3" fill="#0581e1" d="m40.359,1.877l0,1.519c0,1.027 -0.826,1.856 -1.84,1.856l-0.644,0l0,2.976c-6.321,-1.319 -11.75,0 -11.75,0l0,-2.976l-0.644,0c-1.013,0 -1.841,-0.829 -1.841,-1.856l0,-1.519c0,-1.027 0.828,-1.841 1.841,-1.841l13.039,0c1.013,0 1.839,0.814 1.839,1.841z"/>
  <path id="svg_5" fill="#0581e1" d="m55.332,12.794l-8.273,-5.782l0,0c-0.51,-0.355 -0.848,-0.139 -1.027,0.06l-0.148,0.213l-2.066,2.957c0,0 5.215,2.037 9.641,6.736l2.078,-2.974c0.475,-0.688 -0.142,-1.164 -0.205,-1.21z"/>
  <path id="svg_7" fill="#0581e1" d="m32.001,10.277c-14.826,0 -26.843,12.018 -26.843,26.844c0,14.823 12.018,26.843 26.843,26.843c14.823,0 26.841,-12.02 26.841,-26.843c0,-14.826 -12.018,-26.844 -26.841,-26.844zm0,26.844l0,-21.229c0,0 19.94,-0.333 21.228,21.229c-14.329,-0.046 -21.228,0 -21.228,0z"/>
 </g>
</svg>