<svg version="1.1" id="Layer_1" xmlns="http://www.w3.org/2000/svg" xmlns:xlink="http://www.w3.org/1999/xlink" x="0px" y="0px" width="60px" height="60px" fill="#f78700" viewBox="0 0 128 128" enable-background="new 0 0 128 128" xml:space="preserve">
    <circle fill="none" stroke="#f78700" stroke-width="5" stroke-miterlimit="10" cx="64" cy="64" r="47.304" />
    <path d="M67.375,80.041c0,1.496-1.287,2.709-2.875,2.709l0,0c-1.588,0-2.875-1.213-2.875-2.709V37.876
                                c0-1.496,1.287-2.709,2.875-2.709l0,0c1.588,0,2.875,1.213,2.875,2.709V80.041z" />
    <path d="M67.542,91.382c0,1.681-1.362,3.042-3.042,3.042l0,0c-1.68,0-3.042-1.361-3.042-3.042v-0.264
                                c0-1.681,1.362-3.042,3.042-3.042l0,0c1.68,0,3.042,1.361,3.042,3.042V91.382z" />
</svg>