<svg width="512" height="512" xmlns="http://www.w3.org/2000/svg">

 <g>
  <title>background</title>
  <rect fill="none" id="canvas_background" height="402" width="582" y="-1" x="-1"/>
 </g>
 <g>
  <title>Layer 1</title>
  <path fill="#fa040c" id="svg_1" d="m443.6,387.1l-131.2,-131.7l131.5,-130c5.4,-5.4 5.4,-14.2 0,-19.6l-37.4,-37.6c-2.6,-2.6 -6.1,-4 -9.8,-4c-3.7,0 -7.2,1.5 -9.8,4l-130.9,129.6l-131.1,-129.5c-2.6,-2.6 -6.1,-4 -9.8,-4c-3.7,0 -7.2,1.5 -9.8,4l-37.3,37.6c-5.4,5.4 -5.4,14.2 0,19.6l131.5,130l-131.1,131.6c-2.6,2.6 -4.1,6.1 -4.1,9.8c0,3.7 1.4,7.2 4.1,9.8l37.4,37.6c2.7,2.7 6.2,4.1 9.8,4.1c3.5,0 7.1,-1.3 9.8,-4.1l130.6,-131.2l130.7,131.1c2.7,2.7 6.2,4.1 9.8,4.1c3.5,0 7.1,-1.3 9.8,-4.1l37.4,-37.6c2.6,-2.6 4.1,-6.1 4.1,-9.8c-0.1,-3.6 -1.6,-7.1 -4.2,-9.7z"/>
 </g>
</svg>