<?xml version="1.0" encoding="UTF-8"?>
<!-- Generator: Adobe Illustrator 21.0.0, SVG Export Plug-In . SVG Version: 6.00 Build 0)  -->
<svg version="1.1" id="Layer_1" xmlns="http://www.w3.org/2000/svg" xmlns:xlink="http://www.w3.org/1999/xlink" x="0px" y="0px" viewBox="0 0 24 24" style="enable-background:new 0 0 24 24;" xml:space="preserve">
<style type="text/css">
	.st0{fill:#808080;}
	.st1{fill:#A6A6A6;}
</style>
<g>
	<g>
		<g>
			<g>
				<circle class="st0" cx="13.886" cy="11.175" r="1.224"/>
				<circle class="st0" cx="8.176" cy="11.175" r="1.224"/>
			</g>
			<path class="st0" d="M11.023,5.058c-4.503,0-8.149,3.654-8.149,8.157c0,4.503,3.646,8.157,8.149,8.157     c4.511,0,8.165-3.654,8.165-8.157C19.188,8.712,15.533,5.058,11.023,5.058z M11.031,19.74c-3.605,0-6.525-2.92-6.525-6.525     c0-3.605,2.92-6.525,6.525-6.525s6.525,2.92,6.525,6.525C17.556,16.82,14.636,19.74,11.031,19.74z"/>
			<path class="st0" d="M11.031,14.846c-0.797,0-1.543,0.21-2.191,0.574l0.549,1.097c0.481-0.284,1.041-0.448,1.643-0.448     c0.602,0,1.161,0.164,1.642,0.45l0.549-1.099C12.574,15.056,11.827,14.846,11.031,14.846z"/>
		</g>
	</g>
	<g>
		<g>
			<polygon class="st1" points="24,16.864 22.834,16.864 22.834,15.698 21.668,15.698 21.668,16.864 20.502,16.864 20.502,18.03      21.668,18.03 21.668,19.196 22.834,19.196 22.834,18.03 24,18.03    "/>
		</g>
	</g>
	<g>
		<g>
			<polygon class="st1" points="18.217,4.172 17.581,4.172 17.581,3.536 16.945,3.536 16.945,4.172 16.309,4.172 16.309,4.808      16.945,4.808 16.945,5.444 17.581,5.444 17.581,4.808 18.217,4.808    "/>
		</g>
	</g>
	<g>
		<g>
			<path class="st1" d="M0.366,3.867c1.02,0.255,1.812,1.047,2.067,2.067C2.487,6.149,2.681,6.3,2.903,6.3s0.416-0.151,0.469-0.366     c0.255-1.02,1.047-1.812,2.067-2.067c0.216-0.054,0.367-0.247,0.367-0.469c0-0.222-0.151-0.416-0.366-0.469     c-1.02-0.255-1.812-1.047-2.067-2.067c-0.054-0.215-0.248-0.366-0.47-0.366S2.487,0.646,2.433,0.861     c-0.255,1.02-1.047,1.812-2.067,2.067C0.151,2.982,0,3.175,0,3.397C0,3.619,0.151,3.813,0.366,3.867z M2.903,2.199     c0.304,0.485,0.714,0.895,1.198,1.199C3.617,3.702,3.207,4.111,2.903,4.596C2.598,4.111,2.189,3.702,1.704,3.397     C2.189,3.093,2.598,2.683,2.903,2.199z"/>
		</g>
	</g>
	<g>
		<g>
			<path class="st1" d="M1.366,22.112c0.584,0.146,1.038,0.6,1.184,1.184c0.031,0.123,0.142,0.21,0.269,0.21s0.238-0.086,0.269-0.21     c0.146-0.584,0.6-1.038,1.184-1.184c0.124-0.031,0.21-0.142,0.21-0.269s-0.086-0.238-0.21-0.269     c-0.584-0.146-1.038-0.6-1.184-1.184c-0.031-0.123-0.142-0.21-0.269-0.21s-0.238,0.086-0.269,0.21     c-0.146,0.584-0.6,1.038-1.184,1.184c-0.123,0.031-0.21,0.142-0.21,0.269S1.243,22.081,1.366,22.112z M2.819,21.156     c0.174,0.278,0.409,0.512,0.686,0.687c-0.277,0.174-0.512,0.409-0.686,0.687c-0.174-0.278-0.409-0.512-0.686-0.687     C2.41,21.669,2.645,21.434,2.819,21.156z"/>
		</g>
	</g>
</g>
</svg>