<?xml version="1.0" encoding="utf-8"?>
<!-- Generator: Adobe Illustrator 15.1.0, SVG Export Plug-In . SVG Version: 6.00 Build 0)  -->
<!DOCTYPE svg PUBLIC "-//W3C//DTD SVG 1.1//EN" "http://www.w3.org/Graphics/SVG/1.1/DTD/svg11.dtd">
<svg version="1.1" id="Layer_1" xmlns="http://www.w3.org/2000/svg" xmlns:xlink="http://www.w3.org/1999/xlink" x="0px" y="0px"
	 width="185px" height="16px" viewBox="0 0 185 16" enable-background="new 0 0 185 16" xml:space="preserve">
<g>
	<g transform="translate(220)">
		<path fill="#FFFFFF" d="M-67,0h30c0.553,0,1,0.448,1,1v14c0,0.553-0.447,1-1,1h-30c-0.553,0-1-0.447-1-1V1
			C-68,0.448-67.553,0-67,0z"/>
		<path fill="none" d="M-47.936,11.15c-0.021-0.053,0.026-0.319,0.105-0.592l0.143-0.498l0.342-0.028
			c0.52-0.044,0.512-0.003,0.382-2.01c-0.06-0.92-0.099-1.694-0.084-1.717c0.013-0.024,0.335-0.043,0.715-0.043h0.692l0.002,0.928
			l0.002,0.928l0.371-0.685c0.203-0.377,0.437-0.795,0.519-0.928l0.147-0.243h0.639c0.505,0,0.639,0.016,0.639,0.079
			c0,0.118-2.339,4.062-2.582,4.354c-0.334,0.402-0.58,0.498-1.344,0.525c-0.566,0.021-0.656,0.01-0.688-0.072V11.15z
			 M-46.796,11.061c0.632-0.119,0.733-0.248,2.26-2.854c0.524-0.894,0.972-1.673,0.996-1.73c0.04-0.098,0.006-0.105-0.476-0.095
			l-0.521,0.01l-0.17,0.321c-0.584,1.092-0.928,1.69-0.985,1.709c-0.047,0.015-0.064-0.27-0.064-1.005V6.39l-0.58-0.01
			c-0.521-0.008-0.58,0.002-0.58,0.094c-0.001,0.056,0.042,0.812,0.096,1.68c0.112,1.809,0.102,1.891-0.262,1.991
			c-0.117,0.031-0.236,0.052-0.357,0.059c-0.133,0-0.158,0.038-0.246,0.365c-0.055,0.203-0.1,0.394-0.1,0.426
			c0,0.122,0.508,0.154,0.99,0.064L-46.796,11.061z M-44.193,10.67c0-0.021,0.318-1.176,0.709-2.566
			c0.739-2.64,0.779-2.74,0.965-2.37c0.045,0.086,0.154,0.324,0.246,0.528c0.09,0.204,0.166,0.323,0.166,0.264
			c0.004-0.243,0.256-1.01,0.326-0.995c0.1,0.023,1.369,2.483,1.346,2.608c-0.02,0.112-2.614,2.541-2.744,2.568
			c-0.115,0.025-0.107-0.135,0.025-0.555l0.109-0.346l-0.489,0.438C-43.973,10.639-44.189,10.777-44.193,10.67L-44.193,10.67z
			 M-43.09,9.62c0-0.024,0.029-0.045,0.066-0.045c0.035,0,0.277-0.201,0.535-0.447c0.867-0.824,1.043-0.981,1.102-0.981
			c0.056,0-1.154,1.155-1.365,1.303c-0.059,0.04-0.105,0.11-0.105,0.153c0,0.045-0.064,0.28-0.144,0.522l-0.142,0.44l0.533-0.515
			c0.818-0.79,1.672-1.59,1.879-1.759l0.186-0.153l-0.58-1.137c-0.318-0.626-0.6-1.15-0.624-1.165
			c-0.024-0.014-0.103,0.188-0.171,0.45l-0.127,0.475l0.35,0.663c0.191,0.365,0.326,0.664,0.299,0.664
			c-0.028,0-0.213-0.315-0.41-0.7c-0.195-0.385-0.469-0.915-0.609-1.179l-0.252-0.479l-0.09,0.28
			c-0.223,0.755-0.439,1.513-0.65,2.272c-0.196,0.713-0.4,1.423-0.613,2.132c-0.035,0.095,0.102-0.001,0.44-0.307
			C-43.313,9.865-43.09,9.645-43.09,9.62L-43.09,9.62z M-51.007,9.896c-0.404-0.182-0.548-0.563-0.41-1.086
			c0.2-0.751,0.615-1.012,1.918-1.203c0.413-0.06,0.606-0.116,0.688-0.196c0.308-0.303-0.219-0.417-0.56-0.122
			c-0.192,0.167-0.214,0.171-0.802,0.171c-0.354,0-0.63-0.025-0.666-0.06c-0.044-0.045-0.1-0.002-0.193,0.147
			c-0.18,0.288-0.633,0.626-0.998,0.746c-0.18,0.06-0.58,0.114-0.971,0.134l-0.666,0.033l-0.18,0.631
			c-0.098,0.348-0.197,0.662-0.221,0.7c-0.059,0.093-1.466,0.097-1.498,0.004c-0.012-0.036,0.248-1.021,0.576-2.185l0.656-2.334
			l0.061-0.215h1.291c1.01,0,1.359,0.02,1.606,0.091c0.692,0.2,0.935,0.753,0.712,1.623c-0.033,0.134-0.023,0.13,0.189-0.065
			c0.291-0.27,0.604-0.422,1.054-0.509c0.493-0.095,1.306-0.045,1.637,0.1c0.614,0.272,0.64,0.509,0.209,2.02
			c-0.175,0.614-0.313,1.206-0.309,1.313l0.01,0.197l-0.687,0.016c-0.651,0.016-0.687,0.01-0.717-0.102
			c-0.018-0.064-0.048-0.11-0.067-0.1C-49.895,9.945-50.648,10.059-51.007,9.896z M-49.641,9.617
			c0.459-0.217,0.48-0.221,0.521-0.053c0.017,0.071,0.05,0.129,0.074,0.127c0.024,0,0.267-0.002,0.537-0.002h0.491V9.533
			c0-0.086,0.147-0.686,0.328-1.334c0.207-0.748,0.313-1.23,0.291-1.32c-0.054-0.21-0.311-0.436-0.582-0.513
			c-0.131-0.037-0.5-0.067-0.818-0.066c-0.641,0.002-1.1,0.125-1.45,0.387c-0.222,0.167-0.459,0.518-0.405,0.602
			c0.02,0.032,0.254,0.058,0.521,0.058c0.461,0,0.492-0.008,0.658-0.171c0.146-0.145,0.22-0.172,0.463-0.172
			c0.4,0,0.551,0.15,0.414,0.403c-0.094,0.173-0.342,0.27-0.871,0.338c-0.996,0.13-1.411,0.311-1.656,0.723
			c-0.205,0.345-0.257,0.906-0.1,1.095C-50.945,9.9-50.285,9.923-49.641,9.617z M-50.034,9.049
			c-0.112-0.111-0.079-0.326,0.074-0.467c0.19-0.173,1.015-0.415,1.077-0.315c0.09,0.143-0.18,0.648-0.407,0.764
			C-49.493,9.135-49.936,9.146-50.034,9.049z M-49.26,8.83c0.084-0.084,0.15-0.184,0.195-0.294c0.051-0.146,0.045-0.164-0.041-0.139
			c-0.055,0.016-0.213,0.058-0.353,0.093s-0.317,0.128-0.396,0.205c-0.121,0.119-0.133,0.156-0.068,0.23
			C-49.818,9.049-49.438,8.994-49.26,8.83z M-54.109,9.503c0.031-0.103,0.117-0.403,0.189-0.67c0.07-0.269,0.15-0.5,0.175-0.517
			c0.024-0.018,0.349-0.039,0.718-0.047c0.873-0.02,1.266-0.151,1.662-0.554c0.449-0.455,0.746-1.293,0.621-1.75
			c-0.094-0.343-0.203-0.478-0.508-0.625c-0.254-0.122-0.357-0.132-1.584-0.152l-1.313-0.022l-0.09,0.305
			c-0.208,0.729-0.413,1.459-0.617,2.19c-0.289,1.037-0.539,1.917-0.552,1.957c-0.019,0.054,0.128,0.071,0.606,0.071h0.632
			L-54.109,9.503z M-53.425,7.251c-0.019-0.03,0.026-0.271,0.1-0.536l0.132-0.482l0.435-0.016c0.709-0.027,0.89,0.117,0.731,0.583
			c-0.115,0.34-0.297,0.44-0.871,0.475C-53.184,7.292-53.404,7.282-53.425,7.251z M-52.301,6.951
			c0.228-0.224,0.234-0.496,0.014-0.579c-0.086-0.032-0.298-0.05-0.473-0.041l-0.317,0.017l-0.104,0.37
			c-0.059,0.205-0.106,0.379-0.107,0.386c0.136,0.015,0.271,0.02,0.408,0.015C-52.505,7.119-52.457,7.105-52.301,6.951
			L-52.301,6.951z M-58.896,9.825c-0.209-0.103-0.422-0.474-0.422-0.738c0-0.257,0.611-2.588,0.727-2.77
			c0.04-0.064,1.34-0.074,1.38-0.01c0.015,0.023-0.103,0.504-0.261,1.069c-0.157,0.564-0.279,1.09-0.27,1.17
			c0.035,0.296,0.527,0.187,0.704-0.156c0.045-0.086,0.19-0.542,0.322-1.013c0.35-1.243,0.231-1.114,1.018-1.114
			c0.658,0,0.669,0.002,0.669,0.13c0,0.153-0.846,3.203-0.932,3.361c-0.051,0.096-0.13,0.107-0.665,0.107h-0.606V9.719
			c0-0.078-0.006-0.143-0.015-0.142c-0.008,0-0.168,0.077-0.356,0.17c-0.277,0.14-0.412,0.171-0.724,0.17
			C-58.557,9.917-58.785,9.88-58.896,9.825L-58.896,9.825z M-57.915,9.745c0.12-0.033,0.334-0.147,0.479-0.257
			c0.379-0.285,0.502-0.266,0.377,0.058l-0.057,0.147l0.528-0.016l0.528-0.017l0.453-1.599c0.25-0.88,0.455-1.618,0.457-1.642
			s-0.246-0.043-0.55-0.043c-0.651,0-0.561-0.113-0.899,1.114c-0.129,0.471-0.299,0.952-0.377,1.067
			c-0.17,0.256-0.484,0.375-0.735,0.28c-0.144-0.054-0.16-0.088-0.16-0.328c0-0.213,0.208-1.062,0.497-2.027
			c0.023-0.08-0.045-0.094-0.523-0.102c-0.526-0.01-0.556-0.004-0.61,0.12c-0.032,0.073-0.19,0.608-0.351,1.189
			c-0.314,1.14-0.363,1.564-0.203,1.805C-58.876,9.771-58.395,9.876-57.915,9.745z M-63.854,9.792
			c-0.014-0.04,0.021-0.228,0.078-0.416c0.055-0.188,0.327-1.152,0.605-2.142l0.559-1.99l0.055-0.189l1.518,0.019
			c1.446,0.017,1.529,0.024,1.764,0.147c0.44,0.233,0.559,0.59,0.397,1.209c-0.112,0.427-0.327,0.763-0.644,1.001l-0.232,0.174
			l0.16,0.154c0.199,0.192,0.21,0.49,0.039,1.189c-0.064,0.267-0.103,0.545-0.084,0.618c0.065,0.257-0.041,0.295-0.819,0.295
			c-0.591,0-0.726-0.016-0.753-0.088c-0.02-0.047,0.021-0.323,0.089-0.613c0.2-0.853,0.181-0.898-0.407-0.898h-0.39l-0.085,0.3
			l-0.223,0.785l-0.135,0.485l-0.734,0.017C-63.648,9.861-63.835,9.848-63.854,9.792z M-62.273,8.99
			c0.258-0.938,0.232-0.9,0.603-0.9c0.462,0,0.668,0.058,0.772,0.214c0.086,0.13,0.084,0.177-0.035,0.663
			c-0.189,0.782-0.229,0.723,0.514,0.723h0.637V9.466c0-0.123,0.055-0.446,0.12-0.72c0.14-0.577,0.113-0.78-0.125-0.954
			c-0.092-0.067-0.168-0.154-0.168-0.192s0.118-0.138,0.263-0.221c0.42-0.242,0.721-0.801,0.735-1.36
			c0.008-0.331-0.123-0.534-0.452-0.699c-0.205-0.102-0.365-0.116-1.627-0.133l-1.4-0.02l-0.06,0.191
			c-0.034,0.105-0.312,1.085-0.618,2.179c-0.191,0.691-0.387,1.381-0.589,2.07c-0.026,0.069,0.072,0.082,0.603,0.082h0.635
			L-62.273,8.99z M-61.693,7.048c0-0.07,0.047-0.282,0.104-0.47l0.104-0.344l0.504-0.016c0.608-0.02,0.736,0.032,0.736,0.301
			c0,0.496-0.234,0.658-0.954,0.658C-61.675,7.177-61.695,7.172-61.693,7.048z M-60.525,6.893c0.064-0.082,0.113-0.175,0.144-0.275
			c0.056-0.218-0.103-0.298-0.589-0.298h-0.412l-0.078,0.3c-0.042,0.165-0.09,0.335-0.107,0.38c-0.023,0.064,0.057,0.073,0.453,0.05
			C-60.702,7.027-60.618,7.005-60.525,6.893L-60.525,6.893z M-40.229,5.78c-0.248-0.106-0.369-0.298-0.369-0.583
			c0-0.458,0.461-0.72,0.949-0.537c0.444,0.167,0.408,0.93-0.054,1.12C-39.941,5.88-39.997,5.88-40.229,5.78z M-39.695,5.55
			c0.104-0.079,0.098-0.084-0.105-0.086c-0.131-0.001-0.217-0.03-0.217-0.07c0-0.054-0.017-0.054-0.07,0
			c-0.124,0.122-0.221,0.077-0.221-0.103c0-0.094-0.029-0.171-0.063-0.171c-0.101,0-0.006,0.3,0.13,0.414
			C-40.096,5.656-39.848,5.663-39.695,5.55z M-39.48,5.34c-0.043-0.042-0.049-0.11-0.014-0.2c0.033-0.084,0.031-0.135-0.004-0.135
			c-0.031,0-0.057,0.052-0.057,0.115c0,0.069-0.038,0.114-0.098,0.114c-0.086,0-0.084,0.01,0.014,0.084
			C-39.506,5.416-39.387,5.434-39.48,5.34L-39.48,5.34z M-40.48,5.162c-0.027-0.039-0.049-0.007-0.049,0.072
			c0,0.078,0.021,0.11,0.049,0.071C-40.452,5.262-40.452,5.206-40.48,5.162z M-39.846,5.291c0-0.032-0.025-0.057-0.057-0.057
			c-0.031,0-0.057,0.026-0.058,0.057c0,0.031,0.026,0.057,0.058,0.057S-39.846,5.323-39.846,5.291z M-40.016,5.105
			c-0.028-0.039-0.051-0.007-0.051,0.072c0,0.078,0.022,0.11,0.049,0.071c0.029-0.043,0.029-0.1,0-0.143H-40.016z M-39.775,4.848
			c-0.121-0.094-0.304-0.087-0.442,0.016c-0.105,0.078-0.097,0.084,0.124,0.084c0.171,0,0.248,0.028,0.277,0.1
			c0.039,0.092,0.047,0.09,0.088-0.014C-39.697,4.956-39.711,4.897-39.775,4.848z M-39.918,4.688
			c-0.057-0.025-0.135-0.024-0.174,0.004c-0.04,0.027,0.007,0.048,0.104,0.046C-39.895,4.736-39.861,4.713-39.918,4.688
			L-39.918,4.688z"/>
		<path opacity="0.938" fill="#2A2C83" enable-background="new    " d="M-63.657,9.641c-0.022-0.017,0.138-0.623,0.519-1.966
			c0.303-1.068,0.588-2.068,0.633-2.22l0.082-0.28l1.191,0.022c1.392,0.025,1.605,0.044,1.83,0.155
			c0.396,0.198,0.506,0.503,0.369,1.03c-0.117,0.449-0.34,0.754-0.77,1.056c-0.081,0.057-0.153,0.127-0.158,0.155
			c-0.006,0.032,0.044,0.101,0.13,0.178c0.078,0.07,0.16,0.162,0.183,0.206c0.063,0.119,0.051,0.357-0.035,0.769
			c-0.043,0.211-0.075,0.426-0.094,0.641l-0.018,0.275h-0.577c-0.407,0-0.586-0.01-0.612-0.036C-61.04,9.57-61.027,9.43-60.93,9.023
			c0.109-0.449,0.115-0.627,0.027-0.737c-0.117-0.145-0.222-0.177-0.638-0.19c-0.337-0.011-0.394-0.006-0.444,0.04
			c-0.078,0.07-0.143,0.252-0.33,0.94l-0.16,0.586h-0.575c-0.316,0-0.591-0.01-0.608-0.023L-63.657,9.641z M-60.627,7.123
			c0.273-0.08,0.389-0.256,0.389-0.594c0-0.102-0.017-0.173-0.052-0.215c-0.084-0.099-0.334-0.132-0.803-0.108l-0.408,0.022
			l-0.06,0.197c-0.092,0.304-0.155,0.599-0.146,0.668c0.006,0.046,0.038,0.069,0.114,0.083C-61.425,7.209-60.802,7.174-60.627,7.123
			z M-58.697,9.727c-0.183-0.064-0.326-0.185-0.386-0.324c-0.114-0.262-0.01-0.85,0.409-2.274c0.1-0.34,0.181-0.623,0.181-0.628
			c0-0.004,0.022-0.028,0.048-0.054c0.038-0.038,0.127-0.046,0.48-0.046c0.236,0,0.465,0.012,0.506,0.028l0.075,0.028l-0.075,0.261
			c-0.184,0.64-0.372,1.417-0.404,1.66c-0.031,0.221-0.029,0.279,0.006,0.352c0.08,0.166,0.375,0.201,0.625,0.076
			c0.291-0.15,0.346-0.277,0.817-1.895c0.069-0.237,0.122-0.36,0.181-0.423L-56.15,6.4h0.469c0.365,0,0.475,0.009,0.486,0.04
			c0.012,0.03-0.586,2.223-0.838,3.074l-0.04,0.133l-0.503,0.016c-0.275,0.008-0.502,0.006-0.502-0.004s0.02-0.076,0.045-0.146
			c0.102-0.283-0.025-0.302-0.395-0.055c-0.366,0.243-0.521,0.3-0.836,0.314C-58.479,9.779-58.572,9.771-58.697,9.727z
			 M-55.354,9.639c-0.027-0.018,0.127-0.605,0.586-2.23l0.623-2.21l1.054,0.01c1.313,0.01,1.582,0.033,1.836,0.157
			c0.209,0.1,0.308,0.191,0.401,0.365c0.155,0.292,0.153,0.63-0.008,1.095c-0.25,0.714-0.715,1.183-1.328,1.34
			c-0.099,0.025-0.41,0.06-0.691,0.076c-0.93,0.054-0.873,0.044-0.924,0.17c-0.023,0.06-0.116,0.366-0.205,0.68l-0.163,0.57h-0.573
			C-55.061,9.661-55.334,9.65-55.354,9.639z M-52.645,7.261c0.307-0.039,0.468-0.132,0.569-0.33c0.11-0.211,0.14-0.442,0.069-0.548
			c-0.096-0.143-0.227-0.174-0.719-0.172c-0.244,0.001-0.457,0.014-0.473,0.029c-0.033,0.033-0.24,0.84-0.24,0.937
			c0,0.04,0.01,0.082,0.021,0.093C-53.389,7.298-52.889,7.292-52.645,7.261z M-50.925,9.738c-0.354-0.146-0.446-0.389-0.33-0.87
			c0.161-0.675,0.517-0.9,1.737-1.103c0.736-0.122,0.92-0.212,0.974-0.473c0.04-0.193-0.128-0.299-0.476-0.299
			c-0.217,0-0.299,0.031-0.485,0.186l-0.152,0.125l-0.39,0.01c-0.453,0.012-0.592-0.006-0.592-0.075c0-0.08,0.178-0.326,0.343-0.476
			c0.179-0.16,0.414-0.283,0.67-0.348c0.536-0.138,1.458-0.122,1.774,0.03c0.17,0.082,0.32,0.218,0.394,0.353
			c0.067,0.128,0.043,0.261-0.276,1.513c-0.158,0.615-0.287,1.169-0.287,1.234v0.117h-0.371c-0.17-0.002-0.341,0.005-0.51,0.02
			l-0.141,0.018l-0.061-0.141c-0.072-0.164-0.08-0.164-0.459,0.002c-0.41,0.184-0.562,0.224-0.881,0.238
			C-50.715,9.811-50.762,9.807-50.925,9.738L-50.925,9.738z M-49.307,9.045c0.207-0.09,0.44-0.46,0.443-0.7V8.23l-0.191,0.017
			c-0.211,0.02-0.659,0.162-0.823,0.262c-0.133,0.075-0.216,0.215-0.22,0.367c0,0.14,0.022,0.181,0.121,0.222
			C-49.863,9.145-49.464,9.114-49.307,9.045z M-47.65,11.066c-0.119-0.026-0.125-0.071-0.041-0.396
			c0.112-0.436,0.104-0.427,0.383-0.47c0.299-0.046,0.432-0.11,0.5-0.242c0.072-0.146,0.067-0.718-0.022-2.253
			c-0.05-0.855-0.062-1.242-0.04-1.268C-46.848,6.41-46.695,6.4-46.305,6.4h0.537l0.01,0.992c0.006,0.677,0.02,1.002,0.042,1.025
			c0.055,0.054,0.256-0.282,1.082-1.802l0.116-0.215h0.474c0.26,0,0.479,0.01,0.487,0.023c0.015,0.024-0.702,1.284-1.422,2.497
			c-1.023,1.727-1.215,1.963-1.695,2.096C-46.831,11.059-47.523,11.096-47.65,11.066z"/>
		<g>
			<path fill="#097A44" d="M-43.215,10.67l1.406-5.077l1.34,2.624L-43.215,10.67z"/>
			<path fill="#F46F20" d="M-44.086,10.689l1.406-5.079l1.34,2.624L-44.086,10.689z"/>
		</g>
	</g>
	<g transform="translate(110)">
		<path fill="#FFFFFF" d="M1,0h30c0.552,0,1,0.448,1,1v14c0,0.553-0.448,1-1,1H1c-0.552,0-1-0.447-1-1V1C0,0.448,0.448,0,1,0z"/>
		<path fill="#1CA9E1" d="M24.002,5l-0.887,0.915L22.287,5h-8.162l-0.701,1.547L12.705,5h-3.27v0.704L9.072,5H6.275l-2.737,5.992
			h3.278l0.406-0.955h0.929l0.406,0.955h3.608v-0.729l0.32,0.729h1.868l0.32-0.746v0.745h7.504l0.912-0.932l0.854,0.932L27.796,11
			L25.05,8.012L27.796,5H24.002z M24.467,5.85h1.318l-2.003,2.162l2.003,2.138h-1.378L23.09,8.725l-1.368,1.426H17.48v-4.3h4.31
			l1.317,1.41L24.467,5.85L24.467,5.85z M14.767,5.85h1.74v4.3h-1.056l-0.008-3.369l-1.546,3.369H12.95L11.396,6.78v3.369h-2.18
			L8.802,9.186H6.57l-0.414,0.963H4.991l1.918-4.299h1.597l1.817,4.065V5.85h1.748l1.403,2.916L14.767,5.85z M6.951,8.296h1.47
			L7.686,6.579L6.951,8.296z M18.544,6.74v0.785h2.349V8.4h-2.35v0.858h2.637l1.225-1.263L21.23,6.74H18.544z"/>
	</g>
	<g transform="translate(73.333)">
		<path fill="#FFFFFF" d="M1,0h30c0.552,0,1,0.448,1,1v14c0,0.553-0.448,1-1,1H1c-0.552,0-1-0.447-1-1V1C0,0.448,0.448,0,1,0z"/>
		<g transform="translate(7.075 3)">
			<ellipse fill="#007BDB" cx="5.054" cy="5" rx="5.054" ry="5"/>
			<ellipse fill="#E42B00" cx="12.129" cy="5" rx="5.054" ry="5"/>
			<path fill="#1740CE" d="M8.591,8.58c0,0,1.517-1.604,1.517-3.58c0-1.977-1.518-3.58-1.518-3.58S7.075,2.645,7.075,5
				C7.075,7.355,8.591,8.58,8.591,8.58z"/>
		</g>
	</g>
	<g transform="translate(36.667)">
		<path fill="#FFFFFF" d="M1,0h30c0.552,0,1,0.448,1,1v14c0,0.553-0.448,1-1,1H1c-0.552,0-1-0.447-1-1V1C0,0.448,0.448,0,1,0z"/>
		<g transform="translate(7.075 3)">
			<ellipse fill="#CC0000" cx="5.054" cy="5" rx="5.054" ry="5"/>
			<ellipse fill="#FF9900" cx="12.129" cy="5" rx="5.054" ry="5"/>
			<path fill="#F16D27" d="M8.591,8.58c0,0,1.517-1.604,1.517-3.58c0-1.977-1.518-3.58-1.518-3.58S7.075,2.645,7.075,5
				C7.075,7.355,8.591,8.58,8.591,8.58z"/>
		</g>
	</g>
	<g>
		<path fill="#FFFFFF" d="M1,0h30c0.552,0,1,0.448,1,1v14c0,0.553-0.448,1-1,1H1c-0.552,0-1-0.447-1-1V1C0,0.448,0.448,0,1,0z"/>
		<path fill="#191975" d="M11.936,11.58L13.1,4.427h1.863l-1.165,7.153H11.936 M20.556,4.603c-0.534-0.202-1.1-0.303-1.67-0.3
			c-1.841,0-3.138,0.97-3.148,2.36c-0.012,1.028,0.925,1.602,1.631,1.944c0.726,0.35,0.97,0.574,0.967,0.887
			c-0.005,0.48-0.58,0.699-1.115,0.699c-0.746,0-1.142-0.108-1.755-0.375l-0.24-0.114l-0.26,1.601
			c0.435,0.199,1.24,0.372,2.076,0.381c1.957,0,3.229-0.959,3.244-2.442c0.007-0.815-0.49-1.433-1.565-1.944
			c-0.651-0.331-1.05-0.551-1.046-0.887c0-0.297,0.338-0.615,1.067-0.615c0.61-0.01,1.05,0.13,1.394,0.275l0.168,0.081L20.556,4.603
			 M23.037,9.044c0.154-0.411,0.742-2,0.742-2c-0.011,0.02,0.153-0.414,0.247-0.682l0.126,0.617l0.431,2.065H23.037z M25.335,4.434
			h-1.44c-0.446,0-0.78,0.127-0.976,0.593l-2.767,6.556h1.957c0,0,0.32-0.882,0.392-1.076l2.386,0.004
			c0.055,0.25,0.226,1.072,0.226,1.072h1.73L25.335,4.434L25.335,4.434z M10.373,4.433L8.55,9.311L8.354,8.318
			c-0.34-1.142-1.397-2.38-2.58-3l1.668,6.256l1.971-0.001l2.934-7.14H10.373"/>
		<path fill="#EC982D" d="M6.857,4.428H3.853L3.828,4.577c2.338,0.592,3.884,2.022,4.526,3.741L7.701,5.032
			C7.589,4.579,7.261,4.444,6.857,4.428"/>
	</g>
</g>
</svg>
