<?xml version="1.0" encoding="utf-8"?>
<!-- Generator: Adobe Illustrator 21.0.0, SVG Export Plug-In . SVG Version: 6.00 Build 0)  -->
<svg version="1.1" id="Layer_1" xmlns="http://www.w3.org/2000/svg" xmlns:xlink="http://www.w3.org/1999/xlink" x="0px" y="0px"
	 viewBox="0 0 166 159.2" enable-background="new 0 0 166 159.2" xml:space="preserve">
<g>
	<g>
		<g>
			<g>
				<circle fill="#808080" cx="96" cy="73.9" r="8.5"/>
				<circle fill="#808080" cx="56.5" cy="73.9" r="8.5"/>
			</g>
			<path fill="#808080" d="M76.2,31.6c-31.1,0-56.4,25.3-56.4,56.4c0,31.1,25.2,56.4,56.4,56.4c31.2,0,56.5-25.3,56.5-56.4
				C132.7,56.8,107.4,31.6,76.2,31.6z M76.3,133.1c-24.9,0-45.1-20.2-45.1-45.1c0-24.9,20.2-45.1,45.1-45.1S121.4,63,121.4,88
				C121.4,112.9,101.2,133.1,76.3,133.1z"/>
			<path fill="#808080" d="M76.3,99.3c-5.5,0-10.7,1.5-15.2,4l3.8,7.6c3.3-2,7.2-3.1,11.4-3.1c4.2,0,8,1.1,11.4,3.1l3.8-7.6
				C87,100.7,81.8,99.3,76.3,99.3z"/>
		</g>
	</g>
	<g>
		<g>
			<polygon fill="#A6A6A6" points="166,113.2 157.9,113.2 157.9,105.2 149.9,105.2 149.9,113.2 141.8,113.2 141.8,121.3 
				149.9,121.3 149.9,129.4 157.9,129.4 157.9,121.3 166,121.3 			"/>
		</g>
	</g>
	<g>
		<g>
			<polygon fill="#A6A6A6" points="130,22.4 125.6,22.4 125.6,18 121.2,18 121.2,22.4 116.8,22.4 116.8,26.8 121.2,26.8 121.2,31.2 
				125.6,31.2 125.6,26.8 130,26.8 			"/>
		</g>
	</g>
	<g>
		<g>
			<path fill="#A6A6A6" d="M2.5,23.3c7.1,1.8,12.5,7.2,14.3,14.3c0.4,1.5,1.7,2.5,3.2,2.5c1.5,0,2.9-1,3.2-2.5
				c1.8-7.1,7.2-12.5,14.3-14.3c1.5-0.4,2.5-1.7,2.5-3.2c0-1.5-1-2.9-2.5-3.2c-7.1-1.8-12.5-7.2-14.3-14.3C23,1,21.6,0,20.1,0
				c-1.5,0-2.9,1-3.2,2.5C15.1,9.6,9.6,15.1,2.5,16.8C1,17.2,0,18.5,0,20.1C0,21.6,1,23,2.5,23.3z M20.1,11.8
				c2.1,3.4,4.9,6.2,8.3,8.3c-3.3,2.1-6.2,4.9-8.3,8.3c-2.1-3.4-4.9-6.2-8.3-8.3C15.1,18,18,15.1,20.1,11.8z"/>
		</g>
	</g>
	<g>
		<g>
			<path fill="#A6A6A6" d="M9.5,149.5c4,1,7.2,4.1,8.2,8.2c0.2,0.9,1,1.5,1.9,1.5c0.9,0,1.6-0.6,1.9-1.5c1-4,4.1-7.2,8.2-8.2
				c0.9-0.2,1.5-1,1.5-1.9c0-0.9-0.6-1.6-1.5-1.9c-4-1-7.2-4.1-8.2-8.2c-0.2-0.9-1-1.5-1.9-1.5c-0.9,0-1.6,0.6-1.9,1.5
				c-1,4-4.1,7.2-8.2,8.2c-0.9,0.2-1.5,1-1.5,1.9C8,148.5,8.6,149.3,9.5,149.5z M19.5,142.9c1.2,1.9,2.8,3.5,4.7,4.7
				c-1.9,1.2-3.5,2.8-4.7,4.7c-1.2-1.9-2.8-3.5-4.7-4.7C16.7,146.5,18.3,144.8,19.5,142.9z"/>
		</g>
	</g>
</g>
</svg>
