<svg id="Layer_1" data-name="Layer 1" xmlns="http://www.w3.org/2000/svg" viewBox="0 0 448.26 426.62"><title>user_upload</title><path d="M344.07,401.51c11.22,3.12,22.65,5.93,33.84,9.5a189.23,189.23,0,0,1,52.75,26.82c2.58,1.85,6.8,2,10.25,1.95,42-.57,73.14,17.6,91.5,55.13,29.12,59.54-12,130.77-78,136.22-35.69,2.94-64.38-10.57-86.11-38.85-2-2.63-4-3.31-7-3.31q-116.73.07-233.47,0c-20.68,0-34-13.4-34-34.1,0-10.5.26-21,0-31.49-.76-25.75,8.74-47.51,25.67-66.27,21.87-24.24,49.83-38.5,80.51-48,9-2.8,18.3-4.83,28.07-7.37-33.81-24-51-56.25-48.61-97.61,1.71-29.08,14.16-53.56,36.14-72.76,44.69-39,111-34.41,150.63,10.21C406.15,286.67,401.49,363.76,344.07,401.51Zm62.43,44.87c-11.08-4.83-21.89-10.5-33.3-14.36-48.69-16.47-98.35-17.43-148.36-7.36-28.23,5.68-54.57,16.19-77.11,34.65C131,473,118,489.48,115.81,511.66c-1.5,15.52-.75,31.28-.57,46.92,0,4.27,3.07,7.37,7.36,8.47a28.08,28.08,0,0,0,6.92.68q110.21,0,220.42,0c1.55,0,3.11-.19,4.76-.3C338.29,514.47,364.69,466.9,406.5,446.38ZM285.66,397A85.38,85.38,0,0,0,371,311.92c.06-47.24-38.22-85.67-85.33-85.64a85.36,85.36,0,1,0,0,170.72ZM520.23,535.84A74.48,74.48,0,0,0,445.33,461C404.49,461,371,494.62,371,535.49a74.62,74.62,0,0,0,149.23.35Z" transform="translate(-93.66 -204.9)"/><path d="M456.25,518.58c0,3.15,0,4.74,0,6.32,0,17.17,0,34.33,0,51.49,0,8-4.24,12.78-10.93,12.59C439,588.8,435,583.9,435,576.23c0-18.65,0-37.31,0-57.22-3.8,3.7-6.91,6.72-10,9.76-2.49,2.45-4.91,5-7.44,7.4-5,4.81-11.09,5.05-15.55.7s-4.33-10.9.66-16c9.85-9.95,20.06-19.55,29.61-29.77,11-11.78,15.31-12.39,26.86.09,9.28,10,19.25,19.39,28.89,29.07,5.63,5.64,6.1,12.06,1.27,16.66s-10.84,3.9-16.31-1.55C467.73,530.19,462.53,524.91,456.25,518.58Z" transform="translate(-93.66 -204.9)"/></svg>