<svg version="1.1" id="Layer_1" xmlns="http://www.w3.org/2000/svg" xmlns:xlink="http://www.w3.org/1999/xlink" x="0px" y="0px"
								 width="40px" height="32px" viewBox="0 0 40 32" enable-background="new 0 0 40 32" xml:space="preserve">
							<g>
								<path fill="#FFFFFF" d="M35.518,4.855H4.489c-0.367,0-0.664-0.297-0.664-0.663c0-0.367,0.297-0.663,0.664-0.663h31.022
									c0.365,0,0.663,0.296,0.663,0.663C36.181,4.558,35.884,4.855,35.518,4.855z"/>
								<path fill="#FFFFFF" d="M35.518,16.66H4.489c-0.367,0-0.664-0.297-0.664-0.663c0-0.367,0.297-0.664,0.664-0.664h31.022
									c0.365,0,0.663,0.297,0.663,0.664C36.181,16.363,35.884,16.66,35.518,16.66z"/>
								<path fill="#FFFFFF" d="M35.518,28.471H4.489c-0.367,0-0.664-0.298-0.664-0.663c0-0.367,0.297-0.664,0.664-0.664h31.022
									c0.365,0,0.663,0.297,0.663,0.664C36.175,28.173,35.884,28.471,35.518,28.471z"/>
							</g>
							</svg>