<?xml version="1.0" encoding="utf-8"?>
<!-- Generator: Adobe Illustrator 15.1.0, SVG Export Plug-In . SVG Version: 6.00 Build 0)  -->
<!DOCTYPE svg PUBLIC "-//W3C//DTD SVG 1.1//EN" "http://www.w3.org/Graphics/SVG/1.1/DTD/svg11.dtd">
<svg version="1.1" id="Layer_1" xmlns="http://www.w3.org/2000/svg" xmlns:xlink="http://www.w3.org/1999/xlink" x="0px" y="0px"
	 width="40px" height="32px" viewBox="0 0 40 32" enable-background="new 0 0 40 32" xml:space="preserve">
<g>
	<path fill="#3A3A3A" d="M35.518,4.855H4.489c-0.367,0-0.664-0.297-0.664-0.663c0-0.367,0.297-0.663,0.664-0.663h31.021
		c0.365,0,0.663,0.296,0.663,0.663C36.182,4.558,35.884,4.855,35.518,4.855z"/>
	<path fill="#3A3A3A" d="M35.518,16.66H4.489c-0.367,0-0.664-0.297-0.664-0.663c0-0.367,0.297-0.664,0.664-0.664h31.021
		c0.365,0,0.663,0.297,0.663,0.664C36.182,16.363,35.884,16.66,35.518,16.66z"/>
	<path fill="#3A3A3A" d="M35.518,28.471H4.489c-0.367,0-0.664-0.298-0.664-0.662c0-0.367,0.297-0.664,0.664-0.664h31.021
		c0.365,0,0.663,0.297,0.663,0.664C36.175,28.173,35.884,28.471,35.518,28.471z"/>
</g>
</svg>
