<?xml version="1.0" encoding="utf-8"?>
<!-- Generator: Adobe Illustrator 15.1.0, SVG Export Plug-In . SVG Version: 6.00 Build 0)  -->
<!DOCTYPE svg PUBLIC "-//W3C//DTD SVG 1.1//EN" "http://www.w3.org/Graphics/SVG/1.1/DTD/svg11.dtd">
<svg version="1.1" id="Layer_1" xmlns="http://www.w3.org/2000/svg" xmlns:xlink="http://www.w3.org/1999/xlink" x="0px" y="0px"
	 width="7.57px" height="5.986px" viewBox="0 0 7.57 5.986" enable-background="new 0 0 7.57 5.986" xml:space="preserve">
<g id="XMLID_1_">
	<path fill="#49AE5E" d="M2.388,5.146L0.884,3.629c-0.442-0.446-0.442-1.174,0.001-1.62C1.103,1.792,1.39,1.674,1.697,1.674
		s0.593,0.118,0.81,0.332l0.698,0.699l1.858-1.858C5.279,0.63,5.567,0.512,5.874,0.512c0.308,0,0.595,0.118,0.812,0.335
		C6.9,1.063,7.019,1.351,7.019,1.658s-0.12,0.595-0.337,0.811L4.01,5.141C3.846,5.306,3.639,5.413,3.414,5.455v0.718L2.388,5.146z"
		/>
	<path fill="#FFFFFF" d="M5.874,1.112c0.141,0,0.279,0.053,0.386,0.159c0.214,0.212,0.214,0.561,0,0.771
		C4.222,4.087,5.631,2.679,3.587,4.716C3.481,4.822,3.341,4.875,3.201,4.875c-0.141,0-0.281-0.053-0.387-0.159v0.008L1.311,3.207
		C1.1,2.994,1.1,2.645,1.311,2.433c0.105-0.105,0.246-0.158,0.386-0.158c0.141,0,0.281,0.053,0.387,0.158l1.12,1.122l2.283-2.284
		C5.593,1.165,5.733,1.112,5.874,1.112 M5.874-0.088c-0.467,0-0.905,0.181-1.233,0.51L3.205,1.856L2.934,1.585
		C2.6,1.254,2.162,1.074,1.697,1.074c-0.466,0-0.904,0.181-1.233,0.508c-0.679,0.684-0.68,1.789-0.006,2.469l1.504,1.517
		l2.053,2.068V5.875c0.152-0.08,0.294-0.184,0.42-0.309L5.332,4.67l0.622-0.62L7.109,2.89c0.327-0.326,0.51-0.766,0.51-1.232
		C7.62,1.19,7.437,0.751,7.107,0.421C6.78,0.093,6.341-0.088,5.874-0.088L5.874-0.088z"/>
</g>
</svg>
