<?xml version="1.0" standalone="no"?>
<!DOCTYPE svg PUBLIC "-//W3C//DTD SVG 1.1//EN" "http://www.w3.org/Graphics/SVG/1.1/DTD/svg11.dtd" >
<svg xmlns="http://www.w3.org/2000/svg" xmlns:xlink="http://www.w3.org/1999/xlink" version="1.1">
<metadata>
Created by FontForge 20150824 at Wed Apr 13 01:21:56 2016
 By Everything Fonts
Copyright (c) 2011 Julieta Ulanovsky (julieta.ulanovsky@gmail.com), with Reserved Font Names "Montserrat"
</metadata>
<defs>
<font id="MontserratRegular" horiz-adv-x="833" >
  <font-face 
    font-family="MontserratRegular"
    font-weight="400"
    font-stretch="normal"
    units-per-em="1000"
    panose-1="2 0 5 5 0 0 0 2 0 4"
    ascent="800"
    descent="-200"
    x-height="530"
    cap-height="699"
    bbox="-128 -251 1172 968"
    underline-thickness="50"
    underline-position="-150"
    unicode-range="U+0020-FB02"
  />
<missing-glyph horiz-adv-x="206" 
 />
    <glyph glyph-name="fi" unicode="fi" horiz-adv-x="710" 
d="M609 673l-104 -48q-26 103 -117 103q-71 0 -105 -42.5t-34 -102.5v-51h106v-93h-106v-439h-112v439h-87v93h87v44q0 108 70 179.5t185 71.5q78 0 135.5 -42.5t81.5 -111.5zM617 0h-112v532h112v-532z" />
    <glyph glyph-name="fl" unicode="fl" horiz-adv-x="717" 
d="M698 0q2 -45 10 -100q-32 -5 -68 -5t-69 17.5t-50 51.5q-30 60 -30 169v427q0 168 -123 168q-70 0 -101.5 -42t-31.5 -103v-51h106v-93h-106v-439h-112v439h-87v93h87v44q0 108 67 179.5t182 71.5t173 -70t58 -191v-486q0 -86 64 -86q16 0 31 6z" />
    <glyph glyph-name=".notdef" horiz-adv-x="206" 
 />
    <glyph glyph-name="uni0000" horiz-adv-x="1000" 
 />
    <glyph glyph-name="uni0000" horiz-adv-x="1000" 
 />
    <glyph glyph-name="nonmarkingreturn" horiz-adv-x="333" 
 />
    <glyph glyph-name="space" unicode=" " horiz-adv-x="206" 
 />
    <glyph glyph-name="exclam" unicode="!" horiz-adv-x="349" 
d="M104 716h140v-129l-30 -361h-80l-30 361v129zM122 14q-22 22 -22 52.5t22 52.5t52.5 22t52.5 -22t22 -52.5t-22 -52.5t-52.5 -22t-52.5 22z" />
    <glyph glyph-name="quotedbl" unicode="&#x22;" horiz-adv-x="324" 
d="M54 453v246h78v-246h-78zM196 453v246h78v-246h-78z" />
    <glyph glyph-name="numbersign" unicode="#" horiz-adv-x="827" 
d="M715 436h-108l-29 -166h123l-22 -110h-119l-28 -160h-111l28 160h-147l-28 -160h-112l28 160h-103l22 110h100l29 166h-114l22 110h111l29 170h111l-29 -170h147l29 170h112l-31 -170h112zM497 436h-147l-30 -166h147zM715 436l22 110h-112l31 170h-112l-29 -170h-147
l29 170h-111l-29 -170h-111l-22 -110h591zM350 436h147h-147z" />
    <glyph glyph-name="dollar" unicode="$" horiz-adv-x="698" 
d="M326 -72v73q-137 14 -246 109l73 87q84 -73 173 -87v194q-113 27 -165.5 71t-52.5 130.5t60.5 141.5t157.5 60v50h64v-51q110 -8 208 -75l-65 -92q-66 47 -143 58v-188h3q115 -27 169 -73t54 -133.5t-62 -142.5t-164 -60v-72h-64zM466 135q28 23 28 58t-22 55.5t-82 38.5
v-180q48 5 76 28zM255.5 573.5q-25.5 -22.5 -25.5 -56t20 -53t76 -37.5v173q-45 -4 -70.5 -26.5z" />
    <glyph glyph-name="percent" unicode="%" horiz-adv-x="879" 
d="M392 557q0 -66 -43.5 -113t-108 -47t-107.5 46.5t-43 112.5t43.5 113t108 47t107.5 -46.5t43 -112.5zM756 699l-512 -699h-129l512 699h129zM298 555q0 30 -17 50.5t-41.5 20.5t-40.5 -20.5t-16 -50.5t17 -50.5t41.5 -20.5t40.5 20.5t16 50.5zM789 152q0 -66 -43.5 -113
t-108 -47t-107.5 46.5t-43 112.5t43.5 113t108 47t107.5 -46.5t43 -112.5zM697 148q0 30 -17 50.5t-41.5 20.5t-40.5 -20.5t-16 -50.5t17 -50.5t41.5 -20.5t40.5 20.5t16 50.5z" />
    <glyph glyph-name="ampersand" unicode="&#x26;" horiz-adv-x="740" 
d="M545 330l82 -58q-26 -69 -59 -121q41 -41 102 -99l-75 -70l-92 91q-88 -81 -220 -81q-98 0 -167 54.5t-69 149.5q0 113 164 201q-41 47 -57.5 77t-16.5 76q0 80 59 123t139 43t136 -41t56 -115q0 -99 -160 -187q80 -98 130 -150q31 46 48 107zM196 117.5
q38 -28.5 101 -28.5t134 58q-101 106 -160 178q-113 -61 -113 -134q0 -45 38 -73.5zM274.5 606q-26.5 -21 -26.5 -49t13.5 -50.5t46.5 -62.5q113 56 113 104q0 40 -26.5 59.5t-60 19.5t-60 -21z" />
    <glyph glyph-name="quotesingle" unicode="'" horiz-adv-x="178" 
d="M54 453v246h78v-246h-78z" />
    <glyph glyph-name="parenleft" unicode="(" horiz-adv-x="314" 
d="M159 312q0 -115 40 -239.5t98 -205.5h-119q-49 68 -89.5 194t-40.5 251t40.5 251t89.5 194h119q-58 -81 -98 -205.5t-40 -239.5z" />
    <glyph glyph-name="parenright" unicode=")" horiz-adv-x="304" 
d="M167 312q0 115 -40 239.5t-98 205.5h119q49 -68 89.5 -194t40.5 -251t-40.5 -251t-89.5 -194h-119q58 81 98 205.5t40 239.5z" />
    <glyph glyph-name="asterisk" unicode="*" horiz-adv-x="450" 
d="M346 430l-95 64l8 -114h-68l8 115l-95 -64l-34 58l102 51l-102 50l34 59l94 -63l-7 113h68l-7 -113l94 62l34 -58l-103 -50l103 -51z" />
    <glyph glyph-name="plus" unicode="+" horiz-adv-x="583" 
d="M249 587h98v-189h187v-94h-187v-189h-98v189h-187v94h187v189z" />
    <glyph glyph-name="comma" unicode="," horiz-adv-x="224" 
d="M49 -105l37 104q-41 19 -41 66q0 32 22 53.5t52 21.5t52.5 -21.5t22.5 -51.5t-27 -73l-60 -99h-58z" />
    <glyph glyph-name="hyphen" unicode="-" horiz-adv-x="452" 
d="M50 246v105h332v-105h-332z" />
    <glyph glyph-name="period" unicode="." horiz-adv-x="209" 
d="M30 67q0 31 21.5 52.5t52.5 21.5t53 -21.5t22 -52.5t-22 -53t-53 -22t-52.5 22t-21.5 53z" />
    <glyph glyph-name="slash" unicode="/" horiz-adv-x="622" 
d="M460 811h100l-433 -928h-100z" />
    <glyph glyph-name="zero" unicode="0" horiz-adv-x="615" 
d="M137 354q0 -117 41.5 -189t129.5 -72t128.5 71.5t40.5 189.5t-40.5 189.5t-128.5 71.5t-129.5 -72t-41.5 -189zM23 354q0 165 71 263.5t214 98.5t214 -98.5t71 -263.5t-71 -263.5t-214 -98.5t-214 98.5t-71 263.5z" />
    <glyph glyph-name="one" unicode="1" horiz-adv-x="528" 
d="M92 699h254v-699h-112v594h-142v105z" />
    <glyph glyph-name="two" unicode="2" horiz-adv-x="615" 
d="M381 426q30 41 30 83t-32 71.5t-81 29.5q-86 0 -143 -88l-95 55q46 69 101.5 104t143 35t153.5 -55.5t66 -151.5q0 -54 -28 -103t-103 -126l-164 -167h317v-113h-478v100l212 213q71 72 101 113z" />
    <glyph glyph-name="three" unicode="3" horiz-adv-x="639" 
d="M347 594h-253v105h409v-92l-169 -189q96 -3 150 -60.5t54 -137.5q0 -107 -72.5 -168t-186.5 -61t-223 73l50 95q86 -60 180 -60q61 0 100.5 28.5t39.5 82t-44 85.5t-122 32q-39 0 -75 -11v90z" />
    <glyph glyph-name="four" unicode="4" horiz-adv-x="615" 
d="M183 283h167v128h112v-128h84v-107h-84v-176h-112v176h-300v104l257 419h129z" />
    <glyph glyph-name="five" unicode="5" horiz-adv-x="615" 
d="M501 700v-107h-295v-172q44 24 100 24q98 0 169 -59t71 -160t-74 -167.5t-182 -66.5q-141 0 -225 94l63 86q8 -8 21.5 -19t55.5 -29.5t92 -18.5t91 30t41 87.5t-43.5 89t-110 31.5t-126.5 -33l-50 54v336h402z" />
    <glyph glyph-name="six" unicode="6" horiz-adv-x="615" 
d="M532 641l-59 -87q-23 20 -61.5 36t-68.5 16q-93 0 -137 -63t-45 -170q25 28 72 52.5t104 24.5q94 0 157.5 -62.5t63.5 -166t-68.5 -166.5t-172.5 -63q-168 0 -231 150q-37 86 -37 194t23 180t63 114q78 82 191.5 82t205.5 -71zM220.5 312.5q-40.5 -33.5 -40.5 -87t39 -92
t98 -38.5t98 34.5t39 88t-36 91t-96.5 37.5t-101 -33.5z" />
    <glyph glyph-name="seven" unicode="7" horiz-adv-x="615" 
d="M65 498v201h492v-105l-296 -594h-130l289 592h-248v-94h-107z" />
    <glyph glyph-name="eight" unicode="8" horiz-adv-x="615" 
d="M305 713q101 0 168 -53t67 -133.5t-75 -142.5q101 -64 101 -180q0 -90 -72 -151t-189 -61t-189 61t-72 151q0 116 101 180q-75 62 -75 142.5t67 133.5t168 53zM305 94q52 0 98 29.5t46 84.5t-44 85t-100 30t-100 -30t-44 -85t46 -84.5t98 -29.5zM305 411q51 0 88.5 30.5
t37.5 75t-37.5 74.5t-88.5 30t-88.5 -30t-37.5 -74.5t37.5 -75t88.5 -30.5z" />
    <glyph glyph-name="nine" unicode="9" horiz-adv-x="615" 
d="M75 63l59 87q23 -20 61.5 -36t68.5 -16q93 0 137 63t45 170q-25 -28 -72 -52.5t-104 -24.5q-94 0 -157.5 62.5t-63.5 166t68.5 166.5t172.5 63q168 0 232 -150q36 -86 36 -194t-23 -180t-63 -114q-78 -82 -191.5 -82t-205.5 71zM386.5 391.5q40.5 33.5 40.5 87t-39 92
t-97.5 38.5t-96.5 -34.5t-38 -88.5t34.5 -91t95 -37t101 33.5z" />
    <glyph glyph-name="colon" unicode=":" horiz-adv-x="209" 
d="M30 67q0 31 21.5 52.5t52.5 21.5t53 -21.5t22 -52.5t-22 -53t-53 -22t-52.5 22t-21.5 53zM30 312q0 31 21.5 52.5t52.5 21.5t53 -21.5t22 -52.5t-22 -53t-53 -22t-52.5 22t-21.5 53z" />
    <glyph glyph-name="semicolon" unicode=";" horiz-adv-x="225" 
d="M49 -105l37 104q-41 21 -41 67q0 32 22 53.5t52.5 21.5t53 -21.5t22.5 -50.5t-27 -75l-61 -99h-58zM45 312q0 31 21.5 52.5t52.5 21.5t53 -21.5t22 -52.5t-22 -53t-53 -22t-52.5 22t-21.5 53z" />
    <glyph glyph-name="less" unicode="&#x3c;" horiz-adv-x="638" 
d="M75 334v126l471 218v-114l-352 -159v-11l352 -163v-114z" />
    <glyph glyph-name="equal" unicode="=" horiz-adv-x="599" 
d="M45 540h504v-108h-504v108zM45 333h504v-108h-504v108z" />
    <glyph glyph-name="greater" unicode="&#x3e;" horiz-adv-x="664" 
d="M566 460v-126l-471 -217v114l352 163v11l-352 159v114z" />
    <glyph glyph-name="question" unicode="?" horiz-adv-x="519" 
d="M316 217h-113v61q0 40 9.5 59.5t41.5 51.5l73 73q23 25 23 62t-24 61.5t-62 24.5t-63.5 -23.5t-29.5 -62.5h-121q10 89 69.5 139.5t148.5 50.5t145 -48.5t56 -135.5q0 -60 -33 -100q-19 -24 -29 -34t-26.5 -25.5t-28 -27t-18.5 -19.5q-18 -22 -18 -62v-45zM207 16.5
q-23 21.5 -23 52t22.5 52.5t54 22t54.5 -21.5t23 -52t-22.5 -52.5t-54 -22t-54.5 21.5z" />
    <glyph glyph-name="at" unicode="@" horiz-adv-x="1036" 
d="M689 -22l22 -37q-35 -30 -93 -48.5t-113 -18.5q-168 0 -281.5 112t-113.5 280t119 287.5t287.5 119.5t284 -119.5t115.5 -291.5q0 -108 -41 -174.5t-109 -66.5q-49 0 -78 33.5t-31 95.5q-56 -129 -179 -129q-86 0 -151.5 69t-65.5 175t62 178t164 72q46 0 87 -24t59 -57
v67h96v-349q0 -70 55 -70q31 0 56.5 45.5t25.5 119.5q0 160 -96.5 271t-249 111t-259.5 -107t-107 -256t101 -248.5t250 -99.5q120 0 184 60zM596 376q-38 42 -99 42t-98 -43t-37 -105.5t36.5 -109t99.5 -46.5t99.5 45.5t36.5 110t-38 106.5z" />
    <glyph glyph-name="A" unicode="A" horiz-adv-x="770" 
d="M442 699l308 -699h-130l-71 159h-335l-68 -159h-126l308 699h114zM502 268l-120 269l-119 -269h239z" />
    <glyph glyph-name="B" unicode="B" horiz-adv-x="721" 
d="M406 0h-306v699h272q71 0 122.5 -17t77.5 -46q47 -54 47 -122q0 -82 -53 -122q-18 -14 -25 -17.5t-25 -11.5q65 -14 103.5 -58.5t38.5 -110.5q0 -73 -50 -129q-58 -65 -202 -65zM218 409h150q128 0 128 87q0 50 -31 72t-96 22h-151v-181zM218 109h185q65 0 99.5 20.5
t34.5 77.5q0 93 -149 93h-170v-191z" />
    <glyph glyph-name="C" unicode="C" horiz-adv-x="725" 
d="M412 107q61 0 105 20.5t92 65.5l76 -78q-111 -123 -269.5 -123t-263 102t-104.5 258t106.5 260t269 104t271.5 -120l-75 -82q-50 48 -94.5 67t-104.5 19q-106 0 -178 -68.5t-72 -175t71.5 -178t169.5 -71.5z" />
    <glyph glyph-name="D" unicode="D" horiz-adv-x="790" 
d="M639 607.5q101 -91.5 101 -254.5t-98 -258t-300 -95h-232v699h240q188 0 289 -91.5zM621 350q0 240 -275 240h-118v-479h131q127 0 194.5 60.5t67.5 178.5z" />
    <glyph glyph-name="E" unicode="E" horiz-adv-x="683" 
d="M601 699v-111h-373v-185h335v-105h-335v-187h385v-111h-503v699h491z" />
    <glyph glyph-name="F" unicode="F" horiz-adv-x="621" 
d="M576 699l-1 -110h-347v-192h330v-109h-330v-288h-118v699h466z" />
    <glyph glyph-name="G" unicode="G" horiz-adv-x="756" 
d="M577 340h118v-239q-99 -109 -283 -109q-155 0 -259.5 102t-104.5 258t106.5 260t257.5 104t251 -88l-63 -90q-41 35 -82.5 48.5t-96.5 13.5q-106 0 -178 -68.5t-72 -180t70 -179t169.5 -67.5t166.5 43v192z" />
    <glyph glyph-name="H" unicode="H" horiz-adv-x="803" 
d="M110 0v699h118v-303h347v303h118v-699h-118v286h-347v-286h-118z" />
    <glyph glyph-name="I" unicode="I" horiz-adv-x="338" 
d="M110 699h118v-699h-118v699z" />
    <glyph glyph-name="J" unicode="J" horiz-adv-x="578" 
d="M153 593v106h340v-461q0 -122 -62 -183t-159 -61q-122 0 -208 86l67 93q68 -65 133 -65q46 0 78.5 31t32.5 93v361h-222z" />
    <glyph glyph-name="K" unicode="K" horiz-adv-x="732" 
d="M110 699h118v-341l320 341h150l-281 -306l285 -393h-140l-232 306l-102 -110v-196h-118v699z" />
    <glyph glyph-name="L" unicode="L" horiz-adv-x="577" 
d="M110 0v699h118v-587h319v-112h-437z" />
    <glyph glyph-name="M" unicode="M" horiz-adv-x="1009" 
d="M471 61l-243 485v-546h-118v699h184l211 -439l211 439h183v-699h-118v546l-244 -485h-66z" />
    <glyph glyph-name="N" unicode="N" horiz-adv-x="862" 
d="M634 177v522h118v-699h-128l-396 510v-510h-118v699h118z" />
    <glyph glyph-name="O" unicode="O" horiz-adv-x="832" 
d="M416 608q-104 0 -175.5 -74t-71.5 -179.5t71.5 -179.5t175.5 -74t175.5 74t71.5 179.5t-71.5 179.5t-175.5 74zM416 -7q-156 0 -262 103.5t-106 258t106 258t262 103.5t262 -103.5t106 -258t-106 -258t-262 -103.5z" />
    <glyph glyph-name="P" unicode="P" horiz-adv-x="700" 
d="M582 638q73 -61 73 -188t-74.5 -186t-228.5 -59h-124v-205h-118v699h240q159 0 232 -61zM498.5 349.5q35.5 37.5 35.5 110t-45 102.5t-141 30h-120v-280h137q98 0 133.5 37.5z" />
    <glyph glyph-name="Q" unicode="Q" horiz-adv-x="851" 
d="M431 -6l-15 -1q-156 0 -262 103.5t-106 258t106 258t262 103.5t262 -103.5t106 -257.5q0 -117 -63 -207.5t-168 -130.5q34 -45 86 -45q38 0 74.5 20t55.5 52l67 -93q-87 -92 -199 -92q-64 0 -123 36t-83 99zM416 608q-104 0 -175.5 -74t-71.5 -179.5t71.5 -179.5
t175.5 -74t175.5 74t71.5 179.5t-71.5 179.5t-175.5 74z" />
    <glyph glyph-name="R" unicode="R" horiz-adv-x="764" 
d="M668 472q0 -173 -151 -218l183 -254h-150l-167 235h-155v-235h-118v699h260q160 0 229 -54t69 -173zM511 373q36 31 36 99.5t-37 94t-132 25.5h-150v-250h147q100 0 136 31z" />
    <glyph glyph-name="S" unicode="S" horiz-adv-x="662" 
d="M242 582.5q-31 -24.5 -31 -63.5t33 -61.5t140.5 -48.5t162 -73t54.5 -138.5t-69 -148.5t-181 -57q-164 0 -291 113l74 89q106 -92 220 -92q57 0 90.5 24.5t33.5 65t-31.5 63t-108.5 41t-117 34t-71 40.5q-62 47 -62 140t67 149.5t172 56.5q142 0 256 -79l-66 -94
q-86 64 -192 64q-52 0 -83 -24.5z" />
    <glyph glyph-name="T" unicode="T" horiz-adv-x="652" 
d="M385 591v-591h-118v591h-212v108h542v-108h-212z" />
    <glyph glyph-name="U" unicode="U" horiz-adv-x="770" 
d="M680 700v-397q0 -151 -83 -232.5t-209.5 -81.5t-212 81.5t-85.5 226.5v403h119v-387q0 -98 47.5 -155.5t129.5 -57.5t129 55.5t47 152.5v392h118z" />
    <glyph glyph-name="V" unicode="V" horiz-adv-x="770" 
d="M172 699l216 -528l213 528h129l-281 -699h-127l-282 699h132z" />
    <glyph glyph-name="W" unicode="W" horiz-adv-x="1044" 
d="M313 196l156 503h106l157 -503l175 503h127l-244 -698h-117l-147 478h-8l-147 -478h-117l-244 698h127z" />
    <glyph glyph-name="X" unicode="X" horiz-adv-x="740" 
d="M524 699h148l-222 -336l241 -363h-150l-173 263h-4l-172 -263h-147l240 359l-223 340h146l156 -236h5z" />
    <glyph glyph-name="Y" unicode="Y" horiz-adv-x="690" 
d="M345 381l191 318h129l-262 -423v-276h-118v276l-260 423h129z" />
    <glyph glyph-name="Z" unicode="Z" horiz-adv-x="697" 
d="M467 591h-394v108h558v-92l-406 -495v-3h412v-109h-577v91l407 497v3z" />
    <glyph glyph-name="bracketleft" unicode="[" horiz-adv-x="343" 
d="M303 757v-84h-138v-729h138v-84h-226v897h226z" />
    <glyph glyph-name="backslash" unicode="\" horiz-adv-x="748" 
d="M113 757h100l364 -757h-100z" />
    <glyph glyph-name="bracketright" unicode="]" horiz-adv-x="249" 
d="M-40 673v84h226v-897h-226v84h138v729h-138z" />
    <glyph glyph-name="asciicircum" unicode="^" horiz-adv-x="394" 
d="M273 742l-77 83l-77 -83h-97l122 156h102l121 -156h-94z" />
    <glyph glyph-name="underscore" unicode="_" horiz-adv-x="628" 
d="M23 -138v57h578v-57h-578z" />
    <glyph glyph-name="grave" unicode="`" 
d="M540 600h-102l-122 96l118 49z" />
    <glyph glyph-name="a" unicode="a" horiz-adv-x="601" 
d="M531 0h-102v71q-66 -79 -177 -79q-83 0 -137.5 47t-54.5 125.5t58 117.5t157 39h145v20q0 106 -118 106q-74 0 -154 -54l-50 70q97 77 220 77q94 0 153.5 -47.5t59.5 -149.5v-343zM419 198v45h-126q-121 0 -121 -76q0 -39 30 -59.5t83.5 -20.5t93.5 30t40 81z" />
    <glyph glyph-name="b" unicode="b" horiz-adv-x="684" 
d="M558 466q76 -74 76 -197t-75.5 -200t-176 -77t-180.5 88v-80h-112v742h112v-303q66 101 173 101t183 -74zM246 140.5q46 -48.5 112 -48.5t115 48t49 124.5t-48 127t-115 50.5t-113 -50.5t-46 -126.5t46 -124.5z" />
    <glyph glyph-name="c" unicode="c" horiz-adv-x="584" 
d="M554 90q-97 -98 -224 -98q-111 0 -191 75.5t-80 197.5t83.5 198.5t203.5 76.5t203 -83l-66 -81q-69 60 -139 60t-121.5 -46.5t-51.5 -120t50.5 -124.5t125.5 -51t141 68z" />
    <glyph glyph-name="d" unicode="d" horiz-adv-x="681" 
d="M122 68q-75 76 -75 200t77 198t183.5 74t171.5 -90v292h112v-742h-112v80q-62 -88 -181 -88q-101 0 -176 76zM208 139q49 -48 115 -48t112 48.5t46 124.5t-46 127t-113 51t-115 -51t-48 -127.5t49 -124.5z" />
    <glyph glyph-name="e" unicode="e" horiz-adv-x="635" 
d="M589 217h-417q4 -58 53 -93.5t112 -35.5q100 0 152 63l64 -70q-86 -89 -224 -89q-112 0 -190.5 74.5t-78.5 200t80 199.5t188.5 74t184.5 -65.5t76 -180.5v-77zM172 305h305q0 67 -42 103t-103.5 36t-110.5 -37.5t-49 -101.5z" />
    <glyph glyph-name="f" unicode="f" horiz-adv-x="435" 
d="M244 576v-44h140v-90h-140v-442h-112v442h-67v90h67v41q0 84 50.5 133.5t122 49.5t130.5 -53l-46 -79q-33 35 -69 35t-56 -22.5t-20 -60.5z" />
    <glyph glyph-name="g" unicode="g" horiz-adv-x="655" 
d="M565 532v-464q0 -141 -76.5 -211.5t-196.5 -70.5t-217 75l53 85q78 -59 157.5 -59t126 41t46.5 131v68q-25 -47 -71.5 -75t-104.5 -28q-106 0 -174 74t-68 184t68 184t173.5 74t171.5 -87v79h112zM190.5 173.5q40.5 -47.5 109 -47.5t111 46t42.5 114.5t-43 116t-111 47.5
t-108.5 -49t-40.5 -114.5t40.5 -113z" />
    <glyph glyph-name="h" unicode="h" horiz-adv-x="656" 
d="M202 288v-288h-112v741h112v-306q24 49 72.5 77t104.5 28q90 0 145.5 -55t55.5 -159v-326h-112v292q0 147 -122 147q-58 0 -101 -38.5t-43 -112.5z" />
    <glyph glyph-name="i" unicode="i" horiz-adv-x="329" 
d="M221 0h-112v532h112v-532zM95 688q0 29 21 49t50.5 20t49.5 -20t20 -49t-21 -50.5t-49.5 -21.5t-49.5 21.5t-21 50.5z" />
    <glyph glyph-name="j" unicode="j" horiz-adv-x="366" 
d="M129 688q0 29 21 49t50.5 20t49.5 -20t20 -49t-21 -50.5t-49.5 -21.5t-49.5 21.5t-21 50.5zM144 -25v557h112v-561q0 -84 -50.5 -133.5t-122 -49.5t-130.5 53l52 84q34 -33 68.5 -33t52.5 22t18 61z" />
    <glyph glyph-name="k" unicode="k" horiz-adv-x="617" 
d="M360 321l217 -321h-136l-158 233l-81 -82v-151h-112v742h112v-436l216 226h144z" />
    <glyph glyph-name="l" unicode="l" horiz-adv-x="292" 
d="M202 0h-112v742h112v-742z" />
    <glyph glyph-name="m" unicode="m" horiz-adv-x="1033" 
d="M202 288v-288h-112v532h112v-97q24 49 72.5 77t104.5 28q126 0 171 -104q79 104 197 104q90 0 145.5 -55t55.5 -159v-326h-112v292q0 147 -122 147q-57 0 -99.5 -36.5t-44.5 -106.5v-296h-112v292q0 76 -27 111.5t-85 35.5t-101 -38.5t-43 -112.5z" />
    <glyph glyph-name="n" unicode="n" horiz-adv-x="656" 
d="M202 288v-288h-112v532h112v-97q27 49 74.5 77t102.5 28q90 0 145.5 -55t55.5 -159v-326h-112v292q0 147 -122 147q-58 0 -101 -38.5t-43 -112.5z" />
    <glyph glyph-name="o" unicode="o" horiz-adv-x="663" 
d="M330 92q73 0 120.5 48.5t47.5 125.5t-47.5 125.5t-120.5 48.5t-120.5 -48.5t-47.5 -125.5t47.5 -125.5t120.5 -48.5zM330 -8q-120 0 -200 79.5t-80 194.5t80 194.5t200 79.5t200 -79.5t80 -194.5t-80 -194.5t-200 -79.5z" />
    <glyph glyph-name="p" unicode="p" horiz-adv-x="684" 
d="M558 466q76 -74 76 -197t-75.5 -200t-176 -77t-180.5 88v-274h-112v726h112v-93q66 101 173 101t183 -74zM246 140.5q46 -48.5 112 -48.5t115 48t49 124.5t-48 127t-115 50.5t-113 -50.5t-46 -126.5t46 -124.5z" />
    <glyph glyph-name="q" unicode="q" horiz-adv-x="680" 
d="M121.5 69q-75.5 77 -75.5 200t76 197t183 74t173 -101v93h112v-726h-112v274q-80 -88 -180.5 -88t-176 77zM207 140q49 -48 115 -48t112 48.5t46 124.5t-46 126.5t-113 50.5t-115 -50.5t-48 -127t49 -124.5z" />
    <glyph glyph-name="r" unicode="r" horiz-adv-x="424" 
d="M374 540l1 -113h-6q-83 0 -125 -54t-42 -145v-228h-112v532h112v-107q27 50 73.5 82t98.5 33z" />
    <glyph glyph-name="s" unicode="s" horiz-adv-x="530" 
d="M420 37.5q-55 -45.5 -141 -45.5q-58 0 -120.5 21t-110.5 59l54 87q93 -70 180 -70q38 0 60 17.5t22 44.5q0 40 -106 72q-8 3 -12 4q-166 45 -166 150q0 74 57.5 118.5t149.5 44.5t174 -54l-42 -83q-65 43 -141 43q-40 0 -65 -14.5t-25 -43.5q0 -26 26 -38q18 -9 50.5 -17
t57.5 -16t48.5 -18t50.5 -28q54 -36 54 -112t-55 -121.5z" />
    <glyph glyph-name="t" unicode="t" horiz-adv-x="425" 
d="M234 442v-262q0 -38 20 -60.5t56 -22.5t69 35l46 -79q-59 -53 -130.5 -53t-122 49.5t-50.5 133.5v259h-67v90h67v167h112v-167h140v-90h-140z" />
    <glyph glyph-name="u" unicode="u" horiz-adv-x="654" 
d="M451 244v288h112v-532h-112v97q-27 -49 -74.5 -77t-102.5 -28q-90 0 -145.5 55t-55.5 159v326h112v-292q0 -147 122 -147q58 0 101 38.5t43 112.5z" />
    <glyph glyph-name="v" unicode="v" horiz-adv-x="602" 
d="M237 0l-214 532h116l162 -402l162 402h116l-214 -532h-128z" />
    <glyph glyph-name="w" unicode="w" horiz-adv-x="876" 
d="M312 0h-128l-184 532h116l132 -402l132 402h116l132 -402l132 402h116l-184 -532h-128l-126 364z" />
    <glyph glyph-name="x" unicode="x" horiz-adv-x="618" 
d="M194 532l114 -175l118 175h133l-186 -260l194 -272h-138l-127 177l-124 -177h-131l189 271l-179 261h137z" />
    <glyph glyph-name="y" unicode="y" horiz-adv-x="587" 
d="M580 532l-258 -632q-23 -52 -66 -82t-95 -30q-73 0 -132 53l51 91q35 -33 72.5 -33t61 27t23.5 59q0 14 -215 547h120l159 -392l159 392h120z" />
    <glyph glyph-name="z" unicode="z" horiz-adv-x="532" 
d="M331 434h-271v96h416v-101l-299 -332h315v-97h-452v109z" />
    <glyph glyph-name="braceleft" unicode="{" horiz-adv-x="305" 
d="M268 668q-62 0 -62 -57v-220q0 -70 -66 -82q66 -11 66 -81v-235q0 -26 14.5 -36t55.5 -10v-93h-34q-136 0 -136 132v216q0 33 -12 46.5t-38 13.5h-24v93h24q26 0 38 14t12 48v211q0 132 136 132h34v-93q-3 1 -8 1z" />
    <glyph glyph-name="bar" unicode="|" horiz-adv-x="130" 
d="M23 -153v935h83v-935h-83z" />
    <glyph glyph-name="braceright" unicode="}" horiz-adv-x="306" 
d="M56 -146h-34v93q41 0 55.5 10t14.5 36v235q0 70 66 81q-66 12 -66 82v220q0 31 -16.5 44.5t-32.5 13.5l-3 -1l-18 -1v93h34q136 0 136 -132v-211q0 -34 12 -48t38 -14h24v-93h-24q-26 0 -38 -13.5t-12 -46.5v-216q0 -132 -136 -132z" />
    <glyph glyph-name="asciitilde" unicode="~" horiz-adv-x="634" 
d="M310 684l-30 18q-54 33 -78 33t-36.5 -15.5t-18.5 -52.5l-94 34q10 70 48 108t90 38t119 -37l30 -18q54 -33 78 -33t36.5 15.5t18.5 52.5l94 -34q-10 -70 -48 -108t-90 -38t-119 37z" />
    <glyph glyph-name="exclamdown" unicode="&#xa1;" horiz-adv-x="349" 
d="M243 -8h-139v126l30 361h80l29 -361v-126zM122 586q-22 22 -22 52.5t22 52.5t52.5 22t52.5 -22t22 -52.5t-22 -52.5t-52.5 -22t-52.5 22z" />
    <glyph glyph-name="cent" unicode="&#xa2;" horiz-adv-x="584" 
d="M299 -122v116q-101 11 -170.5 84.5t-69.5 185.5t69 185.5t171 87.5v119h64v-117q113 -9 186 -82l-66 -81q-61 52 -120 58v-339q66 7 125 67l66 -72q-83 -85 -191 -96v-116h-64zM207.5 373.5q-36.5 -43.5 -36.5 -105t35.5 -107.5t92.5 -61v330q-55 -13 -91.5 -56.5z" />
    <glyph glyph-name="sterling" unicode="&#xa3;" horiz-adv-x="540" 
d="M211 516v-131h167v-98h-167v-182h298v-105h-498v105h82v182h-86v98h86v125q0 121 61 176.5t160 55.5q131 0 197 -112l-83 -66q-41 68 -106 68q-48 0 -79.5 -27.5t-31.5 -88.5z" />
    <glyph glyph-name="currency" unicode="&#xa4;" horiz-adv-x="720" 
d="M36 62l90 90q-53 72 -53 164t51 162l-88 88l71 70l90 -89q68 44 155 44t158 -45l90 90l71 -70l-89 -89q51 -72 51 -161.5t-54 -162.5l92 -91l-70 -70l-95 93q-67 -42 -153 -42t-153 42l-94 -93zM353 149q70 0 116 47t46 121t-46 120.5t-116 46.5t-116 -46.5t-46 -120.5
t46 -121t116 -47z" />
    <glyph glyph-name="yen" unicode="&#xa5;" horiz-adv-x="502" 
d="M-2 212h190v54l-4 6h-186v88h134l-201 339h129l189 -321h7l196 321h127l-208 -339h131v-88h-185l-3 -6v-54h188v-88h-189v-124h-125v124h-190v88z" />
    <glyph glyph-name="brokenbar" unicode="&#xa6;" horiz-adv-x="248" 
d="M80 430v327h94v-327h-94zM80 -24v327h94v-327h-94z" />
    <glyph glyph-name="section" unicode="&#xa7;" horiz-adv-x="533" 
d="M103 317q0 -47 58.5 -78t149.5 -31q52 0 86.5 22t34.5 54.5t-23 53.5t-59 32q-72 21 -127.5 21t-87.5 -19.5t-32 -54.5zM186.5 627q-26.5 -21 -26.5 -54.5t29 -53.5t131.5 -44.5t153.5 -63.5t51 -112q0 -50 -32 -90.5t-100 -56.5q46 -17 69 -52t23 -72
q0 -69 -58.5 -117.5t-156.5 -48.5q-143 0 -253 98l64 76q98 -81 192 -81q107 0 107 68q0 32 -33.5 53t-131 49.5t-152 69t-54.5 118.5q0 48 33 88t92 51q-81 32 -81 112t58.5 129t149.5 49q65 0 114 -16t100 -53l-57 -80q-74 55 -159 55q-46 0 -72.5 -21z" />
    <glyph glyph-name="dieresis" unicode="&#xa8;" horiz-adv-x="610" 
d="M166 662q0 26 18 43.5t43.5 17.5t43.5 -17.5t18 -43.5t-18.5 -44t-44 -18t-43 18t-17.5 44zM369 619q-18 18 -18 43.5t18 43.5t43.5 18t43.5 -17.5t18 -43t-18 -44t-43.5 -18.5t-43.5 18z" />
    <glyph glyph-name="copyright" unicode="&#xa9;" 
d="M780 351q0 -149 -106 -256t-257 -107t-256 106t-105 255t106 256t256 107t256 -106t106 -255zM736 350q0 131 -91.5 224t-224.5 93t-225 -93.5t-92 -225t91 -224.5t224 -93t225.5 94t92.5 225zM585 224q-68 -71 -155 -71t-145 54.5t-58 143.5t60 144t149 55t146 -60
l-48 -59q-52 44 -102 44t-87.5 -33.5t-37.5 -87t37.5 -90.5t92.5 -37t100 49z" />
    <glyph glyph-name="ordfeminine" unicode="&#xaa;" horiz-adv-x="265" 
d="M231 466h-47v33q-31 -37 -75.5 -37t-70 22t-25.5 58q0 73 99 73h67v9q0 49 -54 49q-33 0 -71 -25l-24 33q46 35 96 35q105 0 105 -91v-159zM179 558v21h-58q-56 0 -56 -36q0 -18 14 -27.5t38.5 -9.5t43 14.5t18.5 37.5z" />
    <glyph glyph-name="guillemotleft" unicode="&#xab;" horiz-adv-x="555" 
d="M273 416l-115 -176l115 -176h-108l-119 176l119 176h108zM471 416l-115 -176l115 -176h-108l-119 176l119 176h108z" />
    <glyph glyph-name="logicalnot" unicode="&#xac;" 
d="M93 445h669v-357h-82v269h-587v88z" />
    <glyph glyph-name="registered" unicode="&#xae;" 
d="M778 351q0 -149 -106 -256t-257 -107t-256 106t-105 255t106 256t256 107t256 -106t106 -255zM734 350q0 131 -91.5 224t-224.5 93t-225 -93.5t-92 -225t91 -224.5t224 -93t225.5 94t92.5 225zM591 420q0 -97 -85 -122l104 -141h-84l-94 131h-86v-131h-68v391h147
q89 0 127.5 -30.5t38.5 -97.5zM503.5 365q20.5 17 20.5 55.5t-21 53.5t-74 15h-83v-141h81q56 0 76.5 17z" />
    <glyph glyph-name="macron" unicode="&#xaf;" horiz-adv-x="424" 
d="M366 687v-87h-307v87h307z" />
    <glyph glyph-name="degree" unicode="&#xb0;" horiz-adv-x="465" 
d="M234 715q64 0 109 -45t45 -109t-45 -108.5t-109 -44.5t-109 44.5t-45 108.5t45 109t109 45zM161.5 489q29.5 -30 72 -30t72 30t29.5 72t-29.5 71.5t-72 29.5t-72 -29.5t-29.5 -71.5t29.5 -72z" />
    <glyph glyph-name="plusminus" unicode="&#xb1;" horiz-adv-x="472" 
d="M180 671h112v-146h179v-98h-179v-141h-112v141h-179v98h179v146zM1 230h470v-94h-470v94z" />
    <glyph glyph-name="twosuperior" unicode="&#xb2;" horiz-adv-x="341" 
d="M215.5 547q17.5 24 17.5 48.5t-18.5 41.5t-47.5 17q-51 0 -84 -51l-55 32q53 81 140 81q54 0 92.5 -32.5t38.5 -88.5q0 -31 -16.5 -59.5t-60.5 -74.5l-95 -97h185v-66h-279v58l123 125q42 42 59.5 66z" />
    <glyph glyph-name="threesuperior" unicode="&#xb3;" horiz-adv-x="359" 
d="M194 637h-149v62h242v-55l-100 -112q57 -1 88.5 -35.5t31.5 -89.5t-42.5 -91t-110.5 -36t-132 43l30 56q49 -35 106 -35q36 0 59.5 16.5t23.5 48.5t-26 51t-60.5 19t-56.5 -7v53z" />
    <glyph glyph-name="acute" unicode="&#xb4;" 
d="M440 628h-102l106 145l118 -49z" />
    <glyph glyph-name="mu" unicode="&#xb5;" horiz-adv-x="602" 
d="M34 -194v726h112v-292q0 -147 122 -147q58 0 101 38.5t43 112.5v288h112v-532h-112v97q-27 -49 -74.5 -77t-99.5 -28t-92 17v-203h-112z" />
    <glyph glyph-name="mu" unicode="&#x3bc;" horiz-adv-x="602" 
d="M34 -194v726h112v-292q0 -147 122 -147q58 0 101 38.5t43 112.5v288h112v-532h-112v97q-27 -49 -74.5 -77t-99.5 -28t-92 17v-203h-112z" />
    <glyph glyph-name="paragraph" unicode="&#xb6;" horiz-adv-x="764" 
d="M67 556q0 85 59 143t179 58h299v-869h-93v774h-112v-774h-90v479q-24 -3 -46 -3q-55 0 -96 19t-61 49q-39 58 -39 124z" />
    <glyph glyph-name="periodcentered" unicode="&#xb7;" horiz-adv-x="688" 
d="M259 319q0 31 21.5 52.5t52.5 21.5t53 -21.5t22 -52.5t-22 -53t-53 -22t-52.5 22t-21.5 53z" />
    <glyph glyph-name="cedilla" unicode="&#xb8;" horiz-adv-x="281" 
d="M185 0l-20 -38q70 -9 70 -79q0 -38 -31 -66.5t-78.5 -28.5t-83.5 22l26 57q19 -10 38.5 -10t30.5 11.5t11 27.5t-11.5 28.5t-29 12.5t-29.5 -5l36 68h71z" />
    <glyph glyph-name="onesuperior" unicode="&#xb9;" horiz-adv-x="278" 
d="M43 699h148v-409h-66v348h-82v61z" />
    <glyph glyph-name="ordmasculine" unicode="&#xba;" horiz-adv-x="271" 
d="M140 504q35 0 57.5 23t22.5 59.5t-22.5 59.5t-57.5 23t-57.5 -23t-22.5 -59.5t22.5 -59.5t57.5 -23zM140 456q-57 0 -95 37.5t-38 92.5t38 92.5t95 37.5t95 -37.5t38 -92.5t-38 -92.5t-95 -37.5z" />
    <glyph glyph-name="guillemotright" unicode="&#xbb;" horiz-adv-x="532" 
d="M359 240l-115 176h108l119 -176l-119 -176h-108zM161 240l-115 176h108l119 -176l-119 -176h-108z" />
    <glyph glyph-name="onequarter" unicode="&#xbc;" horiz-adv-x="890" 
d="M600 757h72l-373 -765h-72zM620 166h98v75h65v-75h50v-63h-50v-103h-65v103h-175v61l149 245h76zM81 699h148v-409h-66v348h-82v61z" />
    <glyph glyph-name="onehalf" unicode="&#xbd;" horiz-adv-x="955" 
d="M630 757h72l-373 -765h-72zM794.5 249q17.5 24 17.5 48.5t-18.5 41.5t-47.5 17q-49 0 -84 -51l-54 32q53 81 139 81q54 0 93 -32.5t39 -88.5q0 -31 -16.5 -60t-60.5 -74l-96 -97h185v-66h-279v58l124 125q41 42 58.5 66zM79 699h148v-409h-66v348h-82v61z" />
    <glyph glyph-name="threequarters" unicode="&#xbe;" horiz-adv-x="884" 
d="M629 757h72l-373 -765h-72zM649 166h98v75h65v-75h50v-63h-50v-103h-65v103h-175v61l149 245h76zM219 637h-149v62h242v-55l-100 -112q57 -1 88.5 -35.5t31.5 -89.5t-42.5 -91t-110.5 -36t-132 43l30 56q49 -35 106 -35q36 0 59.5 16.5t23.5 48.5t-26 51t-60.5 19
t-56.5 -7v53z" />
    <glyph glyph-name="questiondown" unicode="&#xbf;" horiz-adv-x="519" 
d="M203 490h113v-61q0 -40 -9.5 -59.5t-41.5 -51.5l-73 -73q-23 -25 -23 -62t24 -61.5t62 -24.5t63.5 23.5t29.5 62.5h121q-10 -89 -69.5 -139.5t-148.5 -50.5t-145 48.5t-56 135.5q0 60 32 100q20 24 30 34t26.5 25.5t28 27t18.5 20.5q18 21 18 61v45zM312 690.5
q23 -21.5 23 -52t-22.5 -52.5t-54 -22t-54.5 21.5t-23 52t22.5 52.5t54 22t54.5 -21.5z" />
    <glyph glyph-name="Agrave" unicode="&#xc0;" horiz-adv-x="793" 
d="M442 699l308 -699h-130l-71 159h-335l-68 -159h-126l308 699h114zM502 268l-120 269l-119 -269h239zM440 757h-102l-122 96l118 49z" />
    <glyph glyph-name="Aacute" unicode="&#xc1;" horiz-adv-x="780" 
d="M442 699l308 -699h-130l-71 159h-335l-68 -159h-126l308 699h114zM502 268l-120 269l-119 -269h239zM445 758h-102l106 145l118 -49z" />
    <glyph glyph-name="Acircumflex" unicode="&#xc2;" horiz-adv-x="807" 
d="M442 699l308 -699h-130l-71 159h-335l-68 -159h-126l308 699h114zM502 268l-120 269l-119 -269h239zM469 758l-87 78l-87 -78h-87l122 156h102l121 -156h-84z" />
    <glyph glyph-name="Atilde" unicode="&#xc3;" horiz-adv-x="793" 
d="M442 699l308 -699h-130l-71 159h-335l-68 -159h-126l308 699h114zM502 268l-120 269l-119 -269h239zM567 890q0 -65 -29 -100.5t-76 -35.5q-27 0 -48 9t-54.5 29t-49.5 20t-25 -12.5t-13 -42.5h-77q0 65 29 100.5t76 35.5q27 0 47.5 -8.5t54 -29t50 -20.5t25.5 12.5
t13 42.5h77z" />
    <glyph glyph-name="Adieresis" unicode="&#xc4;" horiz-adv-x="793" 
d="M442 699l308 -699h-130l-71 159h-335l-68 -159h-126l308 699h114zM502 268l-120 269l-119 -269h239zM231 814q0 26 17.5 43.5t43.5 17.5t44 -17.5t18 -43.5t-18 -44t-44 -18t-43.5 18t-17.5 44zM434 771q-18 18 -18 43.5t18 43.5t43.5 18t43.5 -17.5t18 -43t-18.5 -44
t-43.5 -18.5t-43 18z" />
    <glyph glyph-name="Aring" unicode="&#xc5;" horiz-adv-x="793" 
d="M496 853q0 -42 -33 -73t-76 -31t-75.5 31t-32.5 73t32.5 73.5t75.5 31.5t76 -31.5t33 -73.5zM427 813.5q15 15.5 15 40t-15 40t-39.5 15.5t-40 -15.5t-15.5 -40t15.5 -40t40 -15.5t39.5 15.5zM442 699l308 -699h-130l-71 159h-335l-68 -159h-126l308 699h114zM502 268
l-120 269l-119 -269h239z" />
    <glyph glyph-name="AE" unicode="&#xc6;" horiz-adv-x="1061" 
d="M997 699v-110h-373v-192h335v-103h-335v-184h385v-110h-514v159h-253l-85 -159h-145l366 699h619zM495 272v317h-29l-167 -317h196z" />
    <glyph glyph-name="Ccedilla" unicode="&#xc7;" horiz-adv-x="725" 
d="M412 107q61 0 105 20.5t92 65.5l76 -78q-105 -115 -250 -122l-16 -31q70 -9 70 -79q0 -38 -31 -66.5t-78.5 -28.5t-83.5 22l26 57q19 -10 38.5 -10t30.5 11.5t11 27.5t-11.5 28.5t-29 12.5t-29.5 -5l33 63q-138 15 -227.5 114.5t-89.5 249t106.5 253.5t269 104
t271.5 -120l-75 -82q-50 48 -94.5 67t-104.5 19q-106 0 -178 -68.5t-72 -175t71.5 -178t169.5 -71.5z" />
    <glyph glyph-name="Egrave" unicode="&#xc8;" horiz-adv-x="651" 
d="M591 699v-110h-373v-192h335v-103h-335v-184h385v-110h-503v699h491zM424 757h-102l-122 96l118 49z" />
    <glyph glyph-name="Eacute" unicode="&#xc9;" horiz-adv-x="673" 
d="M591 699v-111h-373v-185h335v-105h-335v-187h385v-111h-503v699h491zM386 757h-102l106 145l118 -49z" />
    <glyph glyph-name="Ecircumflex" unicode="&#xca;" horiz-adv-x="673" 
d="M591 699v-110h-373v-192h335v-103h-335v-184h385v-110h-503v699h491zM433 757l-87 78l-87 -78h-87l122 156h102l121 -156h-84z" />
    <glyph glyph-name="Edieresis" unicode="&#xcb;" horiz-adv-x="673" 
d="M591 699v-111h-373v-185h335v-105h-335v-187h385v-111h-503v699h491zM200 806q0 26 18 43.5t43.5 17.5t43.5 -17.5t18 -43.5t-18.5 -44t-44 -18t-43 18t-17.5 44zM403 763q-18 18 -18 43.5t18 43.5t43.5 18t43.5 -17.5t18 -43t-18 -44t-43.5 -18.5t-43.5 18z" />
    <glyph glyph-name="Igrave" unicode="&#xcc;" horiz-adv-x="318" 
d="M100 699h118v-699h-118v699zM212 757h-102l-122 96l118 49z" />
    <glyph glyph-name="Iacute" unicode="&#xcd;" horiz-adv-x="318" 
d="M100 699h118v-699h-118v699zM209 757h-102l106 145l118 -49z" />
    <glyph glyph-name="Icircumflex" unicode="&#xce;" horiz-adv-x="318" 
d="M244 757l-87 78l-87 -78h-87l122 156h102l121 -156h-84zM100 699h118v-699h-118v699z" />
    <glyph glyph-name="Idieresis" unicode="&#xcf;" horiz-adv-x="310" 
d="M102 699h118v-699h-118v699zM10 804q0 26 18 43.5t43.5 17.5t43.5 -17.5t18 -43.5t-18.5 -44t-44 -18t-43 18t-17.5 44zM213 761q-18 18 -18 43.5t18 43.5t43.5 18t43.5 -17.5t18 -43t-18 -44t-43.5 -18.5t-43.5 18z" />
    <glyph glyph-name="Eth" unicode="&#xd0;" horiz-adv-x="790" 
d="M31 294v105h79v300h240q188 0 289 -91.5t101 -254.5t-98 -258t-300 -95h-232v294h-79zM621 350q0 240 -275 240h-118v-191h250v-105h-250v-183h131q127 0 194.5 60.5t67.5 178.5z" />
    <glyph glyph-name="Ntilde" unicode="&#xd1;" horiz-adv-x="842" 
d="M624 177v522h118v-699h-128l-396 510v-510h-118v699h118zM608 890q0 -65 -29 -100.5t-76 -35.5q-27 0 -48 9t-54.5 29t-49.5 20t-25 -12.5t-13 -42.5h-77q0 65 29 100.5t76 35.5q27 0 47.5 -8.5t54 -29t50 -20.5t25.5 12.5t13 42.5h77z" />
    <glyph glyph-name="Ograve" unicode="&#xd2;" horiz-adv-x="832" 
d="M416 608q-104 0 -175.5 -74t-71.5 -179.5t71.5 -179.5t175.5 -74t175.5 74t71.5 179.5t-71.5 179.5t-175.5 74zM416 -7q-156 0 -262 103.5t-106 258t106 258t262 103.5t262 -103.5t106 -258t-106 -258t-262 -103.5zM496 757h-102l-122 96l118 49z" />
    <glyph glyph-name="Oacute" unicode="&#xd3;" horiz-adv-x="832" 
d="M416 608q-104 0 -175.5 -74t-71.5 -179.5t71.5 -179.5t175.5 -74t175.5 74t71.5 179.5t-71.5 179.5t-175.5 74zM416 -7q-156 0 -262 103.5t-106 258t106 258t262 103.5t262 -103.5t106 -258t-106 -258t-262 -103.5zM438 757h-102l106 145l118 -49z" />
    <glyph glyph-name="Ocircumflex" unicode="&#xd4;" horiz-adv-x="832" 
d="M497 757l-87 78l-87 -78h-87l122 156h102l121 -156h-84zM416 608q-104 0 -175.5 -74t-71.5 -179.5t71.5 -179.5t175.5 -74t175.5 74t71.5 179.5t-71.5 179.5t-175.5 74zM416 -7q-156 0 -262 103.5t-106 258t106 258t262 103.5t262 -103.5t106 -258t-106 -258t-262 -103.5
z" />
    <glyph glyph-name="Otilde" unicode="&#xd5;" horiz-adv-x="832" 
d="M416 608q-104 0 -175.5 -74t-71.5 -179.5t71.5 -179.5t175.5 -74t175.5 74t71.5 179.5t-71.5 179.5t-175.5 74zM416 -7q-156 0 -262 103.5t-106 258t106 258t262 103.5t262 -103.5t106 -258t-106 -258t-262 -103.5zM591 890q0 -65 -29 -100.5t-76 -35.5q-27 0 -48 9
t-55 29t-49 20q-31 0 -38 -55h-77q0 65 29 100.5t76 35.5q27 0 47.5 -8.5t54 -29t50 -20.5t25.5 12.5t13 42.5h77z" />
    <glyph glyph-name="Odieresis" unicode="&#xd6;" horiz-adv-x="832" 
d="M416 608q-104 0 -175.5 -74t-71.5 -179.5t71.5 -179.5t175.5 -74t175.5 74t71.5 179.5t-71.5 179.5t-175.5 74zM416 -7q-156 0 -262 103.5t-106 258t106 258t262 103.5t262 -103.5t106 -258t-106 -258t-262 -103.5zM261 814q0 26 17.5 43.5t43.5 17.5t44 -17.5t18 -43.5
t-18 -44t-44 -18t-43.5 18t-17.5 44zM464 771q-18 18 -18 43.5t18 43.5t43.5 18t43.5 -17.5t18 -43t-18.5 -44t-43.5 -18.5t-43 18z" />
    <glyph glyph-name="multiply" unicode="&#xd7;" horiz-adv-x="535" 
d="M269 419l211 212l63 -64l-210 -210l210 -211l-63 -64l-211 211l-211 -211l-64 64l211 211l-211 210l64 64z" />
    <glyph glyph-name="Oslash" unicode="&#xd8;" horiz-adv-x="832" 
d="M582 811h100l-70 -149q79 -47 125.5 -128t46.5 -179q0 -155 -106 -258.5t-262 -103.5q-58 0 -109 15l-58 -125h-100l75 160q-82 47 -129 129t-47 183q0 154 106 257.5t262 103.5q58 0 114 -17zM416 608q-104 0 -175.5 -74t-71.5 -180q0 -63 27.5 -117.5t75.5 -89.5
l211 452q-31 9 -67 9zM663 354q0 61 -26.5 115t-72.5 89l-210 -449q32 -8 62 -8q104 0 175.5 74t71.5 179z" />
    <glyph glyph-name="Ugrave" unicode="&#xd9;" horiz-adv-x="750" 
d="M670 700v-397q0 -151 -83 -232.5t-209.5 -81.5t-212 81.5t-85.5 226.5v403h119v-387q0 -98 47.5 -155.5t129.5 -57.5t129 55.5t47 152.5v392h118zM463 757h-102l-122 96l118 49z" />
    <glyph glyph-name="Uacute" unicode="&#xda;" horiz-adv-x="750" 
d="M670 700v-397q0 -151 -83 -232.5t-209.5 -81.5t-212 81.5t-85.5 226.5v403h119v-387q0 -98 47.5 -155.5t129.5 -57.5t129 55.5t47 152.5v392h118zM406 758h-102l106 145l118 -49z" />
    <glyph glyph-name="Ucircumflex" unicode="&#xdb;" horiz-adv-x="739" 
d="M459 757l-87 78l-87 -78h-87l122 156h102l121 -156h-84zM664 700v-397q0 -151 -83 -232.5t-209.5 -81.5t-212 81.5t-85.5 226.5v403h119v-387q0 -98 47.5 -155.5t129.5 -57.5t129 55.5t47 152.5v392h118z" />
    <glyph glyph-name="Udieresis" unicode="&#xdc;" horiz-adv-x="760" 
d="M672 699v-395q0 -153 -78 -232.5t-216.5 -79.5t-215.5 78.5t-77 227.5v401h118v-395q0 -96 47 -149t129.5 -53t128.5 51t46 146v400h118zM229.5 772.5q-20.5 20.5 -20.5 50.5t20.5 50.5t50 20.5t50 -20.5t20.5 -50t-21 -50.5t-50 -21t-49.5 20.5zM442 774
q-21 21 -21 50.5t21 50.5t50.5 21t50 -21t20.5 -50.5t-21 -50.5t-50 -21t-50 21z" />
    <glyph glyph-name="Yacute" unicode="&#xdd;" horiz-adv-x="698" 
d="M536 699h129l-262 -423v-276h-118v276l-260 423h129l191 -318zM389 742h-102l106 145l118 -49z" />
    <glyph glyph-name="Thorn" unicode="&#xde;" horiz-adv-x="606" 
d="M577 369q0 -133 -79 -192.5t-234 -59.5h-114v-117h-118v699h118v-88h112q315 0 315 -242zM416 262.5q40 38.5 40 109.5t-49 101.5t-147 30.5h-110v-280h127q99 0 139 38.5z" />
    <glyph glyph-name="germandbls" unicode="&#xdf;" horiz-adv-x="655" 
d="M317 322v93q72 11 107 45.5t35 80t-26.5 78.5t-83.5 33q-76 0 -107 -47t-31 -139v-466h-118v456q0 72 6.5 101.5t15 55.5t20.5 44.5t31 38.5t42 32q54 29 126 29t121 -20t73 -53q45 -60 45 -130q0 -103 -104 -168q74 -8 111 -60t37 -120q0 -94 -66 -150t-189 -56h-41v98
h22q75 0 115.5 24.5t40.5 84t-40 88t-107 28.5q-23 0 -35 -1z" />
    <glyph glyph-name="agrave" unicode="&#xe0;" horiz-adv-x="611" 
d="M531 0h-102v71q-66 -79 -177 -79q-83 0 -137.5 47t-54.5 125.5t58 117.5t157 39h145v20q0 106 -118 106q-74 0 -154 -54l-50 70q97 77 220 77q94 0 153.5 -47.5t59.5 -149.5v-343zM419 198v45h-126q-121 0 -121 -76q0 -39 30 -59.5t83.5 -20.5t93.5 30t40 81zM384 600
h-102l-122 96l118 49z" />
    <glyph glyph-name="aacute" unicode="&#xe1;" horiz-adv-x="611" 
d="M531 0h-102v71q-66 -79 -177 -79q-83 0 -137.5 47t-54.5 125.5t58 117.5t157 39h145v20q0 106 -118 106q-74 0 -154 -54l-50 70q97 77 220 77q94 0 153.5 -47.5t59.5 -149.5v-343zM419 198v45h-126q-121 0 -121 -76q0 -39 30 -59.5t83.5 -20.5t93.5 30t40 81zM351 599
h-102l106 145l118 -49z" />
    <glyph glyph-name="acircumflex" unicode="&#xe2;" horiz-adv-x="611" 
d="M531 0h-102v71q-66 -79 -177 -79q-83 0 -137.5 47t-54.5 125.5t58 117.5t157 39h145v20q0 106 -118 106q-74 0 -154 -54l-50 70q97 77 220 77q94 0 153.5 -47.5t59.5 -149.5v-343zM419 198v45h-126q-121 0 -121 -76q0 -39 30 -59.5t83.5 -20.5t93.5 30t40 81zM379 601
l-87 78l-87 -78h-87l122 156h102l121 -156h-84z" />
    <glyph glyph-name="atilde" unicode="&#xe3;" horiz-adv-x="611" 
d="M531 0h-102v71q-66 -79 -177 -79q-83 0 -137.5 47t-54.5 125.5t58 117.5t157 39h145v20q0 106 -118 106q-74 0 -154 -54l-50 70q97 77 220 77q94 0 153.5 -47.5t59.5 -149.5v-343zM419 198v45h-126q-121 0 -121 -76q0 -39 30 -59.5t83.5 -20.5t93.5 30t40 81zM459 714
q0 -56 -25 -86.5t-65 -30.5q-24 0 -42 7.5t-54 30.5q-21 12 -34 12q-28 0 -33 -47h-66q0 55 25 85.5t65 30.5q23 0 41 -7.5t55 -30.5q22 -12 33 -12q29 0 34 48h66z" />
    <glyph glyph-name="adieresis" unicode="&#xe4;" horiz-adv-x="611" 
d="M531 0h-102v71q-66 -79 -177 -79q-83 0 -137.5 47t-54.5 125.5t58 117.5t157 39h145v20q0 106 -118 106q-74 0 -154 -54l-50 70q97 77 220 77q94 0 153.5 -47.5t59.5 -149.5v-343zM419 198v45h-126q-121 0 -121 -76q0 -39 30 -59.5t83.5 -20.5t93.5 30t40 81zM152 658
q0 26 18 43.5t43.5 17.5t43.5 -17.5t18 -43.5t-18.5 -44t-44 -18t-43 18t-17.5 44zM355 615q-18 18 -18 43.5t18 43.5t43.5 18t43.5 -17.5t18 -43t-18 -44t-43.5 -18.5t-43.5 18z" />
    <glyph glyph-name="aring" unicode="&#xe5;" horiz-adv-x="611" 
d="M531 0h-102v71q-66 -79 -177 -79q-83 0 -137.5 47t-54.5 125.5t58 117.5t157 39h145v20q0 106 -118 106q-74 0 -154 -54l-50 70q97 77 220 77q94 0 153.5 -47.5t59.5 -149.5v-343zM419 198v45h-126q-121 0 -121 -76q0 -39 30 -59.5t83.5 -20.5t93.5 30t40 81zM372 754.5
q30 -28.5 30 -67t-30 -66t-69 -27.5t-68 27.5t-29 66t29.5 67t68 28.5t68.5 -28.5zM353 688q0 22 -13.5 36t-35.5 14t-36 -14t-14 -36t14 -36t35.5 -14t35.5 14t14 36z" />
    <glyph glyph-name="ae" unicode="&#xe6;" horiz-adv-x="1028" 
d="M962 230h-395v-23q9 -55 52.5 -87t100.5 -32q90 0 142 63l64 -70q-86 -89 -214.5 -89t-202.5 94q-79 -94 -211 -94q-84 0 -143 47.5t-59 125.5t57.5 115t157.5 37h145v24q0 106 -118 106q-74 0 -154 -54l-50 70q97 77 219.5 77t176.5 -72q74 72 181.5 72t179 -65.5
t71.5 -180.5v-64zM455 198v32h-126q-93 0 -112 -28q-9 -14 -9 -35q0 -39 30 -59.5t83.5 -20.5t93.5 30t40 81zM716 444q-56 0 -98.5 -31.5t-50.5 -86.5v-9l283 -1q-4 63 -41 95.5t-93 32.5z" />
    <glyph glyph-name="ccedilla" unicode="&#xe7;" horiz-adv-x="584" 
d="M554 90q-86 -87 -200 -97l-16 -31q70 -9 70 -79q0 -38 -31 -66.5t-78.5 -28.5t-83.5 22l26 57q19 -10 38.5 -10t30.5 11.5t11 27.5t-11.5 28.5t-28.5 12.5t-30 -5l33 64q-96 15 -160.5 87.5t-64.5 188t83.5 192t203.5 76.5t203 -83l-66 -81q-69 60 -139 60t-121.5 -46.5
t-51.5 -120t50.5 -124.5t125.5 -51t141 68z" />
    <glyph glyph-name="egrave" unicode="&#xe8;" horiz-adv-x="614" 
d="M579 217h-417q4 -58 53 -93.5t112 -35.5q100 0 152 63l64 -70q-86 -89 -224 -89q-112 0 -190.5 74.5t-78.5 200t80 199.5t188.5 74t184.5 -65.5t76 -180.5v-77zM162 305h305q0 67 -42 103t-103.5 36t-110.5 -37.5t-49 -101.5zM402 600h-102l-122 96l118 49z" />
    <glyph glyph-name="eacute" unicode="&#xe9;" horiz-adv-x="614" 
d="M579 217h-417q4 -58 53 -93.5t112 -35.5q100 0 152 63l64 -70q-86 -89 -224 -89q-112 0 -190.5 74.5t-78.5 200t80 199.5t188.5 74t184.5 -65.5t76 -180.5v-77zM162 305h305q0 67 -42 103t-103.5 36t-110.5 -37.5t-49 -101.5zM366 602h-102l106 145l118 -49z" />
    <glyph glyph-name="ecircumflex" unicode="&#xea;" horiz-adv-x="614" 
d="M407 601l-87 78l-87 -78h-87l122 156h102l121 -156h-84zM579 217h-417q4 -58 53 -93.5t112 -35.5q100 0 152 63l64 -70q-86 -89 -224 -89q-112 0 -190.5 74.5t-78.5 200t80 199.5t188.5 74t184.5 -65.5t76 -180.5v-77zM162 305h305q0 67 -42 103t-103.5 36t-110.5 -37.5
t-49 -101.5z" />
    <glyph glyph-name="edieresis" unicode="&#xeb;" horiz-adv-x="614" 
d="M579 217h-417q4 -58 53 -93.5t112 -35.5q100 0 152 63l64 -70q-86 -89 -224 -89q-112 0 -190.5 74.5t-78.5 200t80 199.5t188.5 74t184.5 -65.5t76 -180.5v-77zM162 305h305q0 67 -42 103t-103.5 36t-110.5 -37.5t-49 -101.5zM175.5 615q-17.5 18 -17.5 43.5t18 43.5
t43.5 18t43.5 -17.5t18 -43t-18.5 -44t-44 -18.5t-43 18zM361 616q-18 18 -18 43.5t18 43.5t43.5 18t43.5 -17.5t18 -43.5t-18 -44t-43.5 -18t-43.5 18z" />
    <glyph glyph-name="igrave" unicode="&#xec;" horiz-adv-x="292" 
d="M90 532h112v-532h-112v532zM200 600h-102l-122 96l118 49z" />
    <glyph glyph-name="iacute" unicode="&#xed;" horiz-adv-x="292" 
d="M90 532h112v-532h-112v532zM190 600h-94l106 140l110 -49z" />
    <glyph glyph-name="icircumflex" unicode="&#xee;" horiz-adv-x="292" 
d="M230 601l-87 78l-87 -78h-87l122 156h102l121 -156h-84zM91 532h112v-532h-112v532z" />
    <glyph glyph-name="idieresis" unicode="&#xef;" horiz-adv-x="292" 
d="M90 532h112v-532h-112v532zM9.5 611q-17.5 18 -17.5 43.5t18 43.5t43.5 18t43.5 -17.5t18 -43t-18.5 -44t-44 -18.5t-43 18zM195 612q-18 18 -18 43.5t18 43.5t43.5 18t43.5 -17.5t18 -43.5t-18 -44t-43.5 -18t-43.5 18z" />
    <glyph glyph-name="eth" unicode="&#xf0;" horiz-adv-x="626" 
d="M415 437q-38 63 -123 148l-93 -59l-57 54l94 60q-2 3 -73 62l95 55q36 -28 73 -63l85 54l59 -54l-88 -57q176 -191 176 -370q0 -123 -65 -199t-177 -76t-183.5 67t-71.5 172.5t70 173t169 67.5q71 0 108 -37zM213.5 131.5q38.5 -41.5 101 -41.5t101 41.5t38.5 100
t-38.5 100.5t-101 42t-101 -42t-38.5 -100.5t38.5 -100z" />
    <glyph glyph-name="ntilde" unicode="&#xf1;" horiz-adv-x="629" 
d="M494 714q0 -56 -25 -86.5t-65 -30.5q-24 0 -42 7.5t-54 30.5q-21 12 -34 12q-28 0 -33 -47h-66q0 55 25 85.5t65 30.5q23 0 41 -7.5t55 -30.5q22 -12 33 -12q29 0 34 48h66zM192 288v-288h-112v532h112v-97q27 49 74.5 77t102.5 28q90 0 145.5 -55t55.5 -159v-326h-112
v292q0 147 -122 147q-58 0 -101 -38.5t-43 -112.5z" />
    <glyph glyph-name="ograve" unicode="&#xf2;" horiz-adv-x="663" 
d="M330 92q73 0 120.5 48.5t47.5 125.5t-47.5 125.5t-120.5 48.5t-120.5 -48.5t-47.5 -125.5t47.5 -125.5t120.5 -48.5zM330 -8q-120 0 -200 79.5t-80 194.5t80 194.5t200 79.5t200 -79.5t80 -194.5t-80 -194.5t-200 -79.5zM395 600h-102l-122 96l118 49z" />
    <glyph glyph-name="oacute" unicode="&#xf3;" horiz-adv-x="663" 
d="M330 92q73 0 120.5 48.5t47.5 125.5t-47.5 125.5t-120.5 48.5t-120.5 -48.5t-47.5 -125.5t47.5 -125.5t120.5 -48.5zM330 -8q-120 0 -200 79.5t-80 194.5t80 194.5t200 79.5t200 -79.5t80 -194.5t-80 -194.5t-200 -79.5zM377 600h-102l106 145l118 -49z" />
    <glyph glyph-name="ocircumflex" unicode="&#xf4;" horiz-adv-x="663" 
d="M416 601l-87 78l-87 -78h-87l122 156h102l121 -156h-84zM330 92q73 0 120.5 48.5t47.5 125.5t-47.5 125.5t-120.5 48.5t-120.5 -48.5t-47.5 -125.5t47.5 -125.5t120.5 -48.5zM330 -8q-120 0 -200 79.5t-80 194.5t80 194.5t200 79.5t200 -79.5t80 -194.5t-80 -194.5
t-200 -79.5z" />
    <glyph glyph-name="otilde" unicode="&#xf5;" horiz-adv-x="663" 
d="M469 714q0 -56 -25 -86.5t-65 -30.5q-24 0 -42 7.5t-54 30.5q-21 12 -34 12q-28 0 -33 -47h-66q0 55 25 85.5t65 30.5q23 0 41 -7.5t55 -30.5q22 -12 33 -12q29 0 34 48h66zM330 92q73 0 120.5 48.5t47.5 125.5t-47.5 125.5t-120.5 48.5t-120.5 -48.5t-47.5 -125.5
t47.5 -125.5t120.5 -48.5zM330 -8q-120 0 -200 79.5t-80 194.5t80 194.5t200 79.5t200 -79.5t80 -194.5t-80 -194.5t-200 -79.5z" />
    <glyph glyph-name="odieresis" unicode="&#xf6;" horiz-adv-x="663" 
d="M330 92q73 0 120.5 48.5t47.5 125.5t-47.5 125.5t-120.5 48.5t-120.5 -48.5t-47.5 -125.5t47.5 -125.5t120.5 -48.5zM330 -8q-120 0 -200 79.5t-80 194.5t80 194.5t200 79.5t200 -79.5t80 -194.5t-80 -194.5t-200 -79.5zM185 656q0 26 17.5 43.5t43.5 17.5t44 -17.5
t18 -43.5t-18 -44t-44 -18t-43.5 18t-17.5 44zM388 613q-18 18 -18 43.5t18 43.5t43.5 18t43.5 -17.5t18 -43t-18.5 -44t-43.5 -18.5t-43 18z" />
    <glyph glyph-name="divide" unicode="&#xf7;" horiz-adv-x="625" 
d="M237 173q0 31 21.5 52.5t52.5 21.5t53 -21.5t22 -52.5t-22 -53t-53 -22t-52.5 22t-21.5 53zM237 528q0 31 21.5 52.5t52.5 21.5t53 -21.5t22 -52.5t-22 -53t-53 -22t-52.5 22t-21.5 53zM76 395h472v-88h-472v88z" />
    <glyph glyph-name="oslash" unicode="&#xf8;" horiz-adv-x="663" 
d="M330 -8q-34 0 -68 8l-49 -105h-100l65 138q-60 37 -94 98.5t-34 134.5q0 115 80 194.5t200 79.5q41 0 80 -11l43 93h100l-61 -130q55 -38 86.5 -97t31.5 -129q0 -115 -80 -194.5t-200 -79.5zM209.5 391.5q-47.5 -48.5 -47.5 -131t60 -132.5l144 308q-15 4 -36 4
q-73 0 -120.5 -48.5zM330 92q73 0 120.5 48.5t47.5 127t-51 127.5l-141 -302q8 -1 24 -1z" />
    <glyph glyph-name="ugrave" unicode="&#xf9;" horiz-adv-x="654" 
d="M450 244v285h113v-529h-111v76q-57 -84 -166 -84q-81 0 -143.5 56.5t-62.5 157.5v323h110v-297q0 -65 36.5 -101t92.5 -36q131 0 131 149zM394 600h-102l-122 96l118 49z" />
    <glyph glyph-name="uacute" unicode="&#xfa;" horiz-adv-x="654" 
d="M451 244v288h112v-532h-112v97q-27 -49 -74.5 -77t-102.5 -28q-90 0 -145.5 55t-55.5 159v326h112v-292q0 -147 122 -147q58 0 101 38.5t43 112.5zM350 602h-102l106 145l118 -49z" />
    <glyph glyph-name="ucircumflex" unicode="&#xfb;" horiz-adv-x="654" 
d="M408 601l-87 78l-87 -78h-87l122 156h102l121 -156h-84zM451 244v288h112v-532h-112v97q-27 -49 -74.5 -77t-102.5 -28q-90 0 -145.5 55t-55.5 159v326h112v-292q0 -147 122 -147q58 0 101 38.5t43 112.5z" />
    <glyph glyph-name="udieresis" unicode="&#xfc;" horiz-adv-x="654" 
d="M451 244v285h113v-529h-111v76q-57 -84 -167 -84q-81 0 -143.5 56.5t-62.5 158.5v322h111v-298q0 -64 35.5 -100t91.5 -36q133 0 133 149zM167 656q0 26 17.5 43.5t43.5 17.5t44 -17.5t18 -43.5t-18 -44t-44 -18t-43.5 18t-17.5 44zM370 613q-18 18 -18 43.5t18 43.5
t43.5 18t43.5 -17.5t18 -43t-18.5 -44t-43.5 -18.5t-43 18z" />
    <glyph glyph-name="yacute" unicode="&#xfd;" horiz-adv-x="592" 
d="M606 532l-258 -632q-23 -52 -66 -82t-95 -30q-73 0 -132 53l51 91q35 -33 72.5 -33t61 27t23.5 59q0 14 -215 547h120l159 -392l159 392h120zM338 628h-102l106 145l118 -49z" />
    <glyph glyph-name="thorn" unicode="&#xfe;" horiz-adv-x="686" 
d="M558 462q72 -78 72 -197.5t-71.5 -196t-190.5 -76.5q-82 0 -143 52q-14 12 -21 20l-6 9v-267h-112v936h112v-283q3 3 7.5 8.5t21.5 19.5t35 25q51 28 108 28q116 0 188 -78zM463.5 143.5q46.5 52.5 46.5 123t-46 123t-114 52.5t-111 -52t-43 -124t43 -123.5t110.5 -51.5
t114 52.5z" />
    <glyph glyph-name="ydieresis" unicode="&#xff;" horiz-adv-x="592" 
d="M606 532l-258 -632q-23 -52 -66 -82t-95 -30q-73 0 -132 53l51 91q35 -33 72.5 -33t61 27t23.5 59q0 14 -215 547h120l159 -392l159 392h120zM181.5 611q-17.5 18 -17.5 43.5t18 43.5t43.5 18t43.5 -17.5t18 -43t-18.5 -44t-44 -18.5t-43 18zM367 612q-18 18 -18 43.5
t18 43.5t43.5 18t43.5 -17.5t18 -43.5t-18 -44t-43.5 -18t-43.5 18z" />
    <glyph glyph-name="hbar" unicode="&#x127;" horiz-adv-x="656" 
d="M351 661v-87h-149v-139q24 49 72.5 77t104.5 28q90 0 145.5 -55t55.5 -159v-326h-112v292q0 147 -122 147q-58 0 -101 -38.5t-43 -112.5v-288h-112v574h-46v87h46v80h112v-80h149z" />
    <glyph glyph-name="Itilde" unicode="&#x128;" horiz-adv-x="338" 
d="M110 699h118v-699h-118v699zM354 890q0 -65 -29 -100.5t-76 -35.5q-27 0 -48 9t-55 29t-50 20q-30 0 -37 -55h-77q0 65 29 100.5t76 35.5q27 0 47.5 -8.5t54 -29t50 -20.5t25.5 12.5t13 42.5h77z" />
    <glyph glyph-name="itilde" unicode="&#x129;" horiz-adv-x="292" 
d="M304 714q0 -56 -25 -86.5t-65 -30.5q-24 0 -42 7.5t-54 30.5q-21 12 -34 12q-28 0 -33 -47h-66q0 55 25 85.5t65 30.5q23 0 41 -7.5t55 -30.5q22 -12 33 -12q29 0 34 48h66zM90 532h112v-532h-112v532z" />
    <glyph glyph-name="dotlessi" unicode="&#x131;" horiz-adv-x="292" 
d="M90 532h112v-532h-112v532z" />
    <glyph glyph-name="ij" unicode="&#x133;" horiz-adv-x="695" 
d="M221 0h-112v532h112v-532zM95 688q0 29 21 49t50.5 20t49.5 -20t20 -49t-21 -50.5t-49.5 -21.5t-49.5 21.5t-21 50.5zM458 688q0 29 21 49t50.5 20t49.5 -20t20 -49t-21 -50.5t-49.5 -21.5t-49.5 21.5t-21 50.5zM473 -25v557h112v-561q0 -84 -50.5 -133.5t-122 -49.5
t-130.5 53l52 84q34 -33 68.5 -33t52.5 22t18 61z" />
    <glyph glyph-name="Jcircumflex" unicode="&#x134;" horiz-adv-x="578" 
d="M153 593v106h340v-461q0 -122 -62 -183t-159 -61q-122 0 -208 86l67 93q68 -65 133 -65q46 0 78.5 31t32.5 93v361h-222zM401 811l-77 73l-77 -73h-107l122 156h122l121 -156h-104z" />
    <glyph glyph-name="jcircumflex" unicode="&#x135;" horiz-adv-x="366" 
d="M129 688q0 29 21 49t50.5 20t49.5 -20t20 -49t-21 -50.5t-49.5 -21.5t-49.5 21.5t-21 50.5zM144 -25v557h112v-561q0 -84 -50.5 -133.5t-122 -49.5t-130.5 53l52 84q34 -33 68.5 -33t52.5 22t18 61zM282 812l-77 73l-77 -73h-107l122 156h122l121 -156h-104z" />
    <glyph glyph-name="kcedilla" unicode="&#x137;" horiz-adv-x="617" 
d="M360 321l217 -321h-136l-158 233l-81 -82v-151h-112v742h112v-436l216 226h144zM351 0l-20 -38q70 -9 70 -79q0 -38 -31 -66.5t-78.5 -28.5t-83.5 22l26 57q19 -10 38.5 -10t30.5 11.5t11 27.5t-11.5 28.5t-29 12.5t-29.5 -5l36 68h71z" />
    <glyph glyph-name="kgreenlandic" unicode="&#x138;" horiz-adv-x="617" 
d="M360 321l217 -321h-136l-158 233l-81 -82v-151h-112v532h112v-226l216 226h144z" />
    <glyph glyph-name="ldot" unicode="&#x140;" horiz-adv-x="461" 
d="M202 0h-112v742h112v-742zM264 319q0 31 21.5 52.5t52.5 21.5t53 -21.5t22 -52.5t-22 -53t-53 -22t-52.5 22t-21.5 53z" />
    <glyph glyph-name="Lslash" unicode="&#x141;" horiz-adv-x="567" 
d="M8 196v105l92 28v370h118v-333l206 64v-105l-206 -64v-149h319v-112h-437v224z" />
    <glyph glyph-name="lslash" unicode="&#x142;" horiz-adv-x="292" 
d="M8 216v105l82 23v355h112v-324l75 22v-105l-75 -22v-270h-112v239z" />
    <glyph glyph-name="Nacute" unicode="&#x143;" horiz-adv-x="862" 
d="M634 177v522h118v-699h-128l-396 510v-510h-118v699h118zM471 787h-102l106 145l118 -49z" />
    <glyph glyph-name="nacute" unicode="&#x144;" horiz-adv-x="656" 
d="M202 288v-288h-112v532h112v-97q27 49 74.5 77t102.5 28q90 0 145.5 -55t55.5 -159v-326h-112v292q0 147 -122 147q-58 0 -101 -38.5t-43 -112.5zM365 628h-102l106 145l118 -49z" />
    <glyph glyph-name="OE" unicode="&#x152;" horiz-adv-x="1149" 
d="M1067 699v-111h-373v-185h335v-105h-335v-187h385v-111h-616q-151 0 -253.5 100t-102.5 249.5t102.5 249.5t253.5 100h604zM235 350q0 -102 69.5 -174.5t169.5 -72.5h102v493h-102q-101 0 -170 -72t-69 -174z" />
    <glyph glyph-name="oe" unicode="&#x153;" horiz-adv-x="1077" 
d="M1027 217h-417q4 -58 53 -93.5t112 -35.5q100 0 152 63l64 -70q-86 -89 -224 -89q-65 0 -122 26.5t-94 76.5q-82 -103 -221 -103q-120 0 -200 79.5t-80 194.5t80 194.5t200 79.5q138 0 221 -104q38 50 95 77t119 27q110 0 186 -65.5t76 -180.5v-77zM330 92q73 0 120 48
t48 125v8q-3 74 -50 120.5t-119 46.5t-119.5 -48.5t-47.5 -125.5t47.5 -125.5t120.5 -48.5zM610 305h305q0 67 -42 103t-103.5 36t-110.5 -37.5t-49 -101.5z" />
    <glyph glyph-name="Racute" unicode="&#x154;" horiz-adv-x="764" 
d="M668 472q0 -173 -151 -218l183 -254h-150l-167 235h-155v-235h-118v699h260q160 0 229 -54t69 -173zM511 373q36 31 36 99.5t-37 94t-132 25.5h-150v-250h147q100 0 136 31zM372 787h-102l106 145l118 -49z" />
    <glyph glyph-name="Rcommaaccent" unicode="&#x156;" horiz-adv-x="764" 
d="M668 472q0 -173 -151 -218l183 -254h-150l-167 235h-155v-235h-118v699h260q160 0 229 -54t69 -173zM511 373q36 31 36 99.5t-37 94t-132 25.5h-150v-250h147q100 0 136 31zM261 -250l65 195h111l-80 -195h-96z" />
    <glyph glyph-name="rcommaaccent" unicode="&#x157;" horiz-adv-x="424" 
d="M41 -250l65 195h111l-80 -195h-96zM374 540l1 -113h-6q-83 0 -125 -54t-42 -145v-228h-112v532h112v-107q27 50 73.5 82t98.5 33z" />
    <glyph glyph-name="Rcaron" unicode="&#x158;" horiz-adv-x="764" 
d="M668 472q0 -173 -151 -218l183 -254h-150l-167 235h-155v-235h-118v699h260q160 0 229 -54t69 -173zM511 373q36 31 36 99.5t-37 94t-132 25.5h-150v-250h147q100 0 136 31zM358 830l77 83h94l-121 -156h-102l-122 156h97z" />
    <glyph glyph-name="rcaron" unicode="&#x159;" horiz-adv-x="424" 
d="M374 540l1 -113h-6q-83 0 -125 -54t-42 -145v-228h-112v532h112v-107q27 50 73.5 82t98.5 33zM223 659l77 83h94l-121 -156h-102l-122 156h97z" />
    <glyph glyph-name="Scaron" unicode="&#x160;" horiz-adv-x="642" 
d="M330 830l77 83h94l-121 -156h-102l-122 156h97zM233 586q-31 -24 -31 -63.5t33.5 -62.5t141.5 -49t162.5 -73.5t54.5 -139.5t-69 -149t-182 -57q-165 0 -293 114l75 89q106 -92 221 -92q57 0 91 24.5t34 65t-32 63.5t-140 49t-164.5 71t-56.5 137.5t67.5 149.5t173.5 57
q143 0 257 -79l-66 -95q-86 64 -193 64q-53 0 -84 -24z" />
    <glyph glyph-name="scaron" unicode="&#x161;" horiz-adv-x="530" 
d="M391 37.5q-55 -45.5 -141 -45.5q-58 0 -120.5 21t-110.5 59l54 87q93 -70 180 -70q38 0 60 17.5t22 44.5q0 40 -106 72q-8 3 -12 4q-166 45 -166 150q0 74 57.5 118.5t149.5 44.5t174 -54l-42 -83q-64 43 -141 43q-40 0 -65 -14.5t-25 -43.5q0 -26 26 -38q18 -9 50.5 -17
t57.5 -16t48.5 -18t50.5 -28q54 -36 54 -112t-55 -121.5zM277 659l77 83h94l-121 -156h-102l-122 156h97z" />
    <glyph glyph-name="Ydieresis" unicode="&#x178;" horiz-adv-x="698" 
d="M536 699h129l-262 -423v-276h-118v276l-260 423h129l191 -318zM195 804q0 26 17.5 43.5t43.5 17.5t44 -17.5t18 -43.5t-18 -44t-44 -18t-43.5 18t-17.5 44zM398 761q-18 18 -18 43.5t18 43.5t43.5 18t43.5 -17.5t18 -43t-18.5 -44t-43.5 -18.5t-43 18z" />
    <glyph glyph-name="Zcaron" unicode="&#x17d;" horiz-adv-x="693" 
d="M467 591h-394v108h558v-92l-406 -495v-3h412v-109h-577v91l407 497v3zM348 830l77 83h94l-121 -156h-102l-122 156h97z" />
    <glyph glyph-name="zcaron" unicode="&#x17e;" horiz-adv-x="536" 
d="M341 434h-271v96h416v-101l-299 -332h315v-97h-452v109zM287 659l77 83h94l-121 -156h-102l-122 156h97z" />
    <glyph glyph-name="florin" unicode="&#x192;" horiz-adv-x="615" 
d="M359 325l-51 -361q-11 -74 -59 -125t-125 -51t-136 53l50 84q38 -36 73.5 -36t57 26t26.5 60l49 350h-69l12 93h69l21 156q11 84 68.5 133.5t131.5 49.5t126 -53l-58 -79q-28 35 -64 35t-59.5 -23t-28.5 -60l-22 -159h143l-12 -93h-143z" />
    <glyph glyph-name="circumflex" unicode="&#x2c6;" horiz-adv-x="674" 
d="M418 742l-77 73l-77 -73h-107l122 156h122l121 -156h-104z" />
    <glyph glyph-name="caron" unicode="&#x2c7;" horiz-adv-x="593" 
d="M321 833l77 83h94l-121 -156h-102l-122 156h97z" />
    <glyph glyph-name="breve" unicode="&#x2d8;" 
d="M572 726q-5 -70 -51.5 -109t-119.5 -39t-119.5 39t-51.5 109h83q20 -63 88 -63t88 63h83z" />
    <glyph glyph-name="dotaccent" unicode="&#x2d9;" horiz-adv-x="329" 
d="M90 686q0 31 21.5 52.5t52.5 21.5t53 -21.5t22 -52.5t-22 -53t-53 -22t-52.5 22t-21.5 53z" />
    <glyph glyph-name="ring" unicode="&#x2da;" 
d="M403 702q0 -42 -33 -73t-76 -31t-75.5 31t-32.5 73t32.5 73.5t75.5 31.5t76 -31.5t33 -73.5zM334 662.5q15 15.5 15 40t-15 40t-39.5 15.5t-40 -15.5t-15.5 -40t15.5 -40t40 -15.5t39.5 15.5z" />
    <glyph glyph-name="ogonek" unicode="&#x2db;" horiz-adv-x="215" 
d="M71 -8h63l-25 -41q-23 -38 -23 -67.5t25 -29.5t38 24l48 -34q-34 -56 -91 -56q-36 0 -62 24t-26 64t32 86z" />
    <glyph glyph-name="tilde" unicode="&#x2dc;" 
d="M550 875q0 -65 -29 -100.5t-76 -35.5q-27 0 -48 8.5t-64 35.5q-25 14 -41 14q-30 0 -37 -55h-77q0 65 29 100.5t76 35.5q27 0 47.5 -8.5t54 -29t50 -20.5t25.5 12.5t13 42.5h77z" />
    <glyph glyph-name="hungarumlaut" unicode="&#x2dd;" horiz-adv-x="506" 
d="M154 601h-102l106 145l118 -49zM348 601h-102l106 145l118 -49z" />
    <glyph glyph-name="Delta" unicode="&#x394;" horiz-adv-x="776" 
d="M442 699l308 -699h-730l308 699h114zM196 111l378 -2l-189 426z" />
    <glyph glyph-name="Delta" unicode="&#x2206;" horiz-adv-x="776" 
d="M442 699l308 -699h-730l308 699h114zM196 111l378 -2l-189 426z" />
    <glyph glyph-name="Omega" unicode="&#x3a9;" 
d="M412 716q156 0 262 -103.5t106 -251t-117 -250.5h148v-111h-334v110q81 22 131.5 89.5t50.5 154.5q0 106 -71.5 180t-175.5 74t-175.5 -74t-71.5 -180q0 -87 50.5 -154.5t131.5 -89.5v-110h-334v111h148q-117 103 -117 250.5t106 251t262 103.5z" />
    <glyph glyph-name="Omega" unicode="&#x2126;" 
d="M412 716q156 0 262 -103.5t106 -251t-117 -250.5h148v-111h-334v110q81 22 131.5 89.5t50.5 154.5q0 106 -71.5 180t-175.5 74t-175.5 -74t-71.5 -180q0 -87 50.5 -154.5t131.5 -89.5v-110h-334v111h148q-117 103 -117 250.5t106 251t262 103.5z" />
    <glyph glyph-name="pi" unicode="&#x3c0;" horiz-adv-x="755" 
d="M124 322l-84 -35q-21 42 -21 86q0 70 44.5 114.5t128.5 44.5h516v-100h-116v-432h-112v432h-153q-4 -99 -24.5 -231.5t-46.5 -200.5h-111q27 81 47.5 209.5t22.5 222.5h-16q-38 0 -60.5 -20t-22.5 -46t8 -44z" />
    <glyph glyph-name="endash" unicode="&#x2013;" horiz-adv-x="503" 
d="M53 226v67h374v-67h-374z" />
    <glyph glyph-name="emdash" unicode="&#x2014;" 
d="M55 227v66h561v-66h-561z" />
    <glyph glyph-name="quoteleft" unicode="&#x2018;" horiz-adv-x="198" 
d="M156 699l-53 -169h-80l53 169h80z" />
    <glyph glyph-name="quoteright" unicode="&#x2019;" horiz-adv-x="192" 
d="M156 699l-53 -169h-80l53 169h80z" />
    <glyph glyph-name="quotesinglbase" unicode="&#x201a;" horiz-adv-x="213" 
d="M173 89l-53 -169h-80l53 169h80z" />
    <glyph glyph-name="quotedblleft" unicode="&#x201c;" horiz-adv-x="344" 
d="M156 699l-53 -169h-80l53 169h80zM308 699l-53 -169h-80l53 169h80z" />
    <glyph glyph-name="quotedblright" unicode="&#x201d;" horiz-adv-x="357" 
d="M156 699l-53 -169h-80l53 169h80zM308 699l-53 -169h-80l53 169h80z" />
    <glyph glyph-name="quotedblbase" unicode="&#x201e;" horiz-adv-x="361" 
d="M173 89l-53 -169h-80l53 169h80zM304 89l-53 -169h-80l53 169h80z" />
    <glyph glyph-name="dagger" unicode="&#x2020;" horiz-adv-x="512" 
d="M198 -194v586h-170v102h170v207h106v-207h176v-102h-176v-586h-106z" />
    <glyph glyph-name="daggerdbl" unicode="&#x2021;" horiz-adv-x="493" 
d="M301 392v-235h107v-82h-107v-269h-106v269h-110v82h110v235h-166v102h166v207h106v-207h170v-102h-170z" />
    <glyph glyph-name="bullet" unicode="&#x2022;" horiz-adv-x="399" 
d="M69 316q0 53 38 91t91 38t91 -38t38 -91t-38 -91t-91 -38t-91 38t-38 91z" />
    <glyph glyph-name="ellipsis" unicode="&#x2026;" horiz-adv-x="627" 
d="M30 67q0 31 21.5 52.5t52.5 21.5t53 -21.5t22 -52.5t-22 -53t-53 -22t-52.5 22t-21.5 53zM239 67q0 31 21.5 52.5t52.5 21.5t53 -21.5t22 -52.5t-22 -53t-53 -22t-52.5 22t-21.5 53zM448 67q0 31 21.5 52.5t52.5 21.5t53 -21.5t22 -52.5t-22 -53t-53 -22t-52.5 22
t-21.5 53z" />
    <glyph glyph-name="perthousand" unicode="&#x2030;" horiz-adv-x="1206" 
d="M392 554q0 -66 -43.5 -113t-108 -47t-107.5 46.5t-43 112.5t43.5 113t108 47t107.5 -46.5t43 -112.5zM756 699l-512 -699h-129l512 699h129zM298 552q0 30 -17 50.5t-41.5 20.5t-40.5 -20.5t-16 -50.5t17 -50.5t41.5 -20.5t40.5 20.5t16 50.5zM789 152q0 -66 -43.5 -113
t-108 -47t-107.5 46.5t-43 112.5t43.5 113t108 47t107.5 -46.5t43 -112.5zM697 148q0 30 -17 50.5t-41.5 20.5t-40.5 -20.5t-16 -50.5t17 -50.5t41.5 -20.5t40.5 20.5t16 50.5zM1172 152q0 -66 -43.5 -113t-108 -47t-107.5 46.5t-43 112.5t43.5 113t108 47t107.5 -46.5
t43 -112.5zM1080 148q0 30 -17 50.5t-41.5 20.5t-40.5 -20.5t-16 -50.5t17 -50.5t41.5 -20.5t40.5 20.5t16 50.5z" />
    <glyph glyph-name="guilsinglleft" unicode="&#x2039;" horiz-adv-x="366" 
d="M273 416l-115 -176l115 -176h-108l-119 176l119 176h108z" />
    <glyph glyph-name="guilsinglright" unicode="&#x203a;" horiz-adv-x="331" 
d="M161 240l-115 176h108l119 -176l-119 -176h-108z" />
    <glyph glyph-name="fraction" unicode="&#x2044;" horiz-adv-x="378" 
d="M513 699l-512 -699h-129l512 699h129z" />
    <glyph glyph-name="Euro" unicode="&#x20ac;" horiz-adv-x="700" 
d="M-39 393v86h104q33 107 117 172t191 65q159 0 252 -115l-71 -90q-44 47 -83.5 66t-97.5 19t-104.5 -30.5t-69.5 -86.5h238v-86h-259q-1 -12 -1 -36.5t3 -46.5h257v-86h-230q54 -104 163 -104q54 0 92.5 20.5t81.5 64.5l71 -86q-93 -115 -245 -115q-104 0 -184.5 59.5
t-115.5 160.5h-109v86h90q-3 24 -3 48t1 35h-88z" />
    <glyph glyph-name="trademark" unicode="&#x2122;" horiz-adv-x="978" 
d="M248 636v-346h-69v346h-124v63h317v-63h-124zM660 325l-142 284v-319h-69v409h108l123 -257l124 257h107v-409h-69v319l-143 -284h-39z" />
    <glyph glyph-name="partialdiff" unicode="&#x2202;" horiz-adv-x="643" 
d="M143 569l-62 77q90 67 193 67q117 0 196 -80q41 -41 64 -111t23 -154.5t-14 -148t-44 -116t-84 -82t-127 -29.5q-103 0 -171.5 71t-68.5 173t69 155.5t149 53.5q59 0 105 -21t68 -48q0 101 -40 172q-37 65 -137 65q-30 0 -60 -11t-44 -22zM435 246l2 26q-66 74 -159 74
q-50 0 -84.5 -32t-34.5 -87.5t34.5 -90.5t94 -35t99.5 40t48 105z" />
    <glyph glyph-name="product" unicode="&#x220f;" 
d="M719 -212h-124v887h-369v-887h-124v1000h617v-1000z" />
    <glyph glyph-name="summation" unicode="&#x2211;" horiz-adv-x="693" 
d="M651 -212h-626v89l303 417l-290 405v89h593v-113h-414l267 -380l-286 -394h453v-113z" />
    <glyph glyph-name="minus" unicode="&#x2212;" horiz-adv-x="472" 
d="M10 347h452v-98h-452v98z" />
    <glyph glyph-name="radical" unicode="&#x221a;" 
d="M94 311v99h183l139 -435l253 782h113l-299 -913h-136l-152 467h-101z" />
    <glyph glyph-name="infinity" unicode="&#x221e;" horiz-adv-x="821" 
d="M408 322q48 57 92.5 88t103.5 31q76 0 121.5 -51t45.5 -128.5t-47 -128.5t-124 -51q-62 0 -109 34q-32 24 -83 77q-51 -53 -79 -74q-51 -37 -120.5 -37t-116.5 51t-47 128.5t45.5 128.5t121.5 51q59 0 103.5 -31t92.5 -88zM350 259q-87 92 -138 92q-34 0 -55 -25
t-21 -62.5t21.5 -63t57.5 -25.5q60 0 135 84zM466 259q75 -84 135 -84q36 0 57.5 25.5t21.5 63t-21 62.5t-55 25q-51 0 -138 -92z" />
    <glyph glyph-name="integral" unicode="&#x222b;" horiz-adv-x="436" 
d="M406 855l-13 -90q-20 10 -39.5 10t-34 -6t-23.5 -20t-14.5 -27.5t-7.5 -39.5q-3 -38 -3 -104t7.5 -228.5t7.5 -236.5t-7 -118.5t-24 -83.5q-35 -81 -132 -81q-46 0 -76 17l16 93q24 -12 48.5 -12t41.5 13t25 41q11 43 11 132t-8 247t-8 230t7.5 117t25.5 83q38 77 139 77
q37 0 61 -13z" />
    <glyph glyph-name="approxequal" unicode="&#x2248;" horiz-adv-x="576" 
d="M543 602q0 -90 -40.5 -139t-104.5 -49q-38 0 -66.5 12t-88.5 49q-33 19 -55 19t-35 -17t-18 -59h-106q0 90 40.5 139t104.5 49q37 0 66 -12t74.5 -40t68.5 -28t36 17t18 59h106zM543 378q0 -90 -40.5 -139t-104.5 -49q-38 0 -66.5 12t-88.5 49q-33 19 -55 19t-35 -17
t-18 -59h-106q0 90 40.5 139t104.5 49q37 0 66 -12t74.5 -40t68.5 -28t36 17t18 59h106z" />
    <glyph glyph-name="notequal" unicode="&#x2260;" horiz-adv-x="598" 
d="M45 333h190l46 99h-236v108h286l75 160h100l-75 -160h118v-108h-168l-46 -99h214v-108h-265l-74 -160h-100l74 160h-139v108z" />
    <glyph glyph-name="lessequal" unicode="&#x2264;" horiz-adv-x="543" 
d="M39 334v126l471 218v-114l-352 -159v-11l352 -163v-114zM39 46h472v-98h-472v98z" />
    <glyph glyph-name="greaterequal" unicode="&#x2265;" horiz-adv-x="557" 
d="M511 460v-126l-471 -217v114l352 163v11l-352 159v114zM39 46h472v-98h-472v98z" />
    <glyph glyph-name="lozenge" unicode="&#x25ca;" 
d="M234 33v435h468v-435h-468z" />
    <glyph glyph-name="a42" unicode="&#x272f;" 
d="M336 437l82 251l81 -251h264l-214 -155l82 -251l-213 155l-214 -155l82 251l-214 155h264z" />
    <glyph glyph-name="_121" horiz-adv-x="654" 
d="M183.5 611q-17.5 18 -17.5 43.5t18 43.5t43.5 18t43.5 -17.5t18 -43t-18.5 -44t-44 -18.5t-43 18zM369 612q-18 18 -18 43.5t18 43.5t43.5 18t43.5 -17.5t18 -43.5t-18 -44t-43.5 -18t-43.5 18z" />
    <glyph glyph-name="_127" horiz-adv-x="292" 
d="M190 624h-94l106 140l110 -49z" />
    <glyph glyph-name="_241" 
d="M408 843l-77 -83h-94l121 156h102l122 -156h-97z" />
    <glyph glyph-name="_250" 
d="M544 628h-102l-122 96l118 49z" />
    <glyph glyph-name="apple" horiz-adv-x="0" 
d="M231 -251l33 92q-36 17 -36 59q0 28 19.5 47t46 19t46 -19t19.5 -44.5t-24 -66.5l-52 -87h-52z" />
    <glyph glyph-name="LF" horiz-adv-x="0" 
d="M231 -251l33 92q-36 17 -36 59q0 28 19.5 47t46 19t46 -19t19.5 -44.5t-24 -66.5l-52 -87h-52z" />
    <glyph glyph-name="HT" horiz-adv-x="0" 
d="M231 -251l33 92q-36 17 -36 59q0 28 19.5 47t46 19t46 -19t19.5 -44.5t-24 -66.5l-52 -87h-52z" />
    <glyph glyph-name="_257" horiz-adv-x="674" 
d="M418 742l-77 73l-77 -73h-107l122 156h122l121 -156h-104z" />
    <glyph glyph-name="_258" horiz-adv-x="394" 
d="M275 757l-77 83l-77 -83h-97l122 156h102l121 -156h-94z" />
    </font>
</defs>
</svg>
