<?xml version="1.0" encoding="utf-8"?>
<!-- Generator: Adobe Illustrator 21.0.0, SVG Export Plug-In . SVG Version: 6.00 Build 0)  -->
<svg version="1.1" id="Layer_1" xmlns="http://www.w3.org/2000/svg" xmlns:xlink="http://www.w3.org/1999/xlink" x="0px" y="0px"
	 viewBox="0 0 24 24" style="enable-background:new 0 0 24 24;" xml:space="preserve">
<style type="text/css">
	.st0{fill:#F48600;}
	.st1{fill:url(#SVGID_1_);}
</style>
<g>
	<path class="st0" d="M21.871,4.258c0-1.277-1.045-2.323-2.323-2.323c-1.277,0-2.323,1.045-2.323,2.323s1.045,2.323,2.323,2.323
		C20.826,6.581,21.871,5.535,21.871,4.258z M18,4.258c0-0.852,0.697-1.548,1.548-1.548c0.852,0,1.548,0.697,1.548,1.548
		S20.4,5.806,19.548,5.806C18.697,5.806,18,5.11,18,4.258z"/>
	<g>
		<linearGradient id="SVGID_1_" gradientUnits="userSpaceOnUse" x1="0.2731" y1="12" x2="24.312" y2="12">
			<stop  offset="0" style="stop-color:#662D8F"/>
			<stop  offset="1" style="stop-color:#0071BA"/>
		</linearGradient>
		<path class="st1" d="M23.806,4.258C23.806,1.897,21.91,0,19.548,0c-2.323,0-4.219,1.858-4.258,4.181
			c-1.432-0.697-3.019-1.084-4.645-1.084c-2.865,0-5.535,1.161-7.548,3.213c-1.858,1.935-2.903,4.529-2.903,7.239
			c0,2.516,0.89,4.955,2.555,6.852c1.974,2.284,4.877,3.6,7.897,3.6s5.923-1.316,7.897-3.6c1.665-1.897,2.555-4.335,2.555-6.852
			c0-1.084-0.155-2.129-0.465-3.135C21.871,8.671,23.806,5.768,23.806,4.258z M7.974,4.258C7.045,5.11,6.271,6.387,5.729,7.974
			C5.071,7.587,4.49,7.123,3.948,6.619C5.071,5.458,6.465,4.684,7.974,4.258z M3.406,7.123c0.619,0.619,1.316,1.123,2.09,1.548
			c-0.387,1.316-0.619,2.826-0.619,4.452h-3.91C1.084,10.916,1.897,8.826,3.406,7.123z M3.058,19.548
			c-1.277-1.626-1.974-3.561-2.09-5.613h3.871c0.039,1.355,0.194,2.632,0.465,3.794C4.49,18.232,3.716,18.813,3.058,19.548z
			 M3.561,20.129c0.581-0.619,1.239-1.161,1.935-1.626c0.542,1.858,1.394,3.368,2.439,4.335C6.271,22.374,4.761,21.445,3.561,20.129
			z M10.258,23.187c-1.742-0.271-3.252-2.245-4.065-5.071c1.239-0.658,2.632-1.006,4.065-1.084V23.187z M10.258,16.258
			C8.787,16.297,7.316,16.684,6,17.342c-0.232-1.045-0.387-2.206-0.387-3.406h4.645V16.258z M10.258,13.161H5.613
			c0.039-1.471,0.232-2.865,0.581-4.103c1.277,0.581,2.632,0.929,4.065,0.968V13.161z M10.258,9.29
			C8.903,9.252,7.587,8.903,6.426,8.323c0.813-2.477,2.245-4.181,3.832-4.413V9.29z M19.548,0.774c1.935,0,3.484,1.548,3.484,3.484
			c0,1.51-2.284,4.8-3.484,6.348c-1.2-1.548-3.484-4.839-3.484-6.348C16.065,2.323,17.613,0.774,19.548,0.774z M15.445,5.148
			c0.194,0.658,0.581,1.432,1.006,2.168c-0.271,0.232-0.581,0.426-0.89,0.581c-0.542-1.548-1.316-2.826-2.206-3.677
			C14.09,4.452,14.787,4.761,15.445,5.148z M11.032,3.91c1.626,0.232,3.019,1.935,3.832,4.413c-1.2,0.581-2.516,0.929-3.832,0.968
			L11.032,3.91z M11.032,10.065c1.432-0.039,2.787-0.387,4.065-1.006c0.348,1.239,0.542,2.632,0.581,4.103h-4.645V10.065z
			 M11.032,13.935h4.645c-0.039,1.2-0.155,2.361-0.387,3.406c-1.316-0.658-2.748-1.006-4.258-1.084V13.935z M11.032,23.187v-6.155
			c1.432,0.039,2.787,0.426,4.065,1.084C14.284,20.942,12.774,22.916,11.032,23.187z M13.316,22.839
			c1.045-0.968,1.897-2.477,2.439-4.335c0.697,0.465,1.355,1.006,1.935,1.626C16.529,21.445,15.019,22.374,13.316,22.839z
			 M18.232,19.548c-0.658-0.697-1.432-1.316-2.245-1.819c0.271-1.161,0.426-2.439,0.465-3.794h3.871
			C20.206,15.987,19.51,17.923,18.232,19.548z M16.452,13.161c-0.039-1.626-0.271-3.135-0.619-4.452
			c0.348-0.194,0.697-0.426,1.045-0.697c1.2,1.974,2.71,3.832,2.71,3.832s0.194-0.232,0.503-0.619
			c0.155,0.619,0.232,1.277,0.271,1.935H16.452z"/>
	</g>
</g>
</svg>
