<?xml version="1.0" encoding="utf-8"?>
<!-- Generator: Adobe Illustrator 21.0.0, SVG Export Plug-In . SVG Version: 6.00 Build 0)  -->
<svg version="1.1" id="Layer_1" xmlns="http://www.w3.org/2000/svg" xmlns:xlink="http://www.w3.org/1999/xlink" x="0px" y="0px"
	 viewBox="0 0 50 50" enable-background="new 0 0 50 50" xml:space="preserve">
<path fill="#f58700" d="M42.4,5.5H31.9C31.3,2.4,28.6,0,25.2,0c-3.3,0-6.1,2.4-6.7,5.5H7.6c-2.7,0-4.9,2.2-4.9,4.9v34.7c0,2.7,2.2,4.9,4.9,4.9h34.7
	c2.7,0,4.9-2.2,4.9-4.9V10.4C47.3,7.7,45.1,5.5,42.4,5.5z M25.3,2.6c2.1,0,3.9,1.7,3.9,3.9c0,2.1-1.7,3.9-3.9,3.9
	c-2.1,0-3.9-1.7-3.9-3.9C21.5,4.3,23.2,2.6,25.3,2.6z M19.6,44.8l4.5-13.1h-8.7l14.8-18.2l-4.5,13h8.7L19.6,44.8z"/>
</svg>
