<?xml version="1.0" encoding="utf-8"?>
<!-- Generator: Adobe Illustrator 21.0.0, SVG Export Plug-In . SVG Version: 6.00 Build 0)  -->
<svg version="1.1" id="Layer_1" xmlns="http://www.w3.org/2000/svg" xmlns:xlink="http://www.w3.org/1999/xlink" x="0px" y="0px"
	 viewBox="0 0 24 24" style="enable-background:new 0 0 24 24;" xml:space="preserve">
<style type="text/css">
	.st0{fill:#CD7F32;}
</style>
<g>
	<path class="st0" d="M12.5,14.9c3.4,0,6.1-2.7,6.1-6.1s-2.7-6.1-6.1-6.1S6.4,5.4,6.4,8.8S9.1,14.9,12.5,14.9z M12.5,5.5
		c1.8,0,3.3,1.5,3.3,3.3s-1.5,3.3-3.3,3.3s-3.3-1.5-3.3-3.3S10.7,5.5,12.5,5.5z"/>
	<path class="st0" d="M5,18.8h2.5L8.6,21l3-4.7c-1.5-0.2-2.8-0.8-3.9-1.7L5,18.8z"/>
	<path class="st0" d="M16.4,21.1l1.1-2.2H20l-2.7-4.2c-1.1,0.9-2.5,1.5-3.9,1.7L16.4,21.1z"/>
</g>
</svg>
