<?xml version="1.0" encoding="utf-8"?>
<!-- Generator: Adobe Illustrator 21.0.0, SVG Export Plug-In . SVG Version: 6.00 Build 0)  -->
<svg version="1.1" id="Layer_1" xmlns="http://www.w3.org/2000/svg" xmlns:xlink="http://www.w3.org/1999/xlink" x="0px" y="0px"
	 viewBox="0 0 24 24" style="enable-background:new 0 0 24 24;" xml:space="preserve">
<style type="text/css">
	.st0{fill:url(#SVGID_1_);}
	.st1{fill:#F48600;}
</style>
<g>
	<g>
		<linearGradient id="SVGID_1_" gradientUnits="userSpaceOnUse" x1="-0.743" y1="12" x2="24.4889" y2="12">
			<stop  offset="0" style="stop-color:#662D8F"/>
			<stop  offset="1" style="stop-color:#0071BA"/>
		</linearGradient>
		<path class="st0" d="M8.483,23.205c-0.498,0-0.901-0.401-0.903-0.894v-1.742c0.008-1.16,0.961-2.106,2.124-2.106h0.668
			c0.086,0,0.168,0.034,0.23,0.095l1.401,1.377l1.401-1.377c0.062-0.061,0.144-0.095,0.231-0.095h0.652
			c1.178,0,2.131,0.946,2.139,2.108v1.741c-0.002,0.492-0.405,0.893-0.898,0.893H8.483z M9.706,19.119
			c-0.795,0-1.452,0.647-1.464,1.442l0,1.982h7.524v-1.974c-0.012-0.8-0.669-1.446-1.463-1.446h-0.531l-1.34,1.315
			c-0.114,0.112-0.266,0.173-0.427,0.173c-0.161,0-0.313-0.062-0.428-0.174l-1.339-1.317H9.706z M12.003,17.737
			c-1.411,0-2.574-1.148-2.593-2.559c-0.019-1.43,1.129-2.608,2.559-2.627l0.034,0c1.428,0,2.584,1.147,2.593,2.557
			c0.019,1.432-1.129,2.61-2.559,2.629L12.003,17.737z M12.002,13.133c-1.041,0-1.908,0.847-1.932,1.888
			c-0.012,0.516,0.178,1.006,0.534,1.38c0.357,0.374,0.837,0.586,1.354,0.598l0.045,0c1.061,0,1.92-0.849,1.933-1.892
			c0.025-1.063-0.822-1.95-1.888-1.975L12.002,13.133z M16.063,11.403c-0.498,0-0.901-0.401-0.903-0.894V8.766
			c0.008-1.16,0.961-2.106,2.123-2.106l0.665,0c0.086,0,0.168,0.034,0.23,0.095l1.401,1.377l1.401-1.377
			c0.062-0.061,0.144-0.095,0.231-0.095h0.651c1.133,0,2.056,0.871,2.136,1.969l-0.005,0.137v1.743
			c-0.002,0.492-0.405,0.893-0.898,0.893H16.063z M17.283,7.32c-0.795,0-1.452,0.647-1.464,1.442l0,1.981h7.528l-0.012-1.979
			c-0.012-0.798-0.669-1.445-1.464-1.445h-0.521l-1.34,1.318c-0.115,0.112-0.267,0.174-0.428,0.174
			c-0.161,0-0.314-0.062-0.429-0.175L17.814,7.32H17.283z M0.898,11.403c-0.493,0-0.896-0.401-0.898-0.894V8.766
			C0.008,7.606,0.961,6.66,2.123,6.66l0.668,0c0.086,0,0.168,0.034,0.23,0.095l1.401,1.377l1.401-1.377
			C5.886,6.694,5.968,6.66,6.055,6.66h0.651c1.175,0,2.128,0.946,2.137,2.108v1.741c-0.002,0.492-0.405,0.893-0.898,0.893H0.898z
			 M2.123,7.32c-0.795,0-1.452,0.647-1.464,1.442l0,1.981h7.527V8.766C8.174,7.967,7.517,7.32,6.722,7.32H6.191l-1.34,1.318
			C4.737,8.75,4.584,8.812,4.423,8.812c-0.161,0-0.314-0.062-0.429-0.175L2.655,7.32H2.123z M19.507,5.809
			c-1.37-0.041-2.475-1.145-2.516-2.516c0.042-1.393,1.18-2.499,2.591-2.499l0.078,0.001c1.37,0.041,2.475,1.146,2.516,2.516
			c-0.042,1.393-1.18,2.499-2.591,2.499L19.507,5.809z M19.507,1.435c-1.001,0.04-1.816,0.855-1.856,1.856
			c0.041,1.065,0.889,1.881,1.931,1.882c0.026,0,0.051,0,0.077-0.001c1.001-0.04,1.816-0.855,1.856-1.856
			c-0.041-1.066-0.89-1.881-1.931-1.881C19.559,1.433,19.533,1.434,19.507,1.435z M4.345,5.809C2.975,5.769,1.87,4.664,1.829,3.294
			C1.871,1.9,3.009,0.795,4.42,0.795l0.078,0.001c1.37,0.041,2.475,1.146,2.516,2.516C6.972,4.705,5.834,5.81,4.423,5.81
			L4.345,5.809z M4.345,1.435C3.344,1.474,2.529,2.29,2.49,3.291C2.531,4.356,3.379,5.172,4.42,5.172c0,0,0.052,0,0.078-0.001
			c1.001-0.04,1.816-0.855,1.856-1.856c-0.041-1.066-0.89-1.881-1.931-1.881C4.397,1.433,4.371,1.434,4.345,1.435z"/>
	</g>
	<path class="st1" d="M6.696,17.243c-0.086,0-0.168-0.033-0.23-0.093l-0.001-0.001c-0.818-0.841-1.446-1.873-1.815-2.987
		c-0.06-0.175,0.032-0.363,0.204-0.422c0.035-0.012,0.071-0.018,0.107-0.018c0.141,0,0.266,0.09,0.312,0.223
		c0.342,1.03,0.916,1.975,1.663,2.743c0.122,0.128,0.12,0.33-0.008,0.458C6.868,17.208,6.785,17.243,6.696,17.243z"/>
	<path class="st1" d="M17.297,17.236c-0.09,0-0.172-0.033-0.234-0.094c-0.13-0.127-0.132-0.337-0.004-0.467
		c0.748-0.769,1.322-1.713,1.66-2.731c0.045-0.136,0.171-0.227,0.313-0.227c0.035,0,0.07,0.006,0.104,0.017
		c0.173,0.057,0.267,0.244,0.21,0.417c-0.369,1.113-0.996,2.146-1.814,2.986c-0.061,0.062-0.146,0.098-0.233,0.098H17.297z"/>
	<path class="st1" d="M13.689,4.854c-0.028,0-0.057-0.004-0.085-0.011c-0.532-0.121-1.067-0.182-1.601-0.182
		c-0.534,0-1.069,0.06-1.59,0.179c-0.039,0.009-0.063,0.011-0.086,0.011h0c-0.154,0-0.289-0.11-0.322-0.26
		c-0.019-0.086-0.003-0.174,0.045-0.248c0.048-0.074,0.121-0.125,0.208-0.143c0.574-0.131,1.159-0.197,1.744-0.197
		c0.585,0,1.17,0.066,1.74,0.196l0.031,0.007c0.176,0.047,0.281,0.228,0.234,0.404C13.969,4.754,13.838,4.854,13.689,4.854z"/>
</g>
</svg>
