<?xml version="1.0" encoding="utf-8"?>
<!-- Generator: Adobe Illustrator 21.0.0, SVG Export Plug-In . SVG Version: 6.00 Build 0)  -->
<svg version="1.1" id="Layer_1" xmlns="http://www.w3.org/2000/svg" xmlns:xlink="http://www.w3.org/1999/xlink" x="0px" y="0px"
	 viewBox="0 0 191 191" enable-background="new 0 0 191 191" xml:space="preserve">
<g>
	<g>
		<circle fill="#F2F2F2" cx="95.5" cy="95.5" r="95.5"/>
	</g>
	<path fill="#F48600" d="M139.6,91.4V52.6l11.3-4.8c0.7-0.4,1.1-1.1,1.1-1.8s-0.4-1.4-1.1-1.6l-12.4-5.3c-0.5-0.2-1.2-0.2-1.6,0.2
		c-0.5,0.2-0.9,0.9-0.9,1.4v10.6v40c0,0.3,0.3,0.6,0.6,0.6h2.4C139.4,92,139.6,91.7,139.6,91.4z M139.6,48.7v-5.3l6.2,2.6
		L139.6,48.7z"/>
	<g>
		<linearGradient id="SVGID_1_" gradientUnits="userSpaceOnUse" x1="33.6667" y1="95.5" x2="155.0018" y2="95.5">
			<stop  offset="0" style="stop-color:#662D8F"/>
			<stop  offset="1" style="stop-color:#0071BA"/>
		</linearGradient>
		<path fill="url(#SVGID_1_)" d="M136.1,92h-31.8V79.6c0-4.9-4.1-8.8-9-8.8H84.9v-5.3h8.7c4.9,0,9-3.9,9-8.8V40.8
			c0-1.1-0.9-1.8-1.9-1.8h-7.1c-0.9,0-1.6,0.7-1.6,1.8v14.1h-8.7c0.9-1.6,1.4-3.4,1.4-5.3C84.7,43.8,80,39,74.1,39
			c-5.8,0-10.6,4.8-10.6,10.6c0,2.3,0.7,4.4,1.9,6.2l-9.7,9.7c-1.8,1.8-2.6,3.9-2.6,6.4c0,2.5,0.9,4.6,2.6,6.2l6.5,6.5
			c0.4,0.4,0.7,0.5,1.2,0.5c0.5,0,1.1-0.2,1.2-0.5l2.5-2.5v25.8c0,1.1,0.7,1.8,1.6,1.8H69c-1.1,1.4-1.8,3.4-1.8,5.3s0.7,3.9,1.8,5.3
			H62c-4.9,0-8.8,3.9-8.8,8.8c0,1.9,0.7,3.9,1.8,5.3h-7.1c-4.9,0-8.8,3.9-8.8,8.8s3.9,8.8,8.8,8.8h49.4c0.7,0,1.2-0.4,1.6-1.1
			c0.4-0.5,0.2-1.2-0.2-1.8c-2.5-3.4-2.6-7.8-0.5-11.3h13.2c0.7,0,1.2-0.4,1.6-1.1c0.4-0.5,0.2-1.2-0.2-1.8
			c-2.5-3.4-2.6-7.8-0.5-11.3h13.2c0.7,0,1.2-0.4,1.6-1.1c0.4-0.5,0.2-1.2-0.2-1.8c-2.5-3.4-2.6-7.8-0.5-11.3h13.2
			c0.7,0,1.2-0.4,1.6-1.1c0.4-0.5,0.2-1.2-0.2-1.8c-2.6-3.5-2.6-8.5,0-12c0.4-0.5,0.5-1.2,0.2-1.8c-0.4-0.7-0.9-1.1-1.6-1.1H136.1z
			 M74.1,42.5c3.9,0,7.1,3.2,7.1,7.1s-3.2,7.1-7.1,7.1c-3.9,0-7.1-3.2-7.1-7.1S70.3,42.5,74.1,42.5z M67.3,73.8l-2.1-2.1l2.1-2.1
			V73.8z M67.6,64.2l-6.4,6.4c-0.4,0.4-0.5,0.7-0.5,1.2c0,0.5,0.2,0.9,0.5,1.2l4.9,4.9l-2.8,2.8l-5.3-5.3c-1.1-1.1-1.6-2.3-1.6-3.7
			c0-1.4,0.5-2.8,1.6-3.7l9.9-9.9c1.8,1.2,3.9,1.9,6.2,1.9c2.1,0,4.2-0.7,5.8-1.8h13.6c1.1,0,1.9-0.7,1.9-1.8V42.5H99v14.1
			c0,3-2.5,5.3-5.5,5.3H83c-1.1,0-1.6,0.7-1.6,1.8v8.8c0,1.1,0.7,1.8,1.6,1.8h12.4c3,0,5.5,2.3,5.5,5.3V92h-5.3V81.4
			c0-1.1-0.9-1.8-1.9-1.8H77.7c-1.1,0-1.6,0.7-1.6,1.8v24.7h-5.3V65.5c0-0.7-0.5-1.4-1.2-1.6C69,63.5,68.1,63.7,67.6,64.2z
			 M83.1,106.1h-3.5v-23H92V92h-1.8c-4.9,0-8.8,3.9-8.8,8.8C81.4,102.7,82.1,104.7,83.1,106.1z M47.8,148.5c-3,0-5.3-2.3-5.3-5.3
			s2.3-5.3,5.3-5.3H62h32.3c-0.5,1.1-0.7,2.3-0.9,3.5h-42v3.5h41.8c0.2,1.2,0.5,2.5,0.9,3.5H47.8z M97.3,134.3H62
			c-3,0-5.3-2.3-5.3-5.3c0-3,2.3-5.3,5.3-5.3h14.1h32.3c-0.5,1.1-0.7,2.3-0.9,3.5H79.6v3.5h27.7c0.2,1.2,0.5,2.5,0.9,3.5H97.3z
			 M111.4,120.2H76.1c-3,0-5.3-2.3-5.3-5.3s2.3-5.3,5.3-5.3h1.6h12.5h32.3c-0.5,1.1-0.7,2.3-0.9,3.5h-15.5v3.5h15.4
			c0.2,1.2,0.5,2.5,0.9,3.5H111.4z M125.5,106.1H90.2c-3,0-5.3-2.3-5.3-5.3s2.3-5.3,5.3-5.3h3.4h8.8h34.3c-0.5,1.1-0.7,2.3-0.9,3.5
			h-27.9v3.5h27.7c0.2,1.2,0.5,2.5,0.9,3.5H125.5z"/>
	</g>
	<g>
		<linearGradient id="SVGID_2_" gradientUnits="userSpaceOnUse" x1="33.6667" y1="53.125" x2="155.0018" y2="53.125">
			<stop  offset="0" style="stop-color:#662D8F"/>
			<stop  offset="1" style="stop-color:#0071BA"/>
		</linearGradient>
		<rect x="46.1" y="51.4" fill="url(#SVGID_2_)" width="3.5" height="3.5"/>
	</g>
	<g>
		<linearGradient id="SVGID_3_" gradientUnits="userSpaceOnUse" x1="33.6667" y1="53.125" x2="155.0018" y2="53.125">
			<stop  offset="0" style="stop-color:#662D8F"/>
			<stop  offset="1" style="stop-color:#0071BA"/>
		</linearGradient>
		<rect x="53.1" y="51.4" fill="url(#SVGID_3_)" width="3.5" height="3.5"/>
	</g>
	<g>
		<linearGradient id="SVGID_4_" gradientUnits="userSpaceOnUse" x1="33.6667" y1="53.125" x2="155.0018" y2="53.125">
			<stop  offset="0" style="stop-color:#662D8F"/>
			<stop  offset="1" style="stop-color:#0071BA"/>
		</linearGradient>
		<rect x="39" y="51.4" fill="url(#SVGID_4_)" width="3.5" height="3.5"/>
	</g>
	<path fill="#F48600" d="M111,53.1c3.7,0.9,6.5,3.9,7.6,7.6c0.2,0.7,0.9,1.4,1.8,1.4s1.6-0.5,1.8-1.4c0.9-3.7,3.9-6.5,7.6-7.6
		c0.5-0.2,1.1-0.9,1.1-1.8s-0.5-1.6-1.4-1.8c-3.7-0.9-6.5-3.9-7.6-7.6c0-0.7-0.7-1.2-1.6-1.2s-1.6,0.5-1.8,1.4
		c-0.9,3.7-3.9,6.5-7.6,7.6c-0.7,0-1.2,0.7-1.2,1.6S110.2,52.9,111,53.1z M120.2,46.9c1.1,1.8,2.6,3.2,4.4,4.4
		c-1.8,1.1-3.2,2.6-4.4,4.4c-1.1-1.8-2.6-3.2-4.4-4.4C117.6,50.3,119.2,48.7,120.2,46.9z"/>
	<g>
		<linearGradient id="SVGID_5_" gradientUnits="userSpaceOnUse" x1="33.6667" y1="114.9219" x2="155.0018" y2="114.9219">
			<stop  offset="0" style="stop-color:#662D8F"/>
			<stop  offset="1" style="stop-color:#0071BA"/>
		</linearGradient>
		<rect x="81.4" y="113.2" fill="url(#SVGID_5_)" width="21.2" height="3.5"/>
	</g>
	<g>
		<linearGradient id="SVGID_6_" gradientUnits="userSpaceOnUse" x1="33.6667" y1="129.0469" x2="155.0018" y2="129.0469">
			<stop  offset="0" style="stop-color:#662D8F"/>
			<stop  offset="1" style="stop-color:#0071BA"/>
		</linearGradient>
		<rect x="72.5" y="127.3" fill="url(#SVGID_6_)" width="3.5" height="3.5"/>
	</g>
	<g>
		<linearGradient id="SVGID_7_" gradientUnits="userSpaceOnUse" x1="33.6667" y1="129.0469" x2="155.0018" y2="129.0469">
			<stop  offset="0" style="stop-color:#662D8F"/>
			<stop  offset="1" style="stop-color:#0071BA"/>
		</linearGradient>
		<rect x="65.5" y="127.3" fill="url(#SVGID_7_)" width="3.5" height="3.5"/>
	</g>
	<g>
		<linearGradient id="SVGID_8_" gradientUnits="userSpaceOnUse" x1="33.6667" y1="100.7969" x2="155.0018" y2="100.7969">
			<stop  offset="0" style="stop-color:#662D8F"/>
			<stop  offset="1" style="stop-color:#0071BA"/>
		</linearGradient>
		<rect x="100.8" y="99" fill="url(#SVGID_8_)" width="3.5" height="3.5"/>
	</g>
	<g>
		<linearGradient id="SVGID_9_" gradientUnits="userSpaceOnUse" x1="33.6667" y1="100.7969" x2="155.0018" y2="100.7969">
			<stop  offset="0" style="stop-color:#662D8F"/>
			<stop  offset="1" style="stop-color:#0071BA"/>
		</linearGradient>
		<rect x="93.7" y="99" fill="url(#SVGID_9_)" width="3.5" height="3.5"/>
	</g>
</g>
</svg>
