<?xml version="1.0" encoding="utf-8"?>
<!-- Generator: Adobe Illustrator 21.0.0, SVG Export Plug-In . SVG Version: 6.00 Build 0)  -->
<svg version="1.1" id="Layer_1" xmlns="http://www.w3.org/2000/svg" xmlns:xlink="http://www.w3.org/1999/xlink" x="0px" y="0px"
	 viewBox="0 0 191 191" enable-background="new 0 0 191 191" xml:space="preserve">
<g>
	<g>
		<circle fill="#F2F2F2" cx="95.5" cy="95.5" r="95.5"/>
	</g>
	<path fill="#F48600" d="M57,96.2l6.9-6.9h36.5v-3.7H63.9L57,78.7c-0.4-0.4-0.7-0.6-1.3-0.6H38.9c-0.7,0-1.5,0.4-1.7,1.1
		C37,80,37,80.8,37.6,81.3l6.2,6.2l-6.2,6.2c-0.6,0.6-0.7,1.3-0.4,2.1c0.4,0.7,0.9,1.1,1.7,1.1h16.8C56.2,96.8,56.6,96.6,57,96.2z
		 M43.3,93.1l4.3-4.3c0.7-0.7,0.7-1.9,0-2.6l-4.3-4.3h11.6l5.6,5.6l-5.6,5.6H43.3z"/>
	<g>
		<linearGradient id="SVGID_1_" gradientUnits="userSpaceOnUse" x1="39.5" y1="87.4818" x2="151.0179" y2="87.4818">
			<stop  offset="0" style="stop-color:#662D8F"/>
			<stop  offset="1" style="stop-color:#0071BA"/>
		</linearGradient>
		<path fill="url(#SVGID_1_)" d="M64.8,93.4c2.8,18.1,18.3,31.3,36.7,31.3c20.5,0,37.3-16.8,37.3-37.3S122,50.2,101.5,50.2
			c-18.5,0-33.9,13.2-36.7,31.3l3.7,0.6c2.4-16.2,16.4-28.2,33-28.2c18.5,0,33.6,15.1,33.6,33.6S120,121,101.5,121
			c-16.6,0-30.6-11.9-33.2-28.3L64.8,93.4z"/>
	</g>
	<g>
		<linearGradient id="SVGID_2_" gradientUnits="userSpaceOnUse" x1="39.5" y1="87.4818" x2="151.0179" y2="87.4818">
			<stop  offset="0" style="stop-color:#662D8F"/>
			<stop  offset="1" style="stop-color:#0071BA"/>
		</linearGradient>
		<path fill="url(#SVGID_2_)" d="M76,92.7l-3.7,0.7c2.8,13.8,15.1,23.9,29.3,23.9c16.4,0,29.8-13.4,29.8-29.8s-13.4-29.8-29.8-29.8
			c-14.2,0-26.5,10.1-29.3,23.9l3.7,0.7c2.4-12.1,13.2-20.9,25.5-20.9c14.4,0,26.1,11.7,26.1,26.1s-11.7,26.1-26.1,26.1
			C89.2,113.6,78.4,104.8,76,92.7z"/>
	</g>
	<g>
		<linearGradient id="SVGID_3_" gradientUnits="userSpaceOnUse" x1="39.5" y1="87.4818" x2="151.0179" y2="87.4818">
			<stop  offset="0" style="stop-color:#662D8F"/>
			<stop  offset="1" style="stop-color:#0071BA"/>
		</linearGradient>
		<path fill="url(#SVGID_3_)" d="M89.4,92.3l-3.5,1.5c2.6,6.3,8.8,10.4,15.7,10.4c9.3,0,16.8-7.5,16.8-16.8s-7.5-16.8-16.8-16.8
			c-6.9,0-13.1,4.1-15.5,10.4l3.5,1.5c2.1-5,6.7-8.2,12.1-8.2c7.3,0,13.1,5.8,13.1,13.1s-5.8,13.1-13.1,13.1
			C96.1,100.5,91.4,97.4,89.4,92.3z"/>
	</g>
	<path fill="#F48600" d="M101.5,93.1c-1.7,0-3-0.7-3.7-1.5l-2.4,2.8c1.7,1.5,3.9,2.2,6.2,2.2c5.2,0,9.3-4.1,9.3-9.3
		c0-5.2-4.1-9.3-9.3-9.3c-2.2,0-4.5,0.7-6.2,2.2l2.4,2.8c0.7-0.6,2.1-1.5,3.7-1.5c3.2,0,5.6,2.4,5.6,5.6S104.7,93.1,101.5,93.1z"/>
	<g>
		<linearGradient id="SVGID_4_" gradientUnits="userSpaceOnUse" x1="39.5" y1="95.5" x2="151.0179" y2="95.5">
			<stop  offset="0" style="stop-color:#662D8F"/>
			<stop  offset="1" style="stop-color:#0071BA"/>
		</linearGradient>
		<path fill="url(#SVGID_4_)" d="M150,87.5c0-26.7-21.8-48.5-48.5-48.5c-21.4,0-40.5,14.4-46.6,34.9l3.5,1.1
			c5.6-19,23.3-32.3,43.1-32.3c24.6,0,44.8,20.1,44.8,44.8s-20.1,44.8-44.8,44.8C81.8,132.2,64,119,58.6,100l-3.7,1.1
			c3.5,12.1,11.6,22,22,28.2L70.2,144c-0.7,1.5-0.7,3.4,0,4.8c0.7,1.5,2.1,2.6,3.7,3c0.6,0.2,0.9,0.2,1.5,0.2c2.1,0,4.1-1.1,5-3.2
			l7.5-14.9c4.3,1.3,8.8,1.9,13.4,1.9c4.8,0,9.3-0.7,13.6-2.1l7.5,14.9c0.9,2.1,3,3.2,5,3.2c0.4,0,0.9,0,1.5-0.2
			c1.7-0.4,3-1.5,3.7-3c0.7-1.5,0.7-3.4,0-4.8l-6.7-14.9C140.5,120.7,150,105.2,150,87.5z M77.3,147.3c-0.4,0.7-1.3,1.3-2.2,1.1
			c-0.6-0.2-1.1-0.6-1.3-1.1s-0.2-1.1,0-1.7l6.7-14.5c1.3,0.7,2.8,1.3,4.1,1.9L77.3,147.3z M129.7,145.7c0.2,0.6,0.2,1.1,0,1.7
			s-0.7,0.9-1.3,1.1c-0.9,0.2-1.9-0.2-2.2-1.1l-7.3-14.5c1.5-0.6,2.8-1.1,4.1-1.9L129.7,145.7z"/>
	</g>
	<g>
		<linearGradient id="SVGID_5_" gradientUnits="userSpaceOnUse" x1="39.5" y1="141.5578" x2="151.0179" y2="141.5578">
			<stop  offset="0" style="stop-color:#662D8F"/>
			<stop  offset="1" style="stop-color:#0071BA"/>
		</linearGradient>
		<rect x="107.1" y="139.7" fill="url(#SVGID_5_)" width="3.7" height="3.7"/>
	</g>
	<g>
		<linearGradient id="SVGID_6_" gradientUnits="userSpaceOnUse" x1="39.5" y1="141.5578" x2="151.0179" y2="141.5578">
			<stop  offset="0" style="stop-color:#662D8F"/>
			<stop  offset="1" style="stop-color:#0071BA"/>
		</linearGradient>
		<rect x="99.7" y="139.7" fill="url(#SVGID_6_)" width="3.7" height="3.7"/>
	</g>
	<g>
		<linearGradient id="SVGID_7_" gradientUnits="userSpaceOnUse" x1="39.5" y1="141.5578" x2="151.0179" y2="141.5578">
			<stop  offset="0" style="stop-color:#662D8F"/>
			<stop  offset="1" style="stop-color:#0071BA"/>
		</linearGradient>
		<rect x="92.2" y="139.7" fill="url(#SVGID_7_)" width="3.7" height="3.7"/>
	</g>
</g>
</svg>
