<?xml version="1.0" encoding="UTF-8"?>
<!-- Generator: Adobe Illustrator 21.0.0, SVG Export Plug-In . SVG Version: 6.00 Build 0)  -->
<svg version="1.1" id="Layer_1" xmlns="http://www.w3.org/2000/svg" xmlns:xlink="http://www.w3.org/1999/xlink" x="0px" y="0px" viewBox="0 0 100 84.3" style="enable-background:new 0 0 100 84.3;" xml:space="preserve">
<style type="text/css">
	.st0{fill:#F2F2F2;}
	.st1{fill:#999999;}
	.st2{fill:#E77A14;}
</style>
<g>
	<path class="st0" d="M97.6,42.6c0,22.4-18.2,40.6-40.6,40.6c-22.4,0-40.6-18.2-40.6-40.6C16.5,20.2,34.7,2,57.1,2   C79.5,2,97.6,20.2,97.6,42.6"/>
	<path class="st1" d="M9.4,52.1c2.2,0,4.1,1.8,4.1,4.1c0,2.2-1.8,4.1-4.1,4.1c-2.2,0-4.1-1.8-4.1-4.1C5.4,54,7.2,52.1,9.4,52.1    M9.4,50c-3.4,0-6.2,2.8-6.2,6.2c0,3.4,2.8,6.2,6.2,6.2c3.5-0.1,6.2-2.8,6.2-6.2C15.7,52.7,12.9,50,9.4,50"/>
	<path class="st1" d="M16.6,73.6h-2.1v-5.2c0-2.7-2.2-5-5-5c-2.7,0-5,2.2-5,5v5.2H2.4v-5.2c0-3.9,3.2-7.1,7.1-7.1   c3.9,0,7.1,3.2,7.1,7.1L16.6,73.6L16.6,73.6z"/>
	<path class="st1" d="M25.9,52.1c2.2,0,4.1,1.8,4.1,4.1c0,2.2-1.8,4.1-4.1,4.1c-2.3,0-4.1-1.8-4.1-4.1C21.8,54,23.6,52.1,25.9,52.1    M25.9,50c-3.4,0-6.2,2.8-6.2,6.2c0,3.4,2.8,6.2,6.2,6.2c3.4,0,6.2-2.8,6.2-6.2C32.1,52.7,29.3,50,25.9,50"/>
	<path class="st1" d="M33,73.6h-2.1v-5.2c0-2.7-2.2-5-5-5c-2.7,0-5,2.2-5,5v5.2h-2.1v-5.2c0-3.9,3.2-7.1,7.1-7.1   c3.9,0,7.1,3.2,7.1,7.1V73.6z"/>
	<path class="st1" d="M42.4,52.1c2.2,0,4.1,1.8,4.1,4.1c0,2.2-1.8,4.1-4.1,4.1c-2.2,0-4.1-1.8-4.1-4.1C38.3,54,40.1,52.1,42.4,52.1    M42.4,50c-3.4,0-6.2,2.8-6.2,6.2c0,3.4,2.8,6.2,6.2,6.2c3.4,0,6.2-2.8,6.2-6.2S45.8,50,42.4,50"/>
	<path class="st1" d="M49.5,73.6h-2.1v-5.2c0-2.7-2.2-5-5-5c-2.7,0-5,2.2-5,5v5.2h-2.1v-5.2c0-3.9,3.2-7.1,7.1-7.1   c3.9,0,7.1,3.2,7.1,7.1V73.6z"/>
	<path class="st1" d="M58.8,52.1c2.2,0,4.1,1.8,4.1,4.1c0,2.2-1.8,4.1-4.1,4.1c-2.2,0-4.1-1.8-4.1-4.1C54.7,54,56.6,52.1,58.8,52.1    M58.8,50c-3.4,0-6.2,2.8-6.2,6.2c0,3.4,2.8,6.2,6.2,6.2c3.4,0,6.2-2.8,6.2-6.2S62.3,50,58.8,50"/>
	<path class="st1" d="M65.9,73.6h-2.1v-5.2c0-2.7-2.2-5-5-5c-2.7,0-5,2.2-5,5v5.2h-2.1v-5.2c0-3.9,3.2-7.1,7.1-7.1   c3.9,0,7.1,3.2,7.1,7.1V73.6z"/>
	<path class="st1" d="M60,37c2.1-1,3.6-3.1,3.6-5.7c0-3.4-2.8-6.2-6.2-6.2c-3.4,0-6.2,2.8-6.2,6.2c0,2.5,1.5,4.7,3.7,5.7   c-0.6,0.2-1.1,0.5-1.6,0.9L48.9,34l0,0l-4.1-3.6c-0.4-0.4-0.9-0.5-1.4-0.5c-1,0.1-1.9,0.7-2.3,1.3l-0.2,0.4c-0.7,1-0.6,2.4,0.3,3.3   l9.2,8c-0.1,0.3-0.1,0.5-0.1,0.8v5.2h2.1v-5.2c0-0.3,0.1-0.6,0.1-1l0.1-0.6l-10-8.8c-0.1-0.1-0.2-0.2-0.1-0.3l0.2-0.4   c0.2-0.2,0.5-0.4,0.7-0.4l4.1,3.6l0,0l5.7,5l0.5-0.5l0.1,0c1-1,2.3-1.6,3.6-1.6c2.7,0,5,2.2,5,5v5.2h2.1h0.1v-5.2   C64.6,40.6,62.7,38,60,37 M53.3,31.3c0.1-2.2,1.9-4.1,4.1-4.1c2.2,0,4.1,1.8,4.1,4.1c0,2.2-1.8,4.1-4.1,4.1   C55.1,35.5,53.3,33.6,53.3,31.3"/>
	<path class="st2" d="M39.6,46.2c-0.2,0-0.4-0.1-0.6-0.1V19.3c0.2,0,0.3,0,0.5-0.1c0.6-0.1,0.9-0.5,0.9-1.1c0-0.6-0.4-1-1.2-1   c-4.1,0-11.5,0-15.6,0H23v-1c0-0.3,0-0.6,0-0.9c0-0.7-0.6-1.2-1.3-1c-0.5,0.1-0.8,0.5-0.8,1.1c0,0.6,0,1.2,0,1.8H10.2   c-1.9,0-3.8,0-5.7,0c-0.6,0-1,0.4-1.1,1c0,0.5,0.4,1,1,1.1c0.1,0,0.3,0,0.5,0.1v0.5c0,1,0,18,0,22.1v0.3v3.8c-0.2,0-0.2,0-0.3,0   c-0.7,0.1-1.1,0.5-1.1,1.1c0,0.6,0.5,1,1.2,1c4.1,0,14.7,0,18.8,0l2.8,0h12.7c0.2,0,0.4,0,0.6,0c0.5-0.1,0.9-0.5,0.9-1   C40.5,46.7,40.2,46.3,39.6,46.2 M37,46.1H6.8v-0.6c0-0.4,0-1.9,0-3.6v-0.3v-0.1c0,0,0,0,0,0c0-5.4,0-21.1,0-21.6   c0-0.7,0-0.7,0.6-0.7c4.4,0,18.3,0,29.1,0c0.2,0,0.3,0,0.5,0V46.1z"/>
</g>
</svg>