<?xml version="1.0" encoding="UTF-8"?>
<!-- Generator: Adobe Illustrator 21.0.0, SVG Export Plug-In . SVG Version: 6.00 Build 0)  -->
<svg version="1.1" id="Layer_1" xmlns="http://www.w3.org/2000/svg" xmlns:xlink="http://www.w3.org/1999/xlink" x="0px" y="0px" viewBox="0 0 100 84.3" style="enable-background:new 0 0 100 84.3;" xml:space="preserve">
<style type="text/css">
	.st0{fill:#F2F2F2;}
	.st1{fill:#E77A14;}
	.st2{fill:#999999;}
</style>
<g>
	<path class="st0" d="M98.8,42.1c0,22.7-18.4,41.1-41.1,41.1c-22.7,0-41.1-18.4-41.1-41.1C16.5,19.4,35,1,57.7,1   C80.4,1,98.8,19.4,98.8,42.1"/>
	<polygon class="st1" points="49.5,31.3 52.9,31.3 52.3,33.5 50.1,33.5  "/>
	<polygon class="st1" points="50.1,35.7 52.3,35.7 52.3,44.6 51.2,45.7 50.1,44.6  "/>
	<path class="st2" d="M61.2,50.6c1.3-0.8,2.2-2.2,2.2-3.8V31.3c0-2.5-2-4.4-4.4-4.4h-2.3c1.4-1.4,2.3-3.4,2.3-5.6   c0-4.3-3.5-7.8-7.8-7.8c-4.3,0-7.8,3.5-7.8,7.8c0,1.6,0.5,3.2,1.4,4.4c0.5,0.8,1.2,1.5,2,2c0.3,0.4,0.5,0.9,0.7,1.4H59   c1.2,0,2.2,1,2.2,2.2v15.6c0,1.2-1,2.2-2.2,2.2V35.7h-2.2v15.6h-2.2v15.6h2.2v4.4H45.6v-4.4h2.2V51.3h-4.4v-0.6   c1.3-0.8,2.2-2.2,2.2-3.8V35.7v-4.4c0-2.5-2-4.4-4.4-4.4h-2.3c0.6-0.6,1.2-1.4,1.6-2.2c0.5-1,0.8-2.1,0.8-3.3   c0-4.3-3.5-7.8-7.8-7.8c-4.3,0-7.8,3.5-7.8,7.8c0,1.2,0.3,2.3,0.8,3.3c0.4,0.8,0.9,1.6,1.6,2.2h-2.3c-2.5,0-4.4,2-4.4,4.4v4.4v11.1   c0,2.5,2,4.4,4.4,4.4v20c0,1.2,1,2.2,2.2,2.2H39c1.2,0,2.2-1,2.2-2.2v-4.4h2.2v4.4c0,1.2,1,2.2,2.2,2.2h11.1c1.2,0,2.2-1,2.2-2.2   v-4.4h6.7V51.3h-4.4V50.6z M51.2,15.7c3.1,0,5.6,2.5,5.6,5.6c0,3.1-2.5,5.6-5.6,5.6c-3.1,0-5.6-2.5-5.6-5.6   C45.6,18.2,48.1,15.7,51.2,15.7 M27.9,21.2c0-3.1,2.5-5.6,5.6-5.6c3.1,0,5.6,2.5,5.6,5.6c0,1.3-0.4,2.4-1.1,3.3   c-1,1.3-2.6,2.2-4.4,2.2c-1.8,0-3.4-0.9-4.4-2.2C28.3,23.7,27.9,22.5,27.9,21.2 M39,71.3H27.9V46.8V35.7h-2.2v11.1V49   c-1.2,0-2.2-1-2.2-2.2V35.7v-4.4c0-1.2,1-2.2,2.2-2.2h15.6c1.2,0,2.2,1,2.2,2.2v4.4v11.1c0,1.2-1,2.2-2.2,2.2v-2.2V35.7H39v11.1   v4.4h-2.2v15.6H39V71.3z M39,53.5h6.7v11.1H39V53.5z M63.4,64.6h-6.7V53.5h6.7V64.6z"/>
	<path class="st2" d="M21.2,51.3v20h-4.4h-2.2h-4.4v-4.4h2.2V51.3h-2.2V35.7H7.8V49c-1.2,0-2.2-1-2.2-2.2V31.3c0-1.2,1-2.2,2.2-2.2   h11.5c0.2-0.5,0.4-0.9,0.7-1.4c0.8-0.5,1.5-1.2,2-2c0.9-1.3,1.4-2.8,1.4-4.4c0-4.3-3.5-7.8-7.8-7.8c-4.3,0-7.8,3.5-7.8,7.8   c0,2.2,0.9,4.1,2.3,5.6H7.8c-2.5,0-4.4,2-4.4,4.4v15.6c0,1.6,0.9,3.1,2.2,3.8v0.6H1.2v15.6h6.7v4.4c0,1.2,1,2.2,2.2,2.2h11.1   c1.2,0,2.2-1,2.2-2.2v-20H21.2z M10.1,21.2c0-3.1,2.5-5.6,5.6-5.6c3.1,0,5.6,2.5,5.6,5.6c0,3.1-2.5,5.6-5.6,5.6   C12.6,26.8,10.1,24.3,10.1,21.2 M3.4,53.5h6.7v11.1H3.4V53.5z"/>
	<polygon class="st1" points="31.7,31.3 35,31.3 34.5,33.5 32.2,33.5  "/>
	<polygon class="st1" points="32.2,35.7 34.5,35.7 34.5,44.6 33.4,45.7 32.2,44.6  "/>
	<polygon class="st1" points="13.9,31.3 17.2,31.3 16.6,33.5 14.4,33.5  "/>
	<polygon class="st1" points="14.4,35.7 16.6,35.7 16.6,44.6 15.5,45.7 14.4,44.6  "/>
</g>
</svg>