<?xml version="1.0" encoding="utf-8"?>
<!-- Generator: Adobe Illustrator 21.0.0, SVG Export Plug-In . SVG Version: 6.00 Build 0)  -->
<svg version="1.1" id="Layer_1" xmlns="http://www.w3.org/2000/svg" xmlns:xlink="http://www.w3.org/1999/xlink" x="0px" y="0px"
	 viewBox="0 0 191 191" enable-background="new 0 0 191 191" xml:space="preserve">
<g>
	<g>
		<circle fill="#F2F2F2" cx="95.5" cy="95.5" r="95.5"/>
	</g>
	<g>
		<linearGradient id="SVGID_1_" gradientUnits="userSpaceOnUse" x1="34.6055" y1="82.3524" x2="171.6055" y2="129.3524">
			<stop  offset="0" style="stop-color:#662D8F"/>
			<stop  offset="1" style="stop-color:#0071BA"/>
		</linearGradient>
		<path fill="url(#SVGID_1_)" d="M150,137.7h-3.5V83.2c0-4.9-3.9-8.8-8.8-8.8h-8.8h-14.1h-1.8V54.5l7-2.3v8.4
			c-2.1,0.7-3.5,2.6-3.5,4.9c0,3,2.3,5.3,5.3,5.3s5.3-2.3,5.3-5.3c0-2.3-1.4-4.2-3.5-4.9V49.8c0-0.7-0.5-1.4-1.2-1.6L96,39.4
			c-0.4-0.2-0.7-0.2-1.1,0l-26.4,8.8c-0.7,0.2-1.2,0.9-1.2,1.6s0.5,1.4,1.2,1.6l9.3,3.2v19.9H53.3c-4.9,0-8.8,3.9-8.8,8.8v54.5H41
			c-1.1,0-1.8,0.7-1.8,1.8c0,6.9,5.4,12.3,12.3,12.3h87.9c6.9,0,12.3-5.4,12.3-12.3C151.8,138.4,151,137.7,150,137.7z M114,97.1
			c0.5,0.4,1.2,0.4,1.8,0l6.3-3.2l6.3,3.2c0,0.2,0.2,0.2,0.5,0.2s0.7,0,0.9-0.2c0.5-0.4,0.9-0.9,0.9-1.6V84.9h5.3v45.7H55.1V84.9h58
			v10.5C113.1,96,113.4,96.7,114,97.1z M127.1,77.9v14.8l-4.6-2.3c-0.2-0.2-0.4-0.2-0.7-0.2s-0.5,0-0.7,0.2l-4.6,2.3V77.9H127.1z
			 M121.9,67.4c-1.1,0-1.8-0.7-1.8-1.8s0.7-1.8,1.8-1.8s1.8,0.7,1.8,1.8S122.9,67.4,121.9,67.4z M95.5,42.9l20.7,6.9l-20.7,6.9
			l-20.7-6.9L95.5,42.9z M81.4,55.8L95,60.3c0.2,0,0.4,0.2,0.5,0.2s0.4,0,0.5-0.2l13.5-4.6v18.6H81.4V55.8z M48,83.2
			c0-3,2.3-5.3,5.3-5.3h59.8v3.5H53.3c-1.1,0-1.8,0.7-1.8,1.8v49.2c0,1.1,0.7,1.8,1.8,1.8h84.4c1.1,0,1.8-0.7,1.8-1.8V83.2
			c0-1.1-0.7-1.8-1.8-1.8h-7v-3.5h7c3,0,5.3,2.3,5.3,5.3v54.5H48V83.2z M139.4,148.2H51.6c-4.2,0-7.7-3-8.6-7h3.3h98.4h3.3
			C147.2,145.2,143.7,148.2,139.4,148.2z"/>
	</g>
	<path fill="#F48600" d="M78.8,114.6c0.2,0.2,0.5,0.2,0.9,0.2s0.5,0,0.7-0.2l10.5-5.3c0.5-0.4,1.1-0.9,1.1-1.6
		c0-0.7-0.4-1.2-1.1-1.6l-10.5-5.3c-0.5-0.4-1.2-0.2-1.8,0c-0.4,0.4-0.7,1.1-0.7,1.6V113C77.9,113.5,78.3,114.2,78.8,114.6z
		 M81.4,105.2l4.9,2.5l-4.9,2.5V105.2z"/>
	<path fill="#F48600" d="M106,91.9H62.1c-1.1,0-1.8,0.7-1.8,1.8v28.1c0,1.1,0.7,1.8,1.8,1.8H106c1.1,0,1.8-0.7,1.8-1.8V93.6
		C107.8,92.6,107.1,91.9,106,91.9z M104.3,120H63.9V95.4h40.4V120z"/>
</g>
</svg>
