<?xml version="1.0" encoding="utf-8"?>
<!-- Generator: Adobe Illustrator 21.0.0, SVG Export Plug-In . SVG Version: 6.00 Build 0)  -->
<svg version="1.1" id="Layer_1" xmlns="http://www.w3.org/2000/svg" xmlns:xlink="http://www.w3.org/1999/xlink" x="0px" y="0px"
	 viewBox="0 0 24 24" style="enable-background:new 0 0 24 24;" xml:space="preserve">
<style type="text/css">
	.st0{fill:url(#SVGID_1_);}
	.st1{fill:#FFFFFF;}
</style>
<g>
	<linearGradient id="SVGID_1_" gradientUnits="userSpaceOnUse" x1="2.9555" y1="20.3428" x2="20.8016" y2="3.8813">
		<stop  offset="0" style="stop-color:#662D91"/>
		<stop  offset="1" style="stop-color:#0071BC"/>
	</linearGradient>
	<circle class="st0" cx="12" cy="12" r="12"/>
</g>
<path class="st1" d="M12,6.519c-3.025,0-5.481,2.455-5.481,5.481S8.975,17.481,12,17.481s5.481-2.455,5.481-5.481
	S15.025,6.519,12,6.519z M11.452,16.346C9.287,16.078,7.615,14.236,7.615,12c0-0.34,0.044-0.663,0.115-0.981l2.625,2.625v0.548
	c0,0.603,0.493,1.096,1.096,1.096V16.346z M15.234,14.954c-0.143-0.444-0.548-0.762-1.041-0.762h-0.548v-1.644
	c0-0.301-0.247-0.548-0.548-0.548H9.808v-1.096h1.096c0.301,0,0.548-0.247,0.548-0.548V9.26h1.096c0.603,0,1.096-0.493,1.096-1.096
	V7.939c1.606,0.652,2.74,2.225,2.74,4.061C16.385,13.14,15.946,14.176,15.234,14.954z"/>
</svg>
