<?xml version="1.0" encoding="utf-8"?>
<!-- Generator: Adobe Illustrator 21.0.0, SVG Export Plug-In . SVG Version: 6.00 Build 0)  -->
<svg version="1.1" id="Layer_1" xmlns="http://www.w3.org/2000/svg" xmlns:xlink="http://www.w3.org/1999/xlink" x="0px" y="0px"
	 viewBox="0 0 50 50" enable-background="new 0 0 50 50" xml:space="preserve">
<path fill="#f58700" d="M42,5.9H31.8c-0.6-3.1-3.3-5.4-6.6-5.4c-3.2,0-6,2.3-6.6,5.4H8c-2.7,0-4.8,2.2-4.8,4.8v34c0,2.7,2.2,4.8,4.8,4.8h34
	c2.7,0,4.8-2.2,4.8-4.8v-34C46.8,8,44.7,5.9,42,5.9z M25.3,3c2.1,0,3.8,1.7,3.8,3.8c0,2.1-1.7,3.8-3.8,3.8c-2.1,0-3.8-1.7-3.8-3.8
	C21.5,4.7,23.2,3,25.3,3z M35.9,33.5l-9,8.6c-0.5,0.5-1.2,0.8-1.9,0.8c-0.7,0-1.4-0.3-1.9-0.8l-9-8.6c-1.1-1-1.1-2.7,0-3.7
	c1.1-1,2.8-1,3.9,0l4.3,4.1V18.7c0-1.5,1.2-2.6,2.7-2.6c1.5,0,2.7,1.2,2.7,2.6v15.2l4.3-4.1c1.1-1,2.8-1,3.9,0
	C37,30.8,37,32.5,35.9,33.5z"/>
</svg>
