<?xml version="1.0" encoding="utf-8"?>
<!-- Generator: Adobe Illustrator 21.0.0, SVG Export Plug-In . SVG Version: 6.00 Build 0)  -->
<svg version="1.1" id="Layer_1" xmlns="http://www.w3.org/2000/svg" xmlns:xlink="http://www.w3.org/1999/xlink" x="0px" y="0px"
	 viewBox="0 0 24 24" style="enable-background:new 0 0 24 24;" xml:space="preserve">
<style type="text/css">
	.st0{fill:url(#SVGID_1_);}
	.st1{fill:#F48600;}
</style>
<g>
	<g>
		<g>
			<linearGradient id="SVGID_1_" gradientUnits="userSpaceOnUse" x1="-0.493" y1="12" x2="24.0143" y2="12">
				<stop  offset="0" style="stop-color:#662D8F"/>
				<stop  offset="1" style="stop-color:#0071BA"/>
			</linearGradient>
			<path class="st0" d="M21.787,23.406C21.263,23.93,20.754,24,20.1,24H2.561c-1.113,0-2.02-0.909-2.02-2.02V8.69
				c0-0.524,0-0.871,0.541-1.239c0.292-0.199,0.685-0.322,1.113-0.322h2.128V0c4.757,0,9.514,0,14.27,0v7.174
				c0.703,0.098,1.151,0.342,1.445,0.662c0.292,0.315,0.421,0.677,0.496,1.042c0.488,0.043,0.927,0.257,1.254,0.584
				c0.498,0.499,0.592,0.995,0.592,1.629v2.037c0.448,0.128,0.7,0.516,0.7,0.972c0.237,0.179,0.378,0.454,0.378,0.753v3.105
				c0,0.259-0.106,0.496-0.277,0.667c-0.171,0.171-0.408,0.277-0.667,0.277h-0.131v2.833c0,0.65-0.07,1.146-0.592,1.664
				L21.787,23.406z M4.321,7.884H2.193c-0.274,0-0.519,0.073-0.69,0.189c-0.277,0.189-0.277,0.413,0,0.602
				c0.174,0.118,0.418,0.189,0.69,0.191l2.128,0.003V7.887V7.884z M5.077,8.866h0.501V2.563c0-0.209,0.169-0.378,0.378-0.378
				c0.191,0,0.511-0.415,0.509-0.567c0-0.209,0.169-0.378,0.378-0.378h1.272V0.755H5.077V8.866z M6.333,8.866l1.783,0.003V1.997
				H7.124C6.975,2.352,6.696,2.709,6.336,2.863v6.006L6.333,8.866z M8.871,8.869h0.501V2.594c0-0.247,0.176-0.358,0.398-0.378
				c0.222-0.025,0.466-0.403,0.491-0.612c0.023-0.186,0.181-0.332,0.375-0.332c1.813,0,3.624,0,5.436,0
				c0.189,0,0.345,0.138,0.373,0.322c0.038,0.257,0.262,0.602,0.539,0.624c0.171,0.015,0.35,0.179,0.352,0.378v6.283h0.501V8.846
				V0.758H8.871v8.113V8.869z M10.128,8.869h0.622c-0.005-0.063-0.008-0.126-0.008-0.189c0-0.718,0.292-1.365,0.766-1.836
				c0.473-0.471,1.125-0.76,1.846-0.76c0.72,0,1.372,0.29,1.846,0.76c0.473,0.471,0.765,1.121,0.765,1.836
				c0,0.065-0.003,0.128-0.007,0.194h0.622V2.891c-0.363-0.154-0.64-0.511-0.788-0.866c-1.627,0-3.251,0-4.878,0
				c-0.149,0.355-0.428,0.713-0.788,0.866v5.975L10.128,8.869z M11.508,8.869l3.694,0.003c0.007-0.063,0.01-0.126,0.01-0.194
				c0-0.509-0.206-0.969-0.541-1.302c-0.335-0.332-0.801-0.539-1.314-0.539c-0.514,0-0.98,0.206-1.315,0.539
				C11.707,7.708,11.5,8.169,11.5,8.677c0,0.065,0.003,0.128,0.01,0.191L11.508,8.869z M18.594,8.874h1.166
				c-0.056-0.199-0.136-0.385-0.272-0.534c-0.173-0.189-0.451-0.337-0.894-0.41L18.594,8.874z M18.516,15.685
				c0.403,0,0.73,0.322,0.73,0.72s-0.327,0.72-0.73,0.72c-0.403,0-0.73-0.322-0.73-0.72S18.113,15.685,18.516,15.685z M1.297,9.415
				v12.558c0,0.695,0.569,1.264,1.264,1.264H20.11c0.446,0,0.77,0,1.143-0.373c0.358-0.358,0.373-0.692,0.373-1.126v-2.838h-0.504
				h-0.755h-3.933c-0.519,0-0.944-0.425-0.944-0.944v-3.105c0-0.521,0.426-0.944,0.944-0.944h5.192v-2.856
				c0-0.408-0.045-0.73-0.373-1.058c-0.196-0.196-0.456-0.33-0.743-0.365L2.193,9.614c-0.33,0-0.64-0.073-0.899-0.196L1.297,9.415z
				 M22.512,14.66h-6.076c-0.103,0-0.189,0.086-0.189,0.189v3.105c0,0.103,0.086,0.189,0.189,0.189h6.076
				c0.05,0,0.098-0.023,0.133-0.056c0.035-0.035,0.055-0.083,0.055-0.133v-3.105C22.701,14.746,22.615,14.66,22.512,14.66z"/>
		</g>
	</g>
	<rect x="2.095" y="21.978" class="st1" width="0.755" height="0.755"/>
	<rect x="3.606" y="21.978" class="st1" width="0.755" height="0.755"/>
	<rect x="5.117" y="21.978" class="st1" width="0.755" height="0.755"/>
	<rect x="6.628" y="21.978" class="st1" width="0.755" height="0.755"/>
	<rect x="8.139" y="21.978" class="st1" width="0.755" height="0.755"/>
	<rect x="9.649" y="21.978" class="st1" width="0.755" height="0.755"/>
	<rect x="11.16" y="21.978" class="st1" width="0.755" height="0.755"/>
	<rect x="12.671" y="21.978" class="st1" width="0.755" height="0.755"/>
	<rect x="14.182" y="21.978" class="st1" width="0.755" height="0.755"/>
	<rect x="15.693" y="21.978" class="st1" width="0.755" height="0.755"/>
	<rect x="17.204" y="21.978" class="st1" width="0.755" height="0.755"/>
	<rect x="18.715" y="21.978" class="st1" width="0.755" height="0.755"/>
	<path class="st1" d="M20.276,22.723c0.426-0.05,0.783-0.358,0.846-0.791l-0.748-0.1l0,0c-0.017,0.103-0.118,0.121-0.201,0.143
		L20.276,22.723z"/>
	<rect x="20.369" y="20.374" class="st1" width="0.755" height="0.755"/>
	<rect x="20.369" y="19.174" class="st1" width="0.755" height="0.755"/>
	<rect x="20.369" y="12.82" class="st1" width="0.755" height="0.755"/>
	<path class="st1" d="M21.124,12.064c0-0.262,0-0.531-0.033-0.793l-0.003-0.013l-0.748,0.101c0.032,0.222,0.027,0.478,0.027,0.705
		H21.124z"/>
	<path class="st1" d="M20.621,10.339c-0.299-0.214-0.594-0.214-0.947-0.214v0.755c0.156,0,0.378-0.018,0.509,0.076l0.438-0.614
		L20.621,10.339z"/>
	<rect x="18.163" y="10.125" class="st1" width="0.755" height="0.755"/>
	<rect x="16.652" y="10.125" class="st1" width="0.755" height="0.755"/>
	<rect x="15.141" y="10.125" class="st1" width="0.755" height="0.755"/>
	<rect x="13.631" y="10.125" class="st1" width="0.755" height="0.755"/>
	<rect x="12.12" y="10.125" class="st1" width="0.755" height="0.755"/>
	<rect x="10.609" y="10.125" class="st1" width="0.755" height="0.755"/>
	<rect x="9.098" y="10.125" class="st1" width="0.755" height="0.755"/>
	<rect x="7.587" y="10.125" class="st1" width="0.755" height="0.755"/>
	<rect x="6.076" y="10.125" class="st1" width="0.755" height="0.755"/>
	<rect x="4.565" y="10.125" class="st1" width="0.755" height="0.755"/>
	<rect x="3.055" y="10.125" class="st1" width="0.755" height="0.755"/>
	<polygon class="st1" points="2.299,10.125 1.592,10.12 1.581,10.868 2.299,10.883 2.299,10.128 	"/>
</g>
</svg>
