<?xml version="1.0" encoding="UTF-8"?>
<!-- Generator: Adobe Illustrator 21.0.0, SVG Export Plug-In . SVG Version: 6.00 Build 0)  -->
<svg version="1.1" id="Layer_1" xmlns="http://www.w3.org/2000/svg" xmlns:xlink="http://www.w3.org/1999/xlink" x="0px" y="0px" viewBox="0 0 100 84.3" style="enable-background:new 0 0 100 84.3;" xml:space="preserve">
<style type="text/css">
	.st0{fill:#F2F2F2;}
	.st1{fill:#E77A14;}
	.st2{fill:#999999;}
</style>
<g>
	<path class="st0" d="M97.7,42.1c0,23.3-18.9,42.2-42.1,42.2c-23.3,0-42.2-18.9-42.2-42.2C13.4,18.9,32.2,0,55.5,0   C78.8,0,97.7,18.9,97.7,42.1"/>
	<path class="st1" d="M12.6,32.5c-0.6,0-1.2-0.5-1.2-1.2v-9.7c0-0.6,0.5-1.2,1.2-1.2h11.8c0.6,0,1.2,0.5,1.2,1.2v9.7   c0,0.6-0.5,1.2-1.2,1.2H12.6z M13.7,30.2h9.5v-7.4h-9.5V30.2z"/>
	<path class="st2" d="M51.1,73.7c-6.4,0-11.6-7-11.6-15.5c0-7.7,4.3-14.3,10-15.4l0.5-0.1V31.2H34.6v23.4c0,0.6-0.5,1.2-1.2,1.2H8.1   c-3.2,0-5.7-2.6-5.7-5.7V19c0-3.2,2.6-5.7,5.7-5.7h25.4c0.6,0,1.2,0.5,1.2,1.2v14.5h16.5c0.6,0,1.2,0.5,1.2,1.2v12.7l0.5,0.1   c5.7,1.1,10,7.7,10,15.4C62.7,66.7,57.5,73.7,51.1,73.7 M42,55.8c-0.1,0.9-0.1,1.6-0.1,2.4c0,7.3,4.2,13.2,9.3,13.2   c1.9,0,3.8-0.8,5.4-2.4c2.5-2.5,3.9-6.5,3.9-10.8c0-0.8-0.1-1.6-0.2-2.4l-0.1-0.5H42L42,55.8z M8.1,46.7c-1.9,0-3.4,1.5-3.4,3.4   c0,1.9,1.5,3.4,3.4,3.4h24.2v-6.8H8.1z M51.1,48.2c0.6,0,1.2,0.5,1.2,1.2V53h7.4l-0.3-0.7c-1.6-4.5-4.8-7.3-8.3-7.3   c-3.5,0-6.7,2.8-8.3,7.3L42.5,53H50v-3.7C50,48.7,50.5,48.2,51.1,48.2 M8.1,15.6c-1.9,0-3.4,1.5-3.4,3.4v26.4L5.5,45   c0.8-0.4,1.7-0.6,2.6-0.6h24.2V15.6H8.1z"/>
</g>
</svg>