<?xml version="1.0" encoding="utf-8"?>
<!-- Generator: Adobe Illustrator 15.1.0, SVG Export Plug-In . SVG Version: 6.00 Build 0)  -->
<!DOCTYPE svg PUBLIC "-//W3C//DTD SVG 1.1//EN" "http://www.w3.org/Graphics/SVG/1.1/DTD/svg11.dtd">
<svg version="1.1" id="Layer_1" xmlns="http://www.w3.org/2000/svg" xmlns:xlink="http://www.w3.org/1999/xlink" x="0px" y="0px"
   width="68px" height="68.5px" viewBox="41 5.5 68 68.5" enable-background="new 41 5.5 68 68.5" xml:space="preserve">
<path class="ldt-fade-in" fill="#F58700" stroke="#F58700" stroke-width="3" stroke-miterlimit="10" d="M75,8.167C57.431,8.167,43.167,22.431,43.167,40
  c0,17.569,14.264,31.832,31.833,31.832c17.569,0,31.832-14.263,31.832-31.832C106.832,22.431,92.569,8.167,75,8.167z M75,69.384
  c-16.222,0-29.384-13.161-29.384-29.384c0-16.222,13.162-29.384,29.384-29.384c16.223,0,29.384,13.162,29.384,29.384
  C104.384,56.223,91.223,69.384,75,69.384z"/>
<path class="warn-fade-in" fill="#F58700" stroke="#F58700" stroke-width="2" stroke-miterlimit="10" d="M77.026,46.895c0,1.119-0.906,2.026-2.025,2.026
  l0,0c-1.12,0-2.027-0.907-2.027-2.026V21.845c0-1.12,0.907-2.027,2.027-2.027l0,0c1.119,0,2.025,0.907,2.025,2.027V46.895z"/>
<circle class="warn-fade-in" fill="#F58700" stroke="#F58700" stroke-width="2" stroke-miterlimit="10" cx="75" cy="57.196" r="2.169"/>


<style type="text/css" style=" animation-duration: 0.8s; animation-delay: 1.23077s; animation-direction: normal;">
  path,ellipse,circle,rect,polygon,polyline,line { stroke-width: 3.8; }
@keyframes ldt-fade-in {
  0% {
    opacity: 0;
  }
  100% {
    opacity: 1;
  }
}
@-webkit-keyframes ldt-fade-in {
  0% {
    opacity: 0;
  }
  100% {
    opacity: 1;
  }
}
@keyframes warn-fade-in {
  0% {
    opacity: 0;
  }
  100% {
    opacity: 1;
  }
}
@-webkit-keyframes warn-fade-in {
  0% {
    opacity: 0;
  }
  100% {
    opacity: 1;
  }
}
.ldt-fade-in {
  opacity: 0;
  -webkit-animation: ldt-fade-in 1s forwards;
  animation: ldt-fade-in 0.8s forwards;
  animation-timing-function: cubic-bezier(0, 1, 1, 1);
}
.warn-fade-in{
  opacity: 0;
  -webkit-animation: ldt-fade-in 1.5s forwards;
  animation: ldt-fade-in 1.2s forwards;
  animation-timing-function: cubic-bezier(0, 1, 0.2, 1);
}
</style>


</svg>
