<?xml version="1.0" encoding="utf-8"?>
<!-- Generator: Adobe Illustrator 21.0.0, SVG Export Plug-In . SVG Version: 6.00 Build 0)  -->
<svg version="1.1" id="Layer_1" xmlns="http://www.w3.org/2000/svg" xmlns:xlink="http://www.w3.org/1999/xlink" x="0px" y="0px"
	 viewBox="0 0 191 191" enable-background="new 0 0 191 191" xml:space="preserve">
<g>
	<g>
		<circle fill="#F2F2F2" cx="95.5" cy="95.5" r="95.5"/>
	</g>
	<g>
		<linearGradient id="SVGID_1_" gradientUnits="userSpaceOnUse" x1="37.6042" y1="85.75" x2="152.2709" y2="85.75">
			<stop  offset="0" style="stop-color:#662D8F"/>
			<stop  offset="1" style="stop-color:#0071BA"/>
		</linearGradient>
		<path fill="url(#SVGID_1_)" d="M142.2,61.3h-1.8h-1.8v-1.8c2.1-1.6,3.5-4.2,3.5-7v-1.8h1.8v-3.5h-3.5c-1,0-1.8,0.7-1.8,1.8v3.5
			c0,1.9-1,3.5-2.6,4.5c-0.5,0.4-0.9,0.9-0.9,1.6V63c0,1.1,0.7,1.8,1.8,1.8h1.1l-4.6,12.4l-4.5-12.4h1c1.1,0,1.8-0.7,1.8-1.8v-4.5
			c0-0.7-0.3-1.2-0.9-1.6c-1.6-0.9-2.6-2.5-2.6-4.4v-6.7c1.6,0.9,3.3,1.4,5.3,1.4h5.3c1.1,0,1.8-0.7,1.8-1.8
			c0-5.8-4.7-10.5-10.5-10.5h-5.2c-1,0-1.8,0.7-1.8,1.8c0,2.1,0.7,4.2,1.8,5.8v10c0,2.8,1.4,5.3,3.5,7v1.8h-1.7h-1.8H98.4h-5.3V38.5
			h3.5V35h-3.5H42.4h-3.5v3.5h3.5V77h-3.5v3.5h3.5h50.8h3.5V77h-3.5V64.8h3.5V70c0,1.1,0.7,1.8,1.8,1.8h19.3v21
			c-5.8,0-10.5,4.7-10.5,10.5s4.7,10.5,10.5,10.5v-3.5c-3.9,0-7-3.2-7-7s3.1-7,7-7h1.8h1.8h1.8v38.5c0,1.1,0.7,1.8,1.8,1.8h12.2
			c4.9,0,8.8-3.9,8.8-8.8V96.3h3.5c1.1,0,1.8-0.7,1.8-1.8V70C150.9,65.1,147.1,61.3,142.2,61.3z M89.7,77H45.9V38.5h43.8v22.8v3.5
			V77z M129.9,38.5c3.3,0,6,2.3,6.8,5.3h-3.3c-3.3,0-5.9-2.3-6.8-5.3H129.9z M142.2,127.8c0,3-2.3,5.3-5.3,5.3h-1.8v-28h-3.5v28
			h-5.2V96.3h15.7V127.8z M147.4,92.8h-3.5h-19.2h-3.5V70c0-1.1-0.7-1.8-1.8-1.8h-19.3v-3.5h24.5h0.5l6.7,18
			c0.2,0.7,0.9,1.2,1.6,1.2c0.7,0,1.4-0.5,1.6-1.2l6.6-18h0.5c3,0,5.3,2.3,5.3,5.3V92.8z"/>
	</g>
	<g>
		<linearGradient id="SVGID_2_" gradientUnits="userSpaceOnUse" x1="37.6042" y1="122.5" x2="152.2709" y2="122.5">
			<stop  offset="0" style="stop-color:#662D8F"/>
			<stop  offset="1" style="stop-color:#0071BA"/>
		</linearGradient>
		<path fill="url(#SVGID_2_)" d="M59.9,112c-5.8,0-10.5,4.7-10.5,10.5c0,5.8,4.7,10.5,10.5,10.5s10.5-4.7,10.5-10.5
			C70.4,116.7,65.7,112,59.9,112z M59.9,129.5c-3.9,0-7-3.2-7-7s3.1-7,7-7s7,3.2,7,7S63.8,129.5,59.9,129.5z"/>
	</g>
	<g>
		<linearGradient id="SVGID_3_" gradientUnits="userSpaceOnUse" x1="37.6042" y1="122.5" x2="152.2709" y2="122.5">
			<stop  offset="0" style="stop-color:#662D8F"/>
			<stop  offset="1" style="stop-color:#0071BA"/>
		</linearGradient>
		<path fill="url(#SVGID_3_)" d="M98.4,133c5.8,0,10.5-4.7,10.5-10.5c0-5.8-4.7-10.5-10.5-10.5c-5.8,0-10.5,4.7-10.5,10.5
			C87.9,128.3,92.7,133,98.4,133z M98.4,115.5c3.8,0,7,3.2,7,7s-3.2,7-7,7c-3.9,0-7-3.2-7-7S94.6,115.5,98.4,115.5z"/>
	</g>
	<g>
		<linearGradient id="SVGID_4_" gradientUnits="userSpaceOnUse" x1="37.6042" y1="103.25" x2="152.2709" y2="103.25">
			<stop  offset="0" style="stop-color:#662D8F"/>
			<stop  offset="1" style="stop-color:#0071BA"/>
		</linearGradient>
		<path fill="url(#SVGID_4_)" d="M79.2,92.8c-5.8,0-10.5,4.7-10.5,10.5s4.7,10.5,10.5,10.5c5.8,0,10.5-4.7,10.5-10.5
			S85,92.8,79.2,92.8z M79.2,110.3c-3.9,0-7-3.2-7-7s3.1-7,7-7c3.8,0,7,3.2,7,7S83,110.3,79.2,110.3z"/>
	</g>
	<g>
		<linearGradient id="SVGID_5_" gradientUnits="userSpaceOnUse" x1="37.6042" y1="103.25" x2="152.2709" y2="103.25">
			<stop  offset="0" style="stop-color:#662D8F"/>
			<stop  offset="1" style="stop-color:#0071BA"/>
		</linearGradient>
		<path fill="url(#SVGID_5_)" d="M49.4,103.3c0-5.8-4.7-10.5-10.5-10.5v3.5c3.8,0,7,3.2,7,7s-3.2,7-7,7v3.5
			C44.7,113.8,49.4,109,49.4,103.3z"/>
	</g>
	<g>
		<linearGradient id="SVGID_6_" gradientUnits="userSpaceOnUse" x1="37.6042" y1="141.75" x2="152.2709" y2="141.75">
			<stop  offset="0" style="stop-color:#662D8F"/>
			<stop  offset="1" style="stop-color:#0071BA"/>
		</linearGradient>
		<path fill="url(#SVGID_6_)" d="M111.9,137c-0.3-0.3-0.7-0.5-1.2-0.5H86.2c-0.5,0-0.9,0.2-1.2,0.5l-5.8,5.8l-5.8-5.8
			c-0.3-0.3-0.7-0.5-1.2-0.5H47.7c-0.5,0-0.9,0.2-1.2,0.5l-7,7c-0.3,0.4-0.5,0.7-0.5,1.2v1.8h3.5v-1.1l6-5.9h23.1l5.9,5.9v1.1h3.5
			v-1.1l5.9-5.9H110l6,5.9v1.1h3.5v-1.8c0-0.5-0.2-0.9-0.5-1.2L111.9,137z"/>
	</g>
	<path fill="#F48600" d="M63.4,42H51.2c-1,0-1.8,0.7-1.8,1.8v14c0,1,0.7,1.8,1.8,1.8h12.3c1.1,0,1.8-0.7,1.8-1.8v-14
		C65.2,42.7,64.5,42,63.4,42z M61.7,56h-8.8V45.5h8.8V56z"/>
	<rect x="68.7" y="42" fill="#F48600" width="17.5" height="3.5"/>
	<rect x="68.7" y="49" fill="#F48600" width="7" height="3.5"/>
	<rect x="79.2" y="49" fill="#F48600" width="7" height="3.5"/>
	<rect x="68.7" y="56" fill="#F48600" width="3.5" height="3.5"/>
	<rect x="49.4" y="63" fill="#F48600" width="8.8" height="3.5"/>
	<rect x="61.7" y="63" fill="#F48600" width="3.5" height="3.5"/>
	<rect x="68.7" y="63" fill="#F48600" width="3.5" height="3.5"/>
	<rect x="75.7" y="63" fill="#F48600" width="3.5" height="3.5"/>
	<rect x="82.7" y="63" fill="#F48600" width="3.5" height="3.5"/>
	<rect x="49.4" y="70" fill="#F48600" width="3.5" height="3.5"/>
	<rect x="56.4" y="70" fill="#F48600" width="8.8" height="3.5"/>
	<rect x="68.7" y="70" fill="#F48600" width="3.5" height="3.5"/>
	<rect x="75.7" y="70" fill="#F48600" width="3.5" height="3.5"/>
	<rect x="82.7" y="70" fill="#F48600" width="3.5" height="3.5"/>
	<rect x="75.7" y="56" fill="#F48600" width="10.5" height="3.5"/>
</g>
</svg>
