<?xml version="1.0" encoding="utf-8"?>
<!-- Generator: Adobe Illustrator 21.0.0, SVG Export Plug-In . SVG Version: 6.00 Build 0)  -->
<svg version="1.1" id="Layer_1" xmlns="http://www.w3.org/2000/svg" xmlns:xlink="http://www.w3.org/1999/xlink" x="0px" y="0px"
	 viewBox="0 0 24 24" style="enable-background:new 0 0 24 24;" xml:space="preserve">
<style type="text/css">
	.st0{fill:#F48600;}
	.st1{fill:url(#SVGID_1_);}
	.st2{fill:url(#SVGID_2_);}
	.st3{fill:url(#SVGID_3_);}
	.st4{fill:url(#SVGID_4_);}
	.st5{fill:url(#SVGID_5_);}
	.st6{fill:url(#SVGID_6_);}
	.st7{fill:url(#SVGID_7_);}
</style>
<g>
	<g>
		<path class="st0" d="M10.95,16.346l-0.019-0.594c0.307-0.009,0.612-0.057,0.905-0.14l0.163,0.572
			C11.658,16.28,11.306,16.335,10.95,16.346z M10.156,16.298c-0.352-0.054-0.696-0.151-1.022-0.289l0.232-0.548
			c0.281,0.119,0.577,0.202,0.88,0.249L10.156,16.298z M12.743,15.897l-0.265-0.533c0.273-0.136,0.53-0.305,0.765-0.504l0.385,0.453
			C13.357,15.543,13.059,15.739,12.743,15.897z M8.431,15.634c-0.296-0.195-0.568-0.426-0.809-0.687l0.437-0.403
			c0.207,0.225,0.443,0.425,0.698,0.593L8.431,15.634z M14.185,14.744l-0.461-0.376c0.194-0.238,0.358-0.498,0.489-0.775
			l0.538,0.253C14.6,14.167,14.409,14.469,14.185,14.744z M7.138,14.315c-0.189-0.301-0.341-0.624-0.452-0.96l0.565-0.185
			c0.095,0.29,0.226,0.569,0.39,0.829L7.138,14.315z M15.021,13.097l-0.575-0.151c0.077-0.294,0.117-0.599,0.12-0.907l0.594,0.006
			C15.158,12.402,15.111,12.756,15.021,13.097z M6.509,12.578c-0.025-0.19-0.038-0.383-0.038-0.576c0-0.162,0.009-0.325,0.027-0.484
			l0.591,0.066c-0.015,0.138-0.023,0.279-0.023,0.418c0,0.167,0.011,0.334,0.033,0.498L6.509,12.578z M14.51,11.355
			c-0.053-0.299-0.144-0.595-0.268-0.878l0.544-0.239c0.144,0.327,0.248,0.667,0.31,1.013L14.51,11.355z M7.227,10.91l-0.569-0.173
			c0.103-0.34,0.248-0.666,0.431-0.97l0.51,0.306C7.441,10.336,7.316,10.618,7.227,10.91z M8.005,9.518L7.56,9.125
			c0.235-0.266,0.502-0.503,0.793-0.704L8.691,8.91C8.439,9.083,8.209,9.288,8.005,9.518z M13.176,9.097
			c-0.238-0.195-0.499-0.36-0.774-0.492l0.255-0.537c0.319,0.152,0.62,0.343,0.895,0.568L13.176,9.097z M9.29,8.573L9.047,8.03
			c0.325-0.145,0.666-0.25,1.015-0.311l0.102,0.586C9.863,8.358,9.569,8.447,9.29,8.573z M11.757,8.37
			c-0.295-0.077-0.6-0.118-0.907-0.122l0.006-0.594c0.356,0.003,0.71,0.051,1.052,0.141L11.757,8.37z"/>
		<g>
			<g>
				<linearGradient id="SVGID_1_" gradientUnits="userSpaceOnUse" x1="1.8047" y1="17.9767" x2="21.8895" y2="4.669">
					<stop  offset="0" style="stop-color:#662D8F"/>
					<stop  offset="1" style="stop-color:#0071BA"/>
				</linearGradient>
				<path class="st1" d="M10.814,22.815c-6.18,0-11.165-5.209-10.795-11.467C0.36,5.598,5.25,1.085,11.01,1.187
					c2.316,0.041,4.508,0.81,6.362,2.233c0.065,0.05,0.076,0.144,0.025,0.208L17.21,3.865c-0.049,0.063-0.139,0.073-0.203,0.024
					c-1.844-1.414-4.041-2.144-6.355-2.109C5.339,1.863,0.924,6.085,0.613,11.39C0.266,17.301,4.976,22.22,10.814,22.22
					c5.635,0,10.219-4.584,10.219-10.218c0-0.986-0.149-1.974-0.442-2.938c-0.023-0.076,0.018-0.157,0.094-0.181l0.288-0.092
					c0.078-0.025,0.162,0.019,0.186,0.097c0.311,1.021,0.468,2.068,0.468,3.114C21.628,17.964,16.777,22.815,10.814,22.815z"/>
			</g>
			<g>
				<linearGradient id="SVGID_2_" gradientUnits="userSpaceOnUse" x1="1.743" y1="17.6943" x2="21.6976" y2="4.4728">
					<stop  offset="0" style="stop-color:#662D8F"/>
					<stop  offset="1" style="stop-color:#0071BA"/>
				</linearGradient>
				<path class="st2" d="M10.996,12.243l-0.166-0.253c-0.044-0.067-0.026-0.158,0.042-0.203l7.673-5.045
					c0.042-0.028,0.096-0.032,0.141-0.011l1.691,0.777c0.046,0.021,0.099,0.017,0.141-0.011L22.71,6.06
					c0.096-0.063,0.085-0.207-0.019-0.255l-1.685-0.861l-0.135-1.907c-0.003-0.115-0.131-0.182-0.227-0.119l-2.19,1.44
					c-0.042,0.028-0.067,0.075-0.066,0.126l0.044,1.864c0.001,0.05-0.024,0.098-0.066,0.126l-1.446,0.948l-0.326-0.498l1.17-0.766
					c0.042-0.028,0.067-0.075,0.066-0.126l-0.044-1.863c-0.001-0.05,0.024-0.098,0.066-0.126l3.361-2.212
					c0.096-0.063,0.224,0.004,0.227,0.119l0.123,2.496l2.352,1.267c0.104,0.048,0.115,0.192,0.019,0.255l-3.365,2.21
					c-0.042,0.028-0.096,0.032-0.141,0.011l-1.692-0.777c-0.046-0.021-0.099-0.017-0.141,0.011l-7.397,4.863
					C11.131,12.329,11.04,12.311,10.996,12.243z"/>
			</g>
			<g>
				<linearGradient id="SVGID_3_" gradientUnits="userSpaceOnUse" x1="1.8163" y1="17.9614" x2="21.9325" y2="4.6329">
					<stop  offset="0" style="stop-color:#662D8F"/>
					<stop  offset="1" style="stop-color:#0071BA"/>
				</linearGradient>
				<path class="st3" d="M10.175,20.224c-4.032-0.305-7.286-3.561-7.586-7.594c-0.36-4.833,3.469-8.88,8.225-8.88
					c2.486,0,4.822,1.126,6.407,3.089l0.206,0.255l-5.122,3.366l-0.169-0.135c-0.357-0.286-0.777-0.446-1.222-0.467
					c-1.177-0.056-2.207,0.891-2.248,2.069c-0.042,1.218,0.937,2.222,2.147,2.222c1.184,0,2.147-0.963,2.147-2.146
					c0-0.158-0.024-0.326-0.072-0.509c-0.02-0.077,0.021-0.156,0.097-0.18l0.288-0.091c0.078-0.025,0.164,0.02,0.185,0.1
					c0.173,0.644,0.108,1.168-0.163,1.751c-0.447,0.96-1.365,1.647-2.424,1.669c-1.673,0.035-3.019-1.436-2.771-3.147
					c0.175-1.205,1.16-2.165,2.369-2.313c0.67-0.082,1.317,0.076,1.863,0.449l4.214-2.769c-1.464-1.667-3.535-2.617-5.733-2.617
					c-4.399,0-7.943,3.732-7.635,8.198c0.26,3.77,3.312,6.826,7.082,7.092c4.47,0.316,8.208-3.231,8.208-7.633
					c0-1.228-0.299-2.446-0.865-3.535c-0.037-0.071-0.011-0.157,0.058-0.195l0.266-0.145c0.072-0.039,0.163-0.012,0.201,0.06
					c0.612,1.174,0.934,2.49,0.934,3.814C19.063,16.76,15.011,20.59,10.175,20.224z"/>
			</g>
		</g>
	</g>
	<g>
		<linearGradient id="SVGID_4_" gradientUnits="userSpaceOnUse" x1="1.1084" y1="16.897" x2="21.2269" y2="3.567">
			<stop  offset="0" style="stop-color:#662D8F"/>
			<stop  offset="1" style="stop-color:#0071BA"/>
		</linearGradient>
		<polygon class="st4" points="19.848,3.518 20.443,3.534 20.402,5.076 19.807,5.06 		"/>
	</g>
	<g>
		<linearGradient id="SVGID_5_" gradientUnits="userSpaceOnUse" x1="1.1665" y1="16.9846" x2="21.285" y2="3.6546">
			<stop  offset="0" style="stop-color:#662D8F"/>
			<stop  offset="1" style="stop-color:#0071BA"/>
		</linearGradient>
		<polygon class="st5" points="18.875,4.289 19.469,4.304 19.428,5.848 18.834,5.832 		"/>
	</g>
	<g>
		
			<linearGradient id="SVGID_6_" gradientUnits="userSpaceOnUse" x1="-6345.9185" y1="4432.2793" x2="-6325.7998" y2="4418.9492" gradientTransform="matrix(-0.3484 0.9373 0.9373 0.3484 -6326.9189 4397.2183)">
			<stop  offset="0" style="stop-color:#662D8F"/>
			<stop  offset="1" style="stop-color:#0071BA"/>
		</linearGradient>
		<polygon class="st6" points="21.017,6.577 20.824,7.139 19.364,6.64 19.557,6.078 		"/>
	</g>
	<g>
		
			<linearGradient id="SVGID_7_" gradientUnits="userSpaceOnUse" x1="-6345.8384" y1="4432.3765" x2="-6325.7197" y2="4419.0464" gradientTransform="matrix(-0.3484 0.9373 0.9373 0.3484 -6326.9189 4397.2183)">
			<stop  offset="0" style="stop-color:#662D8F"/>
			<stop  offset="1" style="stop-color:#0071BA"/>
		</linearGradient>
		<polygon class="st7" points="22.08,5.957 21.888,6.52 20.427,6.021 20.619,5.458 		"/>
	</g>
</g>
</svg>
