<?xml version="1.0" encoding="utf-8"?>
<!-- Generator: Adobe Illustrator 21.0.0, SVG Export Plug-In . SVG Version: 6.00 Build 0)  -->
<svg version="1.1" id="Layer_1" xmlns="http://www.w3.org/2000/svg" xmlns:xlink="http://www.w3.org/1999/xlink" x="0px" y="0px"
	 viewBox="0 0 24 12" style="enable-background:new 0 0 24 12;" xml:space="preserve">
<style type="text/css">
	.st0{opacity:0.11;}
	.st1{fill:#999999;}
	.st2{fill:#333333;}
	.st3{fill:#A6A6A6;}
	.st4{fill:#808080;}
</style>
<g>
	<g>
		<g class="st0">
			<path class="st1" d="M20.213,10.094c-2.274,0-4.387,0-7.75,0c0-2.14,1.735-3.875,3.875-3.875S20.213,7.954,20.213,10.094z"/>
		</g>
		<g class="st0">
			<path class="st1" d="M14.722,10.094c-3.183,0-6.142,0-10.85,0c0-2.996,2.429-5.425,5.425-5.425S14.722,7.098,14.722,10.094z"/>
		</g>
		<g class="st0">
			<path class="st2" d="M23.417,10.458c0.101,0,0.183-0.082,0.183-0.183v0c0-0.101-0.082-0.183-0.183-0.183H0.669
				c-0.101,0-0.183,0.082-0.183,0.183v0c0,0.101,0.082,0.183,0.183,0.183H23.417z"/>
		</g>
	</g>
	<g>
		<g>
			<path class="st3" d="M14.247,7.695h-3.298l-0.784-2.979c-0.017-0.133-0.13-0.233-0.263-0.233H8.494V4.248h1.407
				c0.25,0,0.461,0.185,0.496,0.431l0.733,2.78h2.953l0.571-1.529l0.221,0.083L14.247,7.695z"/>
		</g>
		<g>
			<path class="st4" d="M11.358,10.077c-0.281,0-0.509-0.228-0.509-0.509s0.228-0.509,0.509-0.509s0.509,0.228,0.509,0.509
				S11.638,10.077,11.358,10.077z M11.358,9.286c-0.156,0-0.283,0.127-0.283,0.283s0.127,0.283,0.283,0.283s0.283-0.127,0.283-0.283
				S11.514,9.286,11.358,9.286z"/>
		</g>
		<g>
			<g>
				<path class="st3" d="M12.098,7.168c-0.074,0-0.147-0.023-0.208-0.068c-0.076-0.056-0.126-0.138-0.141-0.231l-0.115-0.74
					c-0.03-0.193,0.103-0.373,0.295-0.403L13.19,5.53c0.093-0.014,0.187,0.008,0.263,0.064c0.076,0.056,0.126,0.138,0.141,0.231
					l0.115,0.74c0.014,0.093-0.008,0.187-0.064,0.263c-0.056,0.076-0.138,0.126-0.231,0.141l-1.259,0.195
					C12.135,7.167,12.116,7.168,12.098,7.168z M13.244,5.728c-0.008,0-0.016,0.001-0.023,0.002l-1.259,0.195
					c-0.04,0.006-0.075,0.028-0.099,0.06c-0.024,0.033-0.034,0.073-0.027,0.112l0.115,0.74c0.006,0.04,0.028,0.075,0.06,0.099
					c0.033,0.024,0.072,0.034,0.112,0.027l1.259-0.195c0.04-0.006,0.075-0.028,0.099-0.06c0.024-0.033,0.034-0.073,0.027-0.112
					l-0.115-0.74c-0.006-0.04-0.028-0.075-0.06-0.099C13.307,5.738,13.276,5.728,13.244,5.728z"/>
			</g>
			<g>
				<polygon class="st4" points="12.409,6.024 12.926,6.308 12.519,6.735 				"/>
			</g>
		</g>
		<g>
			<g>
				<path class="st3" d="M13.798,4.565l-1.286-1.14l1.663-0.201l1.306,1.071L13.798,4.565z M12.982,3.572l0.878,0.778l1.144-0.183
					l-0.892-0.732L12.982,3.572z"/>
			</g>
			<g>
				<path class="st3" d="M14.08,5.342c-0.142,0-0.314-0.027-0.488-0.077c-0.187-0.054-0.358-0.129-0.481-0.211
					c-0.191-0.128-0.212-0.239-0.194-0.311l0,0l0.237-0.823l0.194,0.056l-0.233,0.809c0.018,0.047,0.186,0.186,0.533,0.286
					c0.347,0.1,0.563,0.071,0.603,0.041l0.233-0.809l0.194,0.056l-0.237,0.823l0,0c-0.024,0.071-0.101,0.154-0.33,0.161
					C14.101,5.342,14.091,5.342,14.08,5.342z M14.249,5.118C14.249,5.118,14.249,5.118,14.249,5.118L14.249,5.118z M13.113,4.792
					C13.113,4.792,13.113,4.792,13.113,4.792L13.113,4.792z"/>
			</g>
			<g>
				
					<rect x="14.777" y="4.482" transform="matrix(0.2765 -0.961 0.961 0.2765 6.5543 17.8724)" class="st3" width="0.742" height="0.202"/>
			</g>
			<g>
				<path class="st3" d="M14.975,5.384c-0.026,0-0.051-0.004-0.077-0.011c-0.072-0.021-0.131-0.068-0.167-0.133
					c-0.036-0.065-0.045-0.141-0.024-0.212c0.043-0.148,0.198-0.234,0.346-0.191c0.148,0.043,0.234,0.198,0.191,0.346
					C15.208,5.305,15.096,5.384,14.975,5.384z M14.975,5.028c-0.013,0-0.026,0.003-0.037,0.01c-0.018,0.01-0.031,0.026-0.037,0.046
					c-0.006,0.02-0.003,0.041,0.007,0.059c0.01,0.018,0.026,0.031,0.046,0.037c0.02,0.006,0.041,0.003,0.059-0.007
					c0.018-0.01,0.031-0.026,0.037-0.046c0.006-0.02,0.003-0.041-0.007-0.059c-0.01-0.018-0.026-0.031-0.046-0.037
					C14.989,5.029,14.982,5.028,14.975,5.028z"/>
			</g>
		</g>
		<g>
			<g>
				<path class="st3" d="M11.235,5.534c-0.128,0-0.247-0.083-0.287-0.212l-0.314-1.028l0.393-0.802l0.661-0.202
					c0.158-0.048,0.326,0.041,0.374,0.199l0.417,1.365c0.048,0.158-0.041,0.326-0.199,0.374h0l-0.959,0.293
					C11.293,5.53,11.264,5.534,11.235,5.534z M10.851,4.311l0.291,0.952c0.016,0.051,0.07,0.08,0.122,0.065l0.959-0.293h0
					c0.051-0.016,0.08-0.07,0.065-0.122L11.87,3.548c-0.016-0.051-0.07-0.08-0.122-0.065l-0.577,0.176L10.851,4.311z"/>
			</g>
			<g>
				<polygon class="st3" points="10.768,4.4 10.709,4.207 11.146,4.074 11.001,3.601 11.194,3.542 11.398,4.208 				"/>
			</g>
			<g>
				
					<rect x="11.156" y="4.376" transform="matrix(0.9564 -0.292 0.292 0.9564 -0.8054 3.559)" class="st4" width="0.728" height="0.202"/>
			</g>
			<g>
				
					<rect x="11.278" y="4.767" transform="matrix(0.9564 -0.292 0.292 0.9564 -0.9141 3.6117)" class="st4" width="0.728" height="0.202"/>
			</g>
		</g>
		<g>
			<path class="st3" d="M14.694,8.715h-3.792c-0.159,0-0.303-0.088-0.376-0.228c-0.073-0.141-0.062-0.309,0.029-0.439l0.382-0.544
				l0.193,0.135l-0.382,0.544c-0.041,0.059-0.046,0.131-0.013,0.195c0.033,0.063,0.095,0.101,0.167,0.101h3.792V8.715z"/>
		</g>
		<g>
			<g>
				<g>
					<rect x="11.491" y="7.958" class="st3" width="0.225" height="0.225"/>
				</g>
			</g>
			<g>
				<g>
					<rect x="11.942" y="7.958" class="st3" width="0.225" height="0.225"/>
				</g>
			</g>
			<g>
				<g>
					<rect x="12.393" y="7.958" class="st3" width="0.225" height="0.225"/>
				</g>
			</g>
		</g>
		<g>
			<g>
				<g>
					<rect x="15.332" y="5.701" class="st4" width="0.225" height="0.225"/>
				</g>
			</g>
			<g>
				<g>
					<rect x="15.783" y="5.701" class="st4" width="0.225" height="0.225"/>
				</g>
			</g>
			<g>
				<g>
					<rect x="16.234" y="5.701" class="st4" width="0.225" height="0.225"/>
				</g>
			</g>
		</g>
		<g>
			<g>
				<polygon class="st3" points="10.609,2.732 10.384,2.732 10.384,2.507 10.158,2.507 10.158,2.732 9.933,2.732 9.933,2.958 
					10.158,2.958 10.158,3.183 10.384,3.183 10.384,2.958 10.609,2.958 				"/>
			</g>
		</g>
		<g>
			<g>
				<path class="st3" d="M8.824,7.765c-0.046,0-0.093-0.003-0.14-0.008l0.027-0.234c0.037,0.004,0.074,0.006,0.113,0.006
					c0.022,0,0.045-0.001,0.067-0.002l0.016,0.235C8.879,7.764,8.851,7.765,8.824,7.765z M9.128,7.725l-0.06-0.228
					c0.058-0.015,0.115-0.036,0.169-0.062l0.102,0.213C9.271,7.68,9.201,7.706,9.128,7.725z M8.465,7.71
					C8.394,7.688,8.324,7.659,8.258,7.624L8.37,7.416c0.053,0.028,0.109,0.052,0.166,0.07L8.465,7.71z M9.531,7.532l-0.14-0.19
					c0.048-0.036,0.093-0.076,0.134-0.12l0.173,0.161C9.647,7.438,9.591,7.488,9.531,7.532z M8.072,7.5
					C8.014,7.453,7.96,7.4,7.911,7.344l0.18-0.153C8.13,7.236,8.173,7.279,8.22,7.316L8.072,7.5z M9.834,7.206L9.635,7.08
					C9.667,7.03,9.694,6.976,9.716,6.92l0.219,0.086C9.908,7.076,9.874,7.143,9.834,7.206z M7.783,7.16
					C7.746,7.096,7.715,7.027,7.69,6.956L7.914,6.88c0.019,0.057,0.044,0.112,0.074,0.164L7.783,7.16z M9.998,6.791L9.766,6.748
					c0.011-0.059,0.017-0.119,0.017-0.179h0.236C10.018,6.643,10.011,6.718,9.998,6.791z M7.638,6.739
					C7.63,6.683,7.626,6.625,7.626,6.568c0-0.018,0-0.036,0.001-0.053l0.236,0.01C7.862,6.54,7.862,6.554,7.862,6.568
					c0,0.046,0.003,0.092,0.01,0.137L7.638,6.739z M9.778,6.474c-0.006-0.06-0.017-0.119-0.034-0.176L9.97,6.231
					c0.021,0.072,0.035,0.145,0.042,0.22L9.778,6.474z M7.888,6.347l-0.23-0.054C7.675,6.221,7.699,6.149,7.73,6.081l0.215,0.096
					C7.921,6.232,7.901,6.289,7.888,6.347z M9.677,6.131C9.65,6.078,9.618,6.027,9.581,5.979l0.186-0.145
					c0.046,0.059,0.086,0.122,0.12,0.189L9.677,6.131z M8.033,6.021L7.84,5.886c0.043-0.061,0.091-0.119,0.144-0.171l0.165,0.168
					C8.107,5.925,8.068,5.972,8.033,6.021z M9.458,5.848c-0.045-0.04-0.094-0.075-0.145-0.106L9.433,5.54
					c0.064,0.038,0.125,0.082,0.181,0.132L9.458,5.848z M8.289,5.77L8.158,5.574C8.22,5.532,8.286,5.496,8.355,5.467l0.092,0.217
					C8.392,5.708,8.339,5.736,8.289,5.77z M9.15,5.665C9.094,5.645,9.035,5.63,8.976,5.62l0.037-0.233
					C9.087,5.399,9.16,5.418,9.23,5.444L9.15,5.665z M8.618,5.63l-0.05-0.231C8.641,5.384,8.716,5.375,8.79,5.373l0.006,0.236
					C8.736,5.61,8.676,5.617,8.618,5.63z"/>
			</g>
			<g>
				<g>
					<polygon class="st4" points="9.161,6.456 8.935,6.456 8.935,6.23 8.71,6.23 8.71,6.456 8.484,6.456 8.484,6.681 8.71,6.681 
						8.71,6.907 8.935,6.907 8.935,6.681 9.161,6.681 					"/>
				</g>
			</g>
		</g>
		<g>
			<g>
				<path class="st3" d="M15.02,7.933c0.238,0.059,0.422,0.244,0.482,0.482c0.013,0.05,0.058,0.085,0.109,0.085
					s0.097-0.035,0.109-0.085c0.059-0.238,0.244-0.422,0.482-0.482c0.05-0.013,0.085-0.058,0.085-0.109s-0.035-0.097-0.085-0.109
					C15.964,7.654,15.78,7.47,15.72,7.232c-0.013-0.05-0.058-0.085-0.109-0.085s-0.097,0.035-0.109,0.085
					c-0.059,0.238-0.244,0.422-0.482,0.482c-0.05,0.013-0.085,0.058-0.085,0.109S14.97,7.92,15.02,7.933z M15.611,7.544
					c0.071,0.113,0.166,0.208,0.279,0.279c-0.113,0.071-0.208,0.166-0.279,0.279c-0.071-0.113-0.166-0.208-0.279-0.279
					C15.445,7.752,15.54,7.657,15.611,7.544z"/>
			</g>
		</g>
		<g>
			<g>
				<path class="st4" d="M12.894,2.103c0.182,0.045,0.323,0.186,0.368,0.368c0.01,0.038,0.044,0.065,0.084,0.065
					c0.04,0,0.074-0.027,0.084-0.065c0.045-0.182,0.186-0.323,0.368-0.368c0.038-0.01,0.065-0.044,0.065-0.084
					s-0.027-0.074-0.065-0.084c-0.182-0.045-0.323-0.186-0.368-0.368c-0.01-0.038-0.044-0.065-0.084-0.065
					c-0.04,0-0.074,0.027-0.084,0.065c-0.045,0.182-0.186,0.323-0.368,0.368c-0.038,0.01-0.065,0.044-0.065,0.084
					S12.856,2.093,12.894,2.103z M13.345,1.806c0.054,0.086,0.127,0.159,0.213,0.213c-0.086,0.054-0.159,0.127-0.213,0.213
					c-0.054-0.086-0.127-0.159-0.213-0.213C13.218,1.965,13.291,1.892,13.345,1.806z"/>
			</g>
		</g>
		<g>
			<path class="st4" d="M13.851,10.077c-0.281,0-0.509-0.228-0.509-0.509S13.57,9.06,13.851,9.06s0.509,0.228,0.509,0.509
				S14.131,10.077,13.851,10.077z M13.851,9.286c-0.156,0-0.283,0.127-0.283,0.283s0.127,0.283,0.283,0.283s0.283-0.127,0.283-0.283
				S14.007,9.286,13.851,9.286z"/>
		</g>
	</g>
</g>
</svg>
