<?xml version="1.0" encoding="utf-8"?>
<!-- Generator: Adobe Illustrator 21.0.0, SVG Export Plug-In . SVG Version: 6.00 Build 0)  -->
<svg version="1.1" id="Layer_1" xmlns="http://www.w3.org/2000/svg" xmlns:xlink="http://www.w3.org/1999/xlink" x="0px" y="0px"
	 viewBox="0 0 686 196.8" enable-background="new 0 0 686 196.8" xml:space="preserve">
<g>
	<g>
		<g opacity="0.11">
			<path fill="#999999" d="M585.5,186c-67.5,0-130.2,0-230,0c0-63.5,51.5-115,115-115S585.5,122.5,585.5,186z"/>
		</g>
		<g opacity="0.11">
			<path fill="#999999" d="M422.5,186c-94.5,0-182.3,0-322,0c0-88.9,72.1-161,161-161S422.5,97.1,422.5,186z"/>
		</g>
		<g opacity="0.11">
			<path fill="#333333" d="M680.6,196.8c3,0,5.4-2.4,5.4-5.4l0,0c0-3-2.4-5.4-5.4-5.4H5.4c-3,0-5.4,2.4-5.4,5.4l0,0
				c0,3,2.4,5.4,5.4,5.4H680.6z"/>
		</g>
	</g>
	<g>
		<g>
			<g>
				<g>
					<path fill="#A6A6A6" d="M262,185.6V96.8c0-7.4,6-13.4,13.4-13.4h50.2V60.2h-10.5L300,74.5V13.4C300,6,306,0,313.4,0h60.2
						C381,0,387,6,387,13.4v16.5h35.6c7.4,0,13.4,6,13.4,13.4v83.6l-22.7-16.6h-37.5v40.2c0,7.4-6,13.4-13.4,13.4H284L262,185.6z
						 M275.4,90.1c-3.7,0-6.7,3-6.7,6.7v72.7l12.6-12.5h81.1c3.7,0,6.7-3,6.7-6.7V96.8c0-3.7-3-6.7-6.7-6.7H275.4z M375.8,103.5
						h39.7l13.8,10.1V43.3c0-3.7-3-6.7-6.7-6.7H339c-3.7,0-6.7,3-6.7,6.7v40.2h30.1c7.4,0,13.4,6,13.4,13.4V103.5z M313.4,6.7
						c-3.7,0-6.7,3-6.7,6.7v45.6l5.7-5.4h13.2V43.3c0-7.4,6-13.4,13.4-13.4h41.3V13.4c0-3.7-3-6.7-6.7-6.7H313.4z"/>
				</g>
			</g>
		</g>
		<g>
			<g>
				<polygon fill="#808080" points="293.1,113.4 288.8,117.7 284.4,113.4 279.7,118.1 284,122.4 279.7,126.8 284.4,131.5 
					288.8,127.2 293.1,131.5 297.8,126.8 293.5,122.4 297.8,118.1 				"/>
			</g>
		</g>
		<g>
			<g>
				<polygon fill="#808080" points="323.2,113.4 318.9,117.7 314.6,113.4 309.8,118.1 314.1,122.4 309.8,126.8 314.6,131.5 
					318.9,127.2 323.2,131.5 327.9,126.8 323.6,122.4 327.9,118.1 				"/>
			</g>
		</g>
		<g>
			<g>
				<polygon fill="#808080" points="344.7,131.5 349,127.2 353.3,131.5 358.1,126.8 353.7,122.4 358.1,118.1 353.3,113.4 349,117.7 
					344.7,113.4 339.9,118.1 344.3,122.4 339.9,126.8 				"/>
			</g>
		</g>
		<g>
			<g>
				<polygon fill="#808080" points="354.7,51.9 350.4,56.3 346.1,51.9 341.3,56.7 345.7,61 341.3,65.3 346.1,70.1 350.4,65.7 
					354.7,70.1 359.4,65.3 355.1,61 359.4,56.7 				"/>
			</g>
		</g>
		<g>
			<g>
				<polygon fill="#808080" points="384.8,51.9 380.5,56.3 376.2,51.9 371.4,56.7 375.8,61 371.4,65.3 376.2,70.1 380.5,65.7 
					384.8,70.1 389.6,65.3 385.2,61 389.6,56.7 				"/>
			</g>
		</g>
		<g>
			<g>
				<polygon fill="#808080" points="406.3,70.1 410.6,65.7 414.9,70.1 419.7,65.3 415.4,61 419.7,56.7 414.9,51.9 410.6,56.3 
					406.3,51.9 401.6,56.7 405.9,61 401.6,65.3 				"/>
			</g>
		</g>
		<g>
			<g>
				<rect x="385.8" y="123.6" fill="#A6A6A6" width="6.7" height="6.7"/>
			</g>
		</g>
		<g>
			<g>
				<rect x="399.2" y="123.6" fill="#A6A6A6" width="6.7" height="6.7"/>
			</g>
		</g>
		<g>
			<g>
				<rect x="412.6" y="123.6" fill="#A6A6A6" width="6.7" height="6.7"/>
			</g>
		</g>
		<g>
			<g>
				<rect x="316.9" y="16.5" fill="#808080" width="6.7" height="6.7"/>
			</g>
		</g>
		<g>
			<g>
				<rect x="340.8" y="16.5" fill="#808080" width="6.7" height="6.7"/>
			</g>
		</g>
		<g>
			<g>
				<rect x="364.8" y="16.5" fill="#808080" width="6.7" height="6.7"/>
			</g>
		</g>
		<g>
			<g>
				<polygon fill="#A6A6A6" points="405.9,150.4 399.2,150.4 399.2,143.7 392.5,143.7 392.5,150.4 385.8,150.4 385.8,157.1 
					392.5,157.1 392.5,163.8 399.2,163.8 399.2,157.1 405.9,157.1 				"/>
			</g>
		</g>
		<g>
			<g>
				<path fill="#A6A6A6" d="M252.5,39.8c7.1,1.8,12.5,7.2,14.3,14.3c0.4,1.5,1.7,2.5,3.2,2.5s2.9-1,3.2-2.5
					c1.8-7.1,7.2-12.5,14.3-14.3c1.5-0.4,2.5-1.7,2.5-3.2c0-1.5-1-2.9-2.5-3.2c-7.1-1.8-12.5-7.2-14.3-14.3
					c-0.4-1.5-1.7-2.5-3.2-2.5s-2.9,1-3.2,2.5c-1.8,7.1-7.2,12.5-14.3,14.3c-1.5,0.4-2.5,1.7-2.5,3.2C250,38.1,251,39.5,252.5,39.8z
					 M270.1,28.3c2.1,3.4,4.9,6.2,8.3,8.3c-3.3,2.1-6.2,4.9-8.3,8.3c-2.1-3.4-4.9-6.2-8.3-8.3C265.1,34.5,268,31.7,270.1,28.3z"/>
			</g>
		</g>
	</g>
</g>
</svg>
