<?xml version="1.0" encoding="utf-8"?>
<!-- Generator: Adobe Illustrator 21.0.0, SVG Export Plug-In . SVG Version: 6.00 Build 0)  -->
<svg version="1.1" id="Layer_1" xmlns="http://www.w3.org/2000/svg" xmlns:xlink="http://www.w3.org/1999/xlink" x="0px" y="0px"
	 viewBox="0 0 24 12" style="enable-background:new 0 0 24 12;" xml:space="preserve">
<style type="text/css">
	.st0{opacity:0.11;}
	.st1{fill:#999999;}
	.st2{fill:#333333;}
	.st3{fill:#A6A6A6;}
	.st4{fill:#808080;}
</style>
<g>
	<g>
		<g class="st0">
			<path class="st1" d="M19.841,10.178c-2.175,0-4.197,0-7.414,0c0-2.047,1.66-3.707,3.707-3.707S19.841,8.131,19.841,10.178z"/>
		</g>
		<g class="st0">
			<path class="st1" d="M14.588,10.178c-3.045,0-5.876,0-10.38,0c0-2.866,2.324-5.19,5.19-5.19S14.588,7.312,14.588,10.178z"/>
		</g>
		<g class="st0">
			<path class="st2" d="M22.906,10.527c0.097,0,0.175-0.079,0.175-0.175l0,0c0-0.097-0.079-0.175-0.175-0.175H1.143
				c-0.097,0-0.175,0.079-0.175,0.175l0,0c0,0.097,0.079,0.175,0.175,0.175H22.906z"/>
		</g>
	</g>
	<g>
		<g>
			<polygon class="st3" points="12.662,3.101 12.619,2.886 11.652,2.886 11.652,4.73 11.866,4.73 11.866,3.961 12.468,3.961 
				12.511,4.176 13.263,4.176 13.263,3.101 			"/>
		</g>
		<g>
			<path class="st3" d="M12.714,9.324h-1.981c-0.239,0-0.457-0.121-0.583-0.323c-0.127-0.202-0.14-0.451-0.035-0.666l1.009-2.074
				V5.035h0.226v1.277l-1.032,2.121c-0.07,0.144-0.061,0.311,0.024,0.447c0.085,0.136,0.232,0.217,0.392,0.217h1.981
				c0.16,0,0.307-0.081,0.392-0.217c0.085-0.136,0.094-0.303,0.024-0.447l-1.032-2.121V5.035h0.226v1.225l1.009,2.074
				c0.104,0.215,0.091,0.463-0.035,0.666C13.17,9.203,12.952,9.324,12.714,9.324z"/>
		</g>
		<g>
			<rect x="10.643" y="4.923" class="st3" width="2.16" height="0.226"/>
		</g>
		<g>
			<rect x="11.507" y="7.374" class="st3" width="1.225" height="0.226"/>
		</g>
		<g>
			<g>
				<g>
					<rect x="10.987" y="8.224" class="st4" width="0.295" height="0.295"/>
				</g>
			</g>
			<g>
				<g>
					<rect x="11.576" y="8.224" class="st4" width="0.295" height="0.295"/>
				</g>
			</g>
			<g>
				<g>
					<rect x="11.35" y="6.644" class="st3" width="0.295" height="0.295"/>
				</g>
			</g>
			<g>
				<g>
					<rect x="11.673" y="5.355" class="st3" width="0.295" height="0.295"/>
				</g>
			</g>
			<g>
				<g>
					<rect x="12.165" y="8.224" class="st4" width="0.295" height="0.295"/>
				</g>
			</g>
		</g>
		<g>
			<g>
				<path class="st4" d="M13.999,7.683h-0.248V6.815h0.248V7.683z M14.496,7.683h-0.248v-1.24h0.248V7.683z M14.992,7.683h-0.248
					V7.187h0.248V7.683z"/>
			</g>
			<g>
				<path class="st3" d="M15.24,8.292h-1.736c-0.199,0-0.361-0.162-0.361-0.361V6.195c0-0.199,0.162-0.361,0.361-0.361h1.736
					c0.199,0,0.361,0.162,0.361,0.361v1.736C15.601,8.13,15.439,8.292,15.24,8.292z M13.503,6.06c-0.075,0-0.135,0.061-0.135,0.135
					v1.736c0,0.075,0.061,0.135,0.135,0.135h1.736c0.075,0,0.135-0.061,0.135-0.135V6.195c0-0.075-0.061-0.135-0.135-0.135H13.503z"
					/>
			</g>
		</g>
		<g>
			<g>
				<path class="st4" d="M9.397,5.411c0.051,0,0.093,0.042,0.093,0.093c0,0.051-0.042,0.093-0.093,0.093
					c-0.051,0-0.093-0.042-0.093-0.093C9.304,5.453,9.346,5.411,9.397,5.411z M9.583,6.712h-0.65V6.526h0.65V6.712z M9.862,6.34
					H8.933V6.154h0.929V6.34z M9.862,5.969H8.933V5.783h0.929V5.969z"/>
			</g>
			<g>
				<path class="st3" d="M10.047,7.196H8.747c-0.165,0-0.299-0.134-0.299-0.299V5.597c0-0.165,0.134-0.299,0.299-0.299h0.318
					c0.071-0.114,0.196-0.186,0.332-0.186c0.136,0,0.261,0.072,0.332,0.186h0.318c0.165,0,0.299,0.134,0.299,0.299v1.301
					C10.346,7.062,10.212,7.196,10.047,7.196z M8.747,5.524c-0.04,0-0.073,0.033-0.073,0.073v1.301c0,0.04,0.033,0.073,0.073,0.073
					h1.301c0.04,0,0.073-0.033,0.073-0.073V5.597c0-0.04-0.033-0.073-0.073-0.073H9.58L9.553,5.45
					C9.529,5.383,9.466,5.338,9.397,5.338c-0.069,0-0.132,0.045-0.156,0.111L9.214,5.524H8.747z"/>
			</g>
		</g>
		<g>
			<g>
				<path class="st3" d="M13.913,4.661c0.227,0.057,0.404,0.233,0.461,0.461c0.012,0.048,0.055,0.082,0.105,0.082
					c0.05,0,0.093-0.034,0.105-0.082c0.057-0.227,0.233-0.404,0.461-0.461c0.048-0.012,0.082-0.055,0.082-0.105
					c0-0.05-0.034-0.093-0.082-0.105c-0.227-0.057-0.404-0.233-0.461-0.461c-0.012-0.048-0.055-0.082-0.105-0.082
					c-0.05,0-0.093,0.034-0.105,0.082c-0.057,0.227-0.233,0.404-0.461,0.461c-0.048,0.012-0.082,0.055-0.082,0.105
					C13.832,4.606,13.865,4.649,13.913,4.661z M14.479,4.289c0.068,0.108,0.159,0.199,0.267,0.267
					c-0.108,0.068-0.199,0.159-0.267,0.267c-0.068-0.108-0.159-0.199-0.267-0.267C14.32,4.488,14.411,4.397,14.479,4.289z"/>
			</g>
		</g>
		<g>
			<g>
				<path class="st3" d="M8.707,9.609c0.227,0.057,0.404,0.233,0.461,0.461c0.012,0.048,0.055,0.082,0.105,0.082
					s0.093-0.034,0.105-0.082c0.057-0.227,0.233-0.404,0.461-0.461C9.886,9.597,9.92,9.554,9.92,9.504
					c0-0.05-0.034-0.093-0.082-0.105C9.611,9.343,9.434,9.166,9.377,8.939C9.365,8.891,9.322,8.857,9.273,8.857
					S9.18,8.891,9.168,8.939C9.111,9.166,8.935,9.343,8.707,9.4C8.659,9.412,8.626,9.455,8.626,9.504
					C8.626,9.554,8.659,9.597,8.707,9.609z M9.273,9.237C9.341,9.345,9.432,9.436,9.54,9.504C9.432,9.572,9.341,9.664,9.273,9.772
					C9.205,9.664,9.114,9.572,9.006,9.504C9.114,9.436,9.205,9.345,9.273,9.237z"/>
			</g>
		</g>
		<g>
			<g>
				<polygon class="st3" points="14.247,9.158 14.031,9.158 14.031,8.943 13.815,8.943 13.815,9.158 13.6,9.158 13.6,9.374 
					13.815,9.374 13.815,9.59 14.031,9.59 14.031,9.374 14.247,9.374 				"/>
			</g>
		</g>
		<g>
			<g>
				<polygon class="st3" points="11.152,2.26 10.936,2.26 10.936,2.044 10.721,2.044 10.721,2.26 10.505,2.26 10.505,2.476 
					10.721,2.476 10.721,2.691 10.936,2.691 10.936,2.476 11.152,2.476 				"/>
			</g>
		</g>
		<g>
			<g>
				<g>
					<g>
						<rect x="9.463" y="3.888" class="st4" width="0.302" height="0.302"/>
					</g>
				</g>
			</g>
			<g>
				<g>
					<g>
						<rect x="10.068" y="3.888" class="st4" width="0.302" height="0.302"/>
					</g>
				</g>
			</g>
			<g>
				<g>
					<g>
						<rect x="10.672" y="3.888" class="st4" width="0.302" height="0.302"/>
					</g>
				</g>
			</g>
		</g>
	</g>
</g>
</svg>
