<?xml version="1.0" encoding="utf-8"?>
<!-- Generator: Adobe Illustrator 21.0.0, SVG Export Plug-In . SVG Version: 6.00 Build 0)  -->
<svg version="1.1" id="Layer_1" xmlns="http://www.w3.org/2000/svg" xmlns:xlink="http://www.w3.org/1999/xlink" x="0px" y="0px"
	 viewBox="0 0 24 12" style="enable-background:new 0 0 24 12;" xml:space="preserve">
<style type="text/css">
	.st0{opacity:0.11;}
	.st1{fill:#999999;}
	.st2{fill:#333333;}
	.st3{fill:#A6A6A6;}
	.st4{fill:#808080;}
</style>
<g>
	<g>
		<g class="st0">
			<path class="st1" d="M19.754,10.025c-2.162,0-4.171,0-7.367,0c0-2.034,1.649-3.684,3.684-3.684S19.754,7.99,19.754,10.025z"/>
		</g>
		<g class="st0">
			<path class="st1" d="M14.535,10.025c-3.026,0-5.839,0-10.314,0c0-2.848,2.309-5.157,5.157-5.157S14.535,7.176,14.535,10.025z"/>
		</g>
		<g class="st0">
			<path class="st2" d="M22.8,10.371c0.096,0,0.174-0.078,0.174-0.174l0,0c0-0.096-0.078-0.174-0.174-0.174H1.174
				C1.078,10.022,1,10.1,1,10.196l0,0c0,0.096,0.078,0.174,0.174,0.174H22.8z"/>
		</g>
	</g>
	<g>
		<g>
			<path class="st3" d="M13.461,6.94h-1.022V6.715h1.022c0.209,0,0.379-0.17,0.379-0.379V4.519c0-0.209-0.17-0.379-0.379-0.379
				h-2.037c-0.209,0-0.379,0.17-0.379,0.379v1.085h-0.224V4.519c0-0.333,0.271-0.603,0.603-0.603h2.037
				c0.333,0,0.603,0.271,0.603,0.603v1.817C14.064,6.669,13.794,6.94,13.461,6.94z"/>
		</g>
		<g>
			<g>
				<polygon class="st3" points="9.91,3.658 9.662,3.658 9.662,3.41 9.414,3.41 9.414,3.658 9.166,3.658 9.166,3.906 9.414,3.906 
					9.414,4.155 9.662,4.155 9.662,3.906 9.91,3.906 				"/>
			</g>
		</g>
		<g>
			<g>
				<polygon class="st3" points="15.514,7.42 15.266,7.42 15.266,7.172 15.018,7.172 15.018,7.42 14.77,7.42 14.77,7.668 
					15.018,7.668 15.018,7.916 15.266,7.916 15.266,7.668 15.514,7.668 				"/>
			</g>
		</g>
		<g>
			<g>
				<path class="st3" d="M10.417,3.296c0.21,0.053,0.374,0.216,0.427,0.427c0.011,0.044,0.051,0.076,0.097,0.076
					s0.086-0.031,0.097-0.076c0.053-0.21,0.216-0.374,0.426-0.427c0.045-0.011,0.076-0.051,0.076-0.097s-0.031-0.086-0.076-0.097
					c-0.21-0.053-0.374-0.216-0.426-0.427C11.026,2.631,10.986,2.6,10.94,2.6s-0.086,0.031-0.097,0.076
					c-0.053,0.21-0.216,0.374-0.427,0.427c-0.044,0.011-0.076,0.051-0.076,0.097S10.373,3.285,10.417,3.296z M10.94,2.952
					c0.063,0.1,0.147,0.185,0.247,0.247c-0.1,0.063-0.184,0.147-0.247,0.247c-0.063-0.1-0.147-0.185-0.247-0.247
					C10.793,3.136,10.878,3.052,10.94,2.952z"/>
			</g>
		</g>
		<g>
			<g>
				<path class="st3" d="M9.456,9.51c0.21,0.053,0.374,0.216,0.427,0.427c0.011,0.044,0.051,0.076,0.097,0.076
					c0.046,0,0.086-0.031,0.097-0.076c0.053-0.21,0.216-0.374,0.426-0.427c0.045-0.011,0.076-0.051,0.076-0.097
					c0-0.046-0.031-0.086-0.076-0.097c-0.21-0.053-0.374-0.216-0.426-0.427c-0.011-0.044-0.051-0.076-0.097-0.076
					c-0.046,0-0.086,0.031-0.097,0.076C9.83,9.1,9.667,9.264,9.456,9.316C9.412,9.327,9.381,9.367,9.381,9.413
					C9.381,9.459,9.412,9.499,9.456,9.51z M9.979,9.166c0.063,0.1,0.147,0.185,0.247,0.247c-0.1,0.063-0.184,0.147-0.247,0.247
					c-0.063-0.1-0.147-0.185-0.247-0.247C9.832,9.35,9.917,9.266,9.979,9.166z"/>
			</g>
		</g>
		<g>
			<path class="st3" d="M12.46,6.177l-0.082-0.098c0,0,0.033-0.028,0.084-0.072l0.084,0.097C12.494,6.149,12.46,6.177,12.46,6.177z
				 M12.631,6.03l-0.085-0.096c0.026-0.023,0.054-0.048,0.083-0.074l0.086,0.095C12.685,5.982,12.657,6.007,12.631,6.03z
				 M12.797,5.88L12.71,5.786c0.027-0.025,0.054-0.051,0.08-0.076l0.09,0.092C12.852,5.827,12.825,5.854,12.797,5.88z M12.959,5.721
				l-0.093-0.088c0.025-0.026,0.047-0.05,0.064-0.071l0.007-0.008l0.1,0.081l-0.008,0.01C13.009,5.666,12.986,5.692,12.959,5.721z
				 M11.81,5.643c-0.017-0.02-0.033-0.041-0.048-0.062l0.105-0.074c0.013,0.018,0.027,0.037,0.041,0.054L11.81,5.643z M13.105,5.537
				l-0.109-0.068c0.018-0.029,0.034-0.06,0.048-0.091l0.117,0.053C13.146,5.467,13.127,5.503,13.105,5.537z M11.7,5.479
				c-0.019-0.036-0.035-0.073-0.048-0.11l0.121-0.043c0.011,0.031,0.025,0.063,0.041,0.094L11.7,5.479z M13.203,5.318L13.08,5.283
				c0.009-0.033,0.016-0.066,0.02-0.099l0.127,0.015C13.223,5.238,13.215,5.278,13.203,5.318z M11.62,5.253
				c-0.008-0.041-0.012-0.082-0.013-0.122l0.128-0.001c0,0.032,0.004,0.065,0.01,0.099L11.62,5.253z M13.102,5.086
				c-0.003-0.033-0.009-0.065-0.019-0.094l0.122-0.04c0.013,0.039,0.021,0.08,0.025,0.124L13.102,5.086z M11.744,5.033l-0.125-0.026
				c0.009-0.043,0.023-0.084,0.042-0.121l0.114,0.058C11.761,4.971,11.751,5.001,11.744,5.033z M12.419,4.926l-0.037-0.026
				c-0.006-0.004-0.012-0.009-0.019-0.013l0.04-0.061l-0.022-0.031c0.026-0.018,0.052-0.035,0.079-0.05l0.062,0.112
				c-0.023,0.013-0.045,0.027-0.067,0.042L12.419,4.926z M13.042,4.909c-0.015-0.021-0.032-0.04-0.052-0.056
				c-0.004-0.003-0.007-0.006-0.011-0.009l0.077-0.103c0.005,0.004,0.011,0.008,0.016,0.013c0.028,0.024,0.054,0.051,0.075,0.082
				L13.042,4.909z M11.828,4.87l-0.091-0.09c0.009-0.009,0.018-0.018,0.028-0.026c0.024-0.02,0.05-0.037,0.078-0.051l0.058,0.114
				c-0.019,0.01-0.037,0.022-0.054,0.035C11.841,4.858,11.834,4.864,11.828,4.87z M12.275,4.836
				c-0.031-0.015-0.063-0.026-0.094-0.035l0.034-0.123c0.038,0.011,0.077,0.025,0.114,0.043L12.275,4.836z M12.615,4.815
				l-0.044-0.12c0.039-0.014,0.079-0.025,0.119-0.032l0.021,0.126C12.68,4.795,12.647,4.803,12.615,4.815z M12.899,4.801
				c-0.028-0.01-0.059-0.016-0.092-0.018l0.007-0.128c0.044,0.003,0.086,0.011,0.126,0.024L12.899,4.801z M11.989,4.789
				l-0.022-0.126c0.04-0.007,0.083-0.009,0.126-0.006l-0.009,0.128C12.051,4.782,12.019,4.783,11.989,4.789z"/>
		</g>
		<g>
			<path class="st3" d="M11.366,8.413H9.116c-0.362,0-0.656-0.294-0.656-0.656V6.141c0-0.362,0.294-0.656,0.656-0.656h2.749
				c0.362,0,0.656,0.294,0.656,0.656v1.481h-0.224V6.141c0-0.238-0.194-0.432-0.432-0.432H9.116c-0.238,0-0.432,0.194-0.432,0.432
				v1.616c0,0.238,0.194,0.432,0.432,0.432h2.249V8.413z"/>
		</g>
		<g>
			<path class="st4" d="M11.104,6.361c-0.156-0.13-0.403-0.105-0.612,0.044c-0.21-0.149-0.456-0.174-0.612-0.044
				c-0.2,0.167-0.176,0.524,0.053,0.799c0.159,0.191,0.56,0.525,0.56,0.525s0.401-0.334,0.56-0.525
				C11.28,6.885,11.303,6.527,11.104,6.361z"/>
		</g>
		<g>
			<path class="st3" d="M13.831,9.675h-2.062c-0.283,0-0.513-0.23-0.513-0.513V8c0-0.283,0.23-0.513,0.513-0.513h2.062
				c0.283,0,0.513,0.23,0.513,0.513v1.162C14.344,9.445,14.114,9.675,13.831,9.675z M11.769,7.711c-0.159,0-0.288,0.129-0.288,0.288
				v1.162c0,0.159,0.129,0.288,0.288,0.288h2.062c0.159,0,0.288-0.129,0.288-0.288V8c0-0.159-0.129-0.288-0.288-0.288H11.769z"/>
		</g>
		<g>
			<g>
				<path class="st4" d="M12.541,8.287c-0.07-0.058-0.179-0.047-0.273,0.019c-0.093-0.066-0.203-0.077-0.273-0.019
					c-0.089,0.074-0.078,0.233,0.023,0.356c0.071,0.085,0.249,0.234,0.249,0.234s0.178-0.149,0.249-0.234
					C12.62,8.52,12.63,8.361,12.541,8.287z"/>
			</g>
			<g>
				<path class="st4" d="M13.581,8.287c-0.07-0.058-0.179-0.047-0.273,0.019c-0.093-0.066-0.203-0.077-0.273-0.019
					c-0.089,0.074-0.078,0.233,0.023,0.356c0.071,0.085,0.249,0.234,0.249,0.234s0.178-0.149,0.249-0.234
					C13.66,8.52,13.67,8.361,13.581,8.287z"/>
			</g>
		</g>
		<g>
			<g>
				<g>
					<rect x="8.785" y="4.722" class="st3" width="0.301" height="0.301"/>
				</g>
			</g>
			<g>
				<g>
					<rect x="9.387" y="4.722" class="st3" width="0.301" height="0.301"/>
				</g>
			</g>
			<g>
				<g>
					<rect x="9.988" y="4.722" class="st3" width="0.301" height="0.301"/>
				</g>
			</g>
		</g>
		<g>
			<g>
				<g>
					<rect x="12.533" y="3.057" class="st4" width="0.301" height="0.301"/>
				</g>
			</g>
			<g>
				<g>
					<rect x="13.134" y="3.057" class="st4" width="0.301" height="0.301"/>
				</g>
			</g>
			<g>
				<g>
					<rect x="13.736" y="3.057" class="st4" width="0.301" height="0.301"/>
				</g>
			</g>
		</g>
	</g>
</g>
</svg>
