<?xml version="1.0" encoding="utf-8"?>
<!-- Generator: Adobe Illustrator 21.0.0, SVG Export Plug-In . SVG Version: 6.00 Build 0)  -->
<svg version="1.1" id="Layer_1" xmlns="http://www.w3.org/2000/svg" xmlns:xlink="http://www.w3.org/1999/xlink" x="0px" y="0px"
	 viewBox="0 0 24 7.492" style="enable-background:new 0 0 24 7.492;" xml:space="preserve">
<style type="text/css">
	.st0{opacity:0.11;}
	.st1{fill:#999999;}
	.st2{fill:#333333;}
	.st3{fill:#A6A6A6;}
	.st4{fill:#808080;}
</style>
<g>
	<g>
		<g class="st0">
			<path class="st1" d="M20.483,7.114c-2.361,0-4.555,0-8.047,0c0-2.222,1.801-4.023,4.023-4.023S20.483,4.892,20.483,7.114z"/>
		</g>
		<g class="st0">
			<path class="st1" d="M14.782,7.114c-3.305,0-6.377,0-11.265,0c0-3.111,2.522-5.633,5.633-5.633S14.782,4.003,14.782,7.114z"/>
		</g>
		<g class="st0">
			<path class="st2" d="M23.81,7.492c0.105,0,0.19-0.085,0.19-0.19l0,0c0-0.105-0.085-0.19-0.19-0.19H0.19
				C0.085,7.111,0,7.196,0,7.301l0,0c0,0.105,0.085,0.19,0.19,0.19h23.62V7.492z"/>
		</g>
	</g>
	<g>
		<g>
			<g>
				<path class="st3" d="M12.911,5.709c0.247,0.062,0.438,0.253,0.5,0.5c0.013,0.052,0.06,0.089,0.114,0.089
					s0.101-0.037,0.114-0.089c0.062-0.247,0.253-0.438,0.5-0.5c0.052-0.013,0.089-0.06,0.089-0.114s-0.037-0.101-0.089-0.114
					c-0.247-0.062-0.438-0.253-0.5-0.5c-0.013-0.052-0.06-0.089-0.114-0.089s-0.101,0.037-0.114,0.089
					c-0.062,0.247-0.253,0.438-0.5,0.5c-0.052,0.013-0.089,0.06-0.089,0.114S12.859,5.696,12.911,5.709z M13.525,5.305
					c0.074,0.117,0.173,0.216,0.29,0.29c-0.117,0.074-0.216,0.173-0.29,0.29c-0.074-0.117-0.173-0.216-0.29-0.29
					C13.352,5.522,13.451,5.422,13.525,5.305z"/>
			</g>
		</g>
		<g>
			<g>
				<polygon class="st4" points="15.225,5.942 15.376,5.791 15.528,5.942 15.693,5.776 15.542,5.625 15.693,5.474 15.528,5.308 
					15.376,5.459 15.225,5.308 15.059,5.474 15.211,5.625 15.059,5.776 				"/>
			</g>
		</g>
		<g>
			<g>
				<g>
					<rect x="9.457" y="0.697" class="st4" width="0.234" height="0.234"/>
				</g>
			</g>
			<g>
				<g>
					<rect x="9.925" y="0.697" class="st4" width="0.234" height="0.234"/>
				</g>
			</g>
			<g>
				<g>
					<rect x="10.393" y="0.697" class="st4" width="0.234" height="0.234"/>
				</g>
			</g>
		</g>
		<g>
			<g>
				<polygon class="st3" points="12.468,0.234 12.234,0.234 12.234,0 12,0 12,0.234 11.766,0.234 11.766,0.469 12,0.469 12,0.703 
					12.234,0.703 12.234,0.469 12.468,0.469 				"/>
			</g>
		</g>
		<path class="st3" d="M12.543,4.484V3.598c0-0.518,0.422-0.94,0.94-0.94h1.363c0.518,0,0.94,0.422,0.94,0.94v0.886
			C15.786,4.484,12.543,4.484,12.543,4.484z M13.484,2.868c-0.403,0-0.73,0.328-0.73,0.73v0.676h2.823V3.598
			c0-0.403-0.328-0.73-0.73-0.73H13.484z"/>
		<path class="st3" d="M15.007,2.493c-0.386,0-0.7-0.314-0.7-0.7V1.206h-1.08c-0.224,0-0.406-0.182-0.406-0.406
			s0.182-0.406,0.406-0.406c0.167,0,0.319,0.105,0.379,0.261l0.009,0.023h0.862c0.351,0,0.636,0.285,0.636,0.636v1.179
			C15.113,2.493,15.007,2.493,15.007,2.493z M14.516,1.793c0,0.213,0.137,0.401,0.34,0.467l0.046,0.015v-0.96
			c0-0.235-0.191-0.426-0.426-0.426h-1.049L13.421,0.79c-0.006-0.103-0.091-0.184-0.195-0.184c-0.108,0-0.196,0.088-0.196,0.196
			s0.088,0.196,0.196,0.196h1.29C14.516,0.998,14.516,1.793,14.516,1.793z"/>
		<path class="st3" d="M13.121,2.868V2.255h-0.442l0.442-0.796V0.996h1.395v0.797c0,0.27,0.22,0.491,0.491,0.491h0.105v0.584
			C15.112,2.868,13.121,2.868,13.121,2.868z M13.331,2.658h1.571V2.486l-0.028-0.005c-0.329-0.064-0.567-0.353-0.567-0.688V1.206
			h-0.975v0.308l-0.295,0.531h0.295L13.331,2.658L13.331,2.658z M13.226,1.522L13.226,1.522v-0.07V1.522z"/>
		<path class="st3" d="M14.064,3.545c-0.384,0-0.698-0.303-0.716-0.682h0.21c0.018,0.263,0.238,0.472,0.506,0.472
			s0.488-0.209,0.506-0.472h0.21C14.762,3.242,14.448,3.545,14.064,3.545z"/>
		<rect x="13.977" y="3.475" class="st3" width="0.21" height="0.869"/>
		<path class="st3" d="M8.214,6.303V5.068c0-0.518,0.422-0.94,0.94-0.94h2.018c0.518,0,0.94,0.422,0.94,0.94v1.235H8.214z
			 M9.154,4.338c-0.403,0-0.73,0.328-0.73,0.73v1.025h3.479V5.068c0-0.403-0.328-0.73-0.73-0.73H9.154z"/>
		<path class="st3" d="M8.918,4.667l0.476-0.476l0.894,0.894L9.811,5.56L8.918,4.667z M9.215,4.667l0.597,0.597l0.179-0.179
			L9.394,4.487L9.215,4.667z"/>
		<path class="st3" d="M9.989,5.084l0.894-0.894l0.476,0.476L10.465,5.56L9.989,5.084z M10.286,5.084l0.179,0.179l0.597-0.597
			l-0.179-0.179L10.286,5.084z"/>
		<path class="st3" d="M8.94,3.882v-1.41c0-0.414,0.337-0.751,0.751-0.751h1.066l0.008-0.024c0.064-0.192,0.243-0.321,0.446-0.321
			c0.259,0,0.47,0.211,0.47,0.47s-0.211,0.47-0.47,0.47H9.874v0.736c0,0.457-0.372,0.829-0.829,0.829L8.94,3.882L8.94,3.882z
			 M9.69,1.931c-0.298,0-0.541,0.243-0.541,0.541v1.194l0.043-0.011C9.47,3.586,9.664,3.339,9.664,3.053V2.107h1.546
			c0.144,0,0.261-0.117,0.261-0.261c0-0.144-0.117-0.261-0.261-0.261c-0.138,0-0.252,0.108-0.26,0.246L10.944,1.93L9.69,1.931
			L9.69,1.931z"/>
		<path class="st3" d="M8.94,4.338V3.673h0.105c0.341,0,0.619-0.278,0.619-0.619V2.107h1.651v0.547l0.522,0.939h-0.522v0.745H8.94z
			 M9.874,3.053c0,0.408-0.292,0.752-0.695,0.818l-0.03,0.005v0.251h1.956V3.383h0.375l-0.375-0.675V2.317H9.874V3.053z"/>
	</g>
</g>
</svg>
