<?xml version="1.0" encoding="utf-8"?>
<!-- Generator: Adobe Illustrator 21.0.0, SVG Export Plug-In . SVG Version: 6.00 Build 0)  -->
<svg version="1.1" id="Layer_1" xmlns="http://www.w3.org/2000/svg" xmlns:xlink="http://www.w3.org/1999/xlink" x="0px" y="0px"
	 viewBox="0 0 191 191" enable-background="new 0 0 191 191" xml:space="preserve">
<g>
	<g>
		<circle fill="#F2F2F2" cx="95.5" cy="95.5" r="95.5"/>
	</g>
	<g>
		<linearGradient id="SVGID_1_" gradientUnits="userSpaceOnUse" x1="47.8281" y1="99.0313" x2="143.1719" y2="99.0313">
			<stop  offset="0" style="stop-color:#662D8F"/>
			<stop  offset="1" style="stop-color:#0071BA"/>
		</linearGradient>
		<path fill="url(#SVGID_1_)" d="M141.4,62H49.6c-1.1,0-1.8,0.7-1.8,1.8v70.6c0,1.1,0.7,1.8,1.8,1.8h51.2h31.8h8.8
			c1.1,0,1.8-0.7,1.8-1.8V63.7C143.2,62.7,142.5,62,141.4,62z M102.6,132.6v-15.9c0-1.1-0.7-1.8-1.8-1.8H83.1v-3.5h24.7h0.5
			l6.7,18.2c0.2,0.7,0.9,1.2,1.6,1.2s1.4-0.5,1.6-1.2l6.7-18.2h0.5c3,0,5.3,2.3,5.3,5.3v15.9H102.6z M139.6,132.6h-5.3v-15.9
			c0-4.9-3.9-8.8-8.8-8.8h-1.8H122v-1.8c2.1-1.6,3.5-4.2,3.5-7.1v-1.8h1.8v-3.5h-3.5c-1.1,0-1.8,0.7-1.8,1.8V99
			c0,1.9-1.1,3.5-2.6,4.6c-0.5,0.4-0.9,0.9-0.9,1.6v4.4c0,1.1,0.7,1.8,1.8,1.8h1.1l-4.6,12.5l-4.6-12.5h1.1c1.1,0,1.8-0.7,1.8-1.8
			V105c0-0.7-0.4-1.2-0.9-1.6c-1.6-0.9-2.6-2.5-2.6-4.4v-6.7c1.6,0.9,3.4,1.4,5.3,1.4h5.3c1.1,0,1.8-0.7,1.8-1.8
			c0-5.8-4.8-10.6-10.6-10.6h-5.3c-1.1,0-1.8,0.7-1.8,1.8c0,2.1,0.7,4.2,1.8,5.8V99c0,2.8,1.4,5.3,3.5,7.1v1.8h-1.8h-1.8H81.4h-8.8
			v3.5h7.1v5.3c0,1.1,0.7,1.8,1.8,1.8H99v14.1H51.4V65.5h88.3V132.6z M109.8,84.9h3.4c3.4,0,6,2.3,6.9,5.3h-3.4
			C113.3,90.2,110.7,87.9,109.8,84.9z"/>
	</g>
	<g>
		<linearGradient id="SVGID_2_" gradientUnits="userSpaceOnUse" x1="39" y1="95.5" x2="151.6111" y2="95.5">
			<stop  offset="0" style="stop-color:#662D8F"/>
			<stop  offset="1" style="stop-color:#0071BA"/>
		</linearGradient>
		<path fill="url(#SVGID_2_)" d="M150.2,39H40.8c-1.1,0-1.8,0.7-1.8,1.8v14.1v88.3c0,4.9,3.9,8.8,8.8,8.8h95.3
			c4.9,0,8.8-3.9,8.8-8.8V54.9V40.8C152,39.7,151.3,39,150.2,39z M42.5,42.5h105.9v10.6H42.5V42.5z M143.2,148.5H47.8
			c-3,0-5.3-2.3-5.3-5.3V56.7h105.9v86.5C148.5,146.2,146.2,148.5,143.2,148.5z"/>
	</g>
	<g>
		<linearGradient id="SVGID_3_" gradientUnits="userSpaceOnUse" x1="39" y1="141.4063" x2="151.6111" y2="141.4063">
			<stop  offset="0" style="stop-color:#662D8F"/>
			<stop  offset="1" style="stop-color:#0071BA"/>
		</linearGradient>
		<polygon fill="url(#SVGID_3_)" points="58.4,137.9 54.9,137.9 54.9,139.6 47.8,139.6 47.8,143.2 54.9,143.2 54.9,144.9 
			58.4,144.9 58.4,143.2 143.2,143.2 143.2,139.6 58.4,139.6 		"/>
	</g>
	<g>
		<linearGradient id="SVGID_4_" gradientUnits="userSpaceOnUse" x1="39" y1="47.8281" x2="151.6111" y2="47.8281">
			<stop  offset="0" style="stop-color:#662D8F"/>
			<stop  offset="1" style="stop-color:#0071BA"/>
		</linearGradient>
		<rect x="46.1" y="46.1" fill="url(#SVGID_4_)" width="3.5" height="3.5"/>
	</g>
	<g>
		<linearGradient id="SVGID_5_" gradientUnits="userSpaceOnUse" x1="39.0001" y1="47.8281" x2="151.6104" y2="47.8281">
			<stop  offset="0" style="stop-color:#662D8F"/>
			<stop  offset="1" style="stop-color:#0071BA"/>
		</linearGradient>
		<rect x="53.1" y="46.1" fill="url(#SVGID_5_)" width="3.5" height="3.5"/>
	</g>
	<g>
		<linearGradient id="SVGID_6_" gradientUnits="userSpaceOnUse" x1="39" y1="47.8281" x2="151.6111" y2="47.8281">
			<stop  offset="0" style="stop-color:#662D8F"/>
			<stop  offset="1" style="stop-color:#0071BA"/>
		</linearGradient>
		<rect x="60.2" y="46.1" fill="url(#SVGID_6_)" width="3.5" height="3.5"/>
	</g>
	<path fill="#F48600" d="M56.7,99H99c1.1,0,1.8-0.7,1.8-1.8V72.5c0-1.1-0.7-1.8-1.8-1.8H56.7c-1.1,0-1.8,0.7-1.8,1.8v24.7
		C54.9,98.3,55.6,99,56.7,99z M58.4,74.3h38.8v21.2H58.4V74.3z"/>
	<rect x="62" y="77.8" fill="#F48600" width="12.4" height="3.5"/>
	<rect x="77.8" y="77.8" fill="#F48600" width="15.9" height="3.5"/>
	<rect x="62" y="84.9" fill="#F48600" width="5.3" height="3.5"/>
	<rect x="70.8" y="84.9" fill="#F48600" width="15.9" height="3.5"/>
</g>
</svg>
