<?xml version="1.0" encoding="utf-8"?>
<!-- Generator: Adobe Illustrator 21.0.0, SVG Export Plug-In . SVG Version: 6.00 Build 0)  -->
<svg version="1.1" id="Layer_1" xmlns="http://www.w3.org/2000/svg" xmlns:xlink="http://www.w3.org/1999/xlink" x="0px" y="0px"
	 viewBox="0 0 24 23" style="enable-background:new 0 0 24 23;" xml:space="preserve">
<style type="text/css">
	.st0{fill:#808080;}
	.st1{fill:#A6A6A6;}
</style>
<g>
	<g>
		<g>
			<g>
				<circle class="st0" cx="13.879" cy="10.676" r="1.223"/>
				<circle class="st0" cx="8.172" cy="10.676" r="1.223"/>
			</g>
			<path class="st0" d="M11.018,4.561c-4.5,0-8.145,3.653-8.145,8.153c0,4.5,3.644,8.153,8.145,8.153
				c4.509,0,8.161-3.653,8.161-8.153C19.179,8.214,15.526,4.561,11.018,4.561z M11.026,19.237c-3.604,0-6.522-2.919-6.522-6.522
				c0-3.604,2.919-6.522,6.522-6.522s6.522,2.919,6.522,6.522C17.548,16.318,14.629,19.237,11.026,19.237z"/>
			<ellipse class="st0" cx="11.026" cy="15.313" rx="1.631" ry="1.247"/>
		</g>
	</g>
	<g>
		<g>
			<polygon class="st1" points="23.989,16.362 22.823,16.362 22.823,15.196 21.658,15.196 21.658,16.362 20.492,16.362 
				20.492,17.528 21.658,17.528 21.658,18.693 22.823,18.693 22.823,17.528 23.989,17.528 			"/>
		</g>
	</g>
	<g>
		<g>
			<polygon class="st1" points="18.786,3.242 18.15,3.242 18.15,2.606 17.515,2.606 17.515,3.242 16.879,3.242 16.879,3.878 
				17.515,3.878 17.515,4.513 18.15,4.513 18.15,3.878 18.786,3.878 			"/>
		</g>
	</g>
	<g>
		<g>
			<path class="st1" d="M0.366,3.37c1.019,0.255,1.811,1.046,2.066,2.066c0.054,0.215,0.247,0.366,0.469,0.366
				S3.317,5.652,3.37,5.437C3.625,4.417,4.417,3.626,5.436,3.37c0.216-0.054,0.367-0.247,0.367-0.469
				c0-0.222-0.151-0.415-0.366-0.469C4.417,2.178,3.626,1.386,3.371,0.366C3.317,0.151,3.123,0,2.901,0S2.486,0.151,2.432,0.366
				C2.178,1.385,1.386,2.177,0.366,2.432C0.151,2.486,0,2.679,0,2.901C0,3.123,0.151,3.317,0.366,3.37z M2.901,1.703
				c0.304,0.485,0.714,0.894,1.198,1.198C3.615,3.206,3.206,3.615,2.901,4.1C2.597,3.615,2.188,3.206,1.704,2.901
				C2.188,2.597,2.597,2.188,2.901,1.703z"/>
		</g>
	</g>
	<g>
		<g>
			<path class="st1" d="M1.366,21.607c0.584,0.146,1.037,0.599,1.183,1.183C2.58,22.914,2.691,23,2.818,23s0.238-0.086,0.269-0.21
				c0.146-0.584,0.599-1.037,1.183-1.183c0.124-0.031,0.21-0.142,0.21-0.269s-0.086-0.238-0.21-0.269
				c-0.584-0.146-1.037-0.599-1.183-1.183c-0.031-0.123-0.142-0.21-0.269-0.21s-0.238,0.086-0.269,0.21
				C2.403,20.47,1.95,20.924,1.366,21.07c-0.123,0.031-0.21,0.142-0.21,0.269S1.243,21.576,1.366,21.607z M2.818,20.652
				c0.174,0.277,0.409,0.512,0.686,0.686c-0.277,0.174-0.512,0.409-0.686,0.686c-0.174-0.277-0.408-0.512-0.686-0.686
				C2.409,21.164,2.644,20.93,2.818,20.652z"/>
		</g>
	</g>
</g>
</svg>
