<?xml version="1.0" encoding="utf-8"?>
<!-- Generator: Adobe Illustrator 21.0.0, SVG Export Plug-In . SVG Version: 6.00 Build 0)  -->
<svg version="1.1" id="Layer_1" xmlns="http://www.w3.org/2000/svg" xmlns:xlink="http://www.w3.org/1999/xlink" x="0px" y="0px"
	 viewBox="0 0 61 30" style="enable-background:new 0 0 61 30;" xml:space="preserve">
<style type="text/css">
	.st0{opacity:0.08;fill:#0071BC;}
	.st1{opacity:0.11;fill:#0071BC;}
	.st2{fill:none;stroke:#F58700;stroke-width:0.2678;stroke-miterlimit:10;stroke-dasharray:0.5357;}
	.st3{opacity:0.11;}
	.st4{fill:#0071BC;}
	.st5{fill:#F58700;}
	.st6{fill:#451E63;}
	.st7{fill:#E6E6E6;}
	.st8{fill:#B3B3B3;}
	.st9{fill:#662D91;}
	.st10{opacity:0.17;fill:#0071BC;}
	.st11{opacity:0.05;fill:#0071BC;}
	.st12{opacity:0.2;fill:none;stroke:#0071BC;stroke-width:0.3309;stroke-miterlimit:10;stroke-dasharray:0.2261;}
	.st13{opacity:0.2;fill:none;stroke:#0071BC;stroke-width:0.3327;stroke-miterlimit:10;stroke-dasharray:0.2273;}
	.st14{fill:#D3BCA7;}
	.st15{fill:#383838;}
	.st16{fill:#005187;}
	.st17{fill:#AB927B;}
</style>
<g>
	<rect x="-0.159" class="st0" width="61.317" height="24.903"/>
	<g>
		<g>
			<path class="st1" d="M47.974,24.153c-0.006-4.34-3.526-7.856-7.867-7.856s-7.861,3.516-7.867,7.856H47.974z"/>
			<path class="st1" d="M21.483,24.153c-0.003-2.173-1.766-3.934-3.939-3.934s-3.936,1.761-3.939,3.934H21.483z"/>
			<path class="st1" d="M38.515,24.153c-0.006-5.672-4.606-10.267-10.279-10.267s-10.272,4.596-10.279,10.267H38.515z"/>
		</g>
		<path class="st2" d="M17.039,18.393c0.946,0.572,2.966,0.053,3.942-0.301c1.812-0.658,3.146-2.344,3.329-4.273
			c0.065-0.686-0.09-1.423-0.562-1.926c-0.56-0.597-1.495-0.756-2.271-0.497c-1.276,0.425-1.925,1.74-1.634,3.029
			c0.352,1.56,1.943,2.411,3.457,2.39c3.024-0.043,5.237-2.398,7.751-3.732c3.949-2.096,8.917-2.456,13.044-0.706"/>
		<g class="st3">
			<g>
				<g>
					<rect x="39.442" y="26.697" class="st4" width="0.759" height="0.759"/>
				</g>
				<g>
					<rect x="40.959" y="26.697" class="st4" width="0.759" height="0.759"/>
				</g>
				<g>
					<rect x="42.476" y="26.697" class="st4" width="0.759" height="0.759"/>
				</g>
			</g>
		</g>
		<g class="st3">
			<g>
				<g>
					<rect x="6.899" y="26.697" class="st4" width="0.759" height="0.759"/>
				</g>
				<g>
					<rect x="8.416" y="26.697" class="st4" width="0.759" height="0.759"/>
				</g>
				<g>
					<rect x="9.933" y="26.697" class="st4" width="0.759" height="0.759"/>
				</g>
			</g>
		</g>
		<g class="st3">
			<g>
				<g>
					<rect x="50.468" y="29.241" class="st4" width="0.759" height="0.759"/>
				</g>
				<g>
					<rect x="51.985" y="29.241" class="st4" width="0.759" height="0.759"/>
				</g>
				<g>
					<rect x="53.502" y="29.241" class="st4" width="0.759" height="0.759"/>
				</g>
			</g>
		</g>
		<g class="st3">
			<g>
				<g>
					<rect x="17.523" y="29.241" class="st4" width="0.759" height="0.759"/>
				</g>
				<g>
					<rect x="19.041" y="29.241" class="st4" width="0.759" height="0.759"/>
				</g>
				<g>
					<rect x="20.558" y="29.241" class="st4" width="0.759" height="0.759"/>
				</g>
			</g>
		</g>
		<g>
			<g>
				<polygon class="st5" points="31.711,17.92 31.412,17.92 31.412,17.622 31.114,17.622 31.114,17.92 30.815,17.92 30.815,18.219 
					31.114,18.219 31.114,18.518 31.412,18.518 31.412,18.219 31.711,18.219 				"/>
			</g>
		</g>
		<g>
			<g>
				<polygon class="st5" points="19.533,16.453 19.234,16.453 19.234,16.154 18.935,16.154 18.935,16.453 18.636,16.453 
					18.636,16.751 18.935,16.751 18.935,17.05 19.234,17.05 19.234,16.751 19.533,16.751 				"/>
			</g>
		</g>
		<g>
			<g>
				<path class="st5" d="M25.739,9.677c0.315,0.079,0.559,0.323,0.638,0.638c0.017,0.066,0.076,0.113,0.145,0.113
					c0.069,0,0.128-0.047,0.145-0.113c0.079-0.315,0.323-0.559,0.638-0.638c0.067-0.017,0.113-0.076,0.113-0.145
					c0-0.069-0.047-0.128-0.113-0.145c-0.315-0.079-0.559-0.323-0.638-0.638c-0.017-0.066-0.076-0.113-0.145-0.113
					c-0.069,0-0.128,0.047-0.145,0.113c-0.079,0.315-0.323,0.559-0.638,0.638c-0.066,0.017-0.113,0.076-0.113,0.145
					C25.626,9.601,25.672,9.661,25.739,9.677z M26.522,9.162c0.094,0.15,0.22,0.276,0.37,0.37c-0.15,0.094-0.276,0.22-0.37,0.37
					c-0.094-0.15-0.22-0.276-0.37-0.37C26.302,9.439,26.428,9.312,26.522,9.162z"/>
			</g>
		</g>
		<g>
			<g>
				<path class="st5" d="M40.434,14.125c0.315,0.079,0.559,0.323,0.638,0.638c0.017,0.066,0.076,0.113,0.145,0.113
					c0.069,0,0.128-0.047,0.145-0.113c0.079-0.315,0.323-0.559,0.638-0.638c0.067-0.017,0.113-0.076,0.113-0.145
					S42.067,13.852,42,13.835c-0.315-0.079-0.559-0.323-0.638-0.638c-0.017-0.066-0.076-0.113-0.145-0.113
					c-0.069,0-0.128,0.047-0.145,0.113c-0.079,0.315-0.323,0.559-0.638,0.638c-0.066,0.017-0.113,0.076-0.113,0.145
					S40.367,14.108,40.434,14.125z M41.217,13.61c0.094,0.15,0.22,0.276,0.37,0.37c-0.15,0.094-0.276,0.22-0.37,0.37
					c-0.094-0.15-0.22-0.276-0.37-0.37C40.997,13.886,41.123,13.759,41.217,13.61z"/>
			</g>
		</g>
		<g>
			<g>
				<path class="st6" d="M37.078,12.878l-4.594,1.78c-0.504,0.195-1.071-0.055-1.266-0.559l-0.891-2.299
					c-0.116-0.299-0.078-0.635,0.101-0.9l1.677-2.489c0.229-0.339,0.645-0.501,1.042-0.404l2.917,0.709
					c0.311,0.076,0.566,0.299,0.681,0.597l0.891,2.299C37.832,12.116,37.582,12.683,37.078,12.878z"/>
				<path class="st6" d="M37.078,12.878l-4.594,1.78c-0.504,0.195-1.071-0.055-1.266-0.559L30.3,11.73l6.419-2.488l0.919,2.37
					C37.832,12.116,37.582,12.683,37.078,12.878z"/>
				<g>
					
						<rect x="31.457" y="9.782" transform="matrix(0.9324 -0.3614 0.3614 0.9324 -1.888 13.0431)" class="st7" width="4.944" height="3.575"/>
					
						<rect x="31.509" y="10.364" transform="matrix(0.9324 -0.3614 0.3614 0.9324 -1.5304 12.8106)" class="st8" width="3.955" height="0.266"/>
					
						<rect x="31.673" y="10.79" transform="matrix(0.9324 -0.3614 0.3614 0.9324 -1.6731 12.899)" class="st8" width="3.955" height="0.266"/>
					
						<rect x="31.838" y="11.215" transform="matrix(0.9324 -0.3614 0.3614 0.9324 -1.8157 12.9874)" class="st8" width="3.955" height="0.266"/>
					
						<rect x="32.003" y="11.641" transform="matrix(0.9324 -0.3614 0.3614 0.9324 -1.9583 13.0757)" class="st8" width="3.955" height="0.266"/>
					
						<rect x="32.168" y="12.066" transform="matrix(0.9324 -0.3614 0.3614 0.9324 -2.101 13.1641)" class="st8" width="3.955" height="0.266"/>
				</g>
				<path class="st9" d="M37.078,12.878l-4.594,1.78c-0.504,0.195-1.071-0.055-1.266-0.559L30.3,11.73l3.739,0.124l2.679-2.611
					l0.919,2.37C37.832,12.116,37.582,12.683,37.078,12.878z"/>
			</g>
		</g>
		<path class="st10" d="M56.838,24.131H4.162c-0.21,0-0.379,0.17-0.379,0.379v0c0,0.21,0.17,0.379,0.379,0.379H20.59v0.022l13.275,0
			c0.477,0,0.885,0.371,0.903,0.848c0.019,0.502-0.384,0.916-0.881,0.916H14.028c-0.21,0-0.379,0.17-0.379,0.379v0
			c0,0.21,0.17,0.379,0.379,0.379h11.968c-0.185,0.279-0.287,0.617-0.271,0.98c0.04,0.881,0.789,1.564,1.671,1.564h20.201
			c0.21,0,0.379-0.17,0.379-0.379l0,0c0-0.21-0.17-0.379-0.379-0.379H27.386c-0.477,0-0.885-0.371-0.903-0.848
			c-0.019-0.502,0.384-0.916,0.881-0.916h3.493v-0.022h2.997c0.882,0,1.631-0.683,1.671-1.564c0.017-0.363-0.086-0.701-0.271-0.98
			h21.584c0.21,0,0.379-0.17,0.379-0.379v0C57.217,24.301,57.047,24.131,56.838,24.131z"/>
		<circle class="st11" cx="11.543" cy="14.126" r="5.212"/>
		<circle class="st12" cx="11.543" cy="14.126" r="6.453"/>
		<g>
			<circle class="st11" cx="49.945" cy="14.3" r="5.24"/>
			<circle class="st13" cx="49.945" cy="14.3" r="6.487"/>
		</g>
	</g>
	<g>
		<path class="st9" d="M15.694,24.136H4.812v-3.858c0-1.072,0.869-1.941,1.941-1.941h7c1.072,0,1.941,0.869,1.941,1.941V24.136z"/>
		<polygon class="st14" points="14.374,18.338 12.38,18.338 10.183,20.515 7.986,18.338 7.986,13.678 10.122,12.376 14.374,12.376 
			14.374,13.76 15.697,16.14 14.374,16.14 		"/>
		<path class="st7" d="M12.675,17.259L12.675,17.259c-0.489,0-0.885-0.396-0.885-0.885V16.14h1.77v0.234
			C13.561,16.863,13.164,17.259,12.675,17.259z"/>
		<path class="st15" d="M14.374,12.376h-4.252v2.482c0,1.18-0.956,2.136-2.136,2.136h0v-3.852c0-1.053,0.853-1.906,1.906-1.906
			h4.483V12.376z"/>
		<circle class="st15" cx="14.374" cy="11.298" r="1.078"/>
		<ellipse class="st14" cx="9.725" cy="14.578" rx="0.682" ry="0.769"/>
		
			<rect x="7.916" y="18.354" transform="matrix(0.7071 -0.7071 0.7071 0.7071 -11.5584 11.9123)" class="st6" width="1.368" height="3.109"/>
		
			<rect x="11.076" y="18.354" transform="matrix(0.7071 0.7071 -0.7071 0.7071 17.5217 -2.4845)" class="st6" width="1.368" height="3.109"/>
		<path class="st7" d="M12.869,15.042h0.102c0.708,0,1.282-0.574,1.282-1.282v0h-2.665v0C11.587,14.468,12.161,15.042,12.869,15.042
			z"/>
		<circle class="st15" cx="13.571" cy="13.75" r="0.478"/>
	</g>
	<g>
		<path class="st4" d="M45.62,24.136h10.743V20.23c0-1.069-0.867-1.936-1.936-1.936h-6.871c-1.069,0-1.936,0.867-1.936,1.936V24.136
			z"/>
		<polygon class="st14" points="46.728,18.294 48.737,18.294 50.951,20.487 53.165,18.294 53.165,13.6 51.012,12.288 46.728,12.288 
			46.728,13.682 45.396,16.08 46.728,16.08 		"/>
		<path class="st7" d="M48.44,17.208L48.44,17.208c0.492,0,0.892-0.399,0.892-0.892V16.08h-1.783v0.236
			C47.548,16.808,47.947,17.208,48.44,17.208z"/>
		<path class="st15" d="M46.728,12.288h4.284v2.501c0,1.189,0.964,2.152,2.152,2.152l0,0V13.06c0-1.06-0.86-1.92-1.92-1.92h-4.517
			V12.288z"/>
		<circle class="st15" cx="46.728" cy="11.201" r="1.086"/>
		<ellipse class="st14" cx="51.412" cy="14.506" rx="0.687" ry="0.774"/>
		
			<rect x="51.857" y="18.31" transform="matrix(-0.7071 -0.7071 0.7071 -0.7071 75.6463 71.0868)" class="st16" width="1.378" height="3.132"/>
		
			<rect x="48.673" y="18.31" transform="matrix(-0.7071 0.7071 -0.7071 -0.7071 98.3213 -0.973)" class="st16" width="1.378" height="3.132"/>
		<g>
			<path class="st17" d="M48.241,14.574c-0.663,0-1.229-0.39-1.375-0.948c-0.02-0.077,0.026-0.157,0.103-0.177
				c0.077-0.02,0.157,0.026,0.177,0.103c0.111,0.424,0.572,0.732,1.095,0.732c0.532,0,0.995-0.314,1.099-0.748
				c0.019-0.078,0.097-0.126,0.175-0.107c0.078,0.019,0.126,0.097,0.107,0.175C49.487,14.167,48.906,14.574,48.241,14.574z"/>
		</g>
	</g>
</g>
</svg>
