<svg width="512" height="512" xmlns="http://www.w3.org/2000/svg">

 <g>
  <title>background</title>
  <rect fill="none" id="canvas_background" height="402" width="582" y="-1" x="-1"/>
 </g>
 <g>
  <title>Layer 1</title>
  <path id="svg_2" stroke-width="10" stroke-miterlimit="10" stroke-linejoin="round" stroke-linecap="round" stroke="#000000" fill="#000000" d="m373.9,24l-1.2,-8l-209.8,375.7c-6.3,11.4 -20.6,15.5 -32.1,9.5c-0.2,-0.1 -0.3,-0.2 -0.5,-0.3c-22.2,-11.4 -49.8,-3.3 -62.4,18.2c-13.5,23 -5.4,52.5 17.7,65.4c22.9,12.8 51.7,4.6 64.5,-18.3l55.8,-100c3.2,-5.7 10.3,-7.7 16,-4.5l0,0c6.5,3.6 14.6,1.3 18.2,-5.2l108.4,-194.2c23.6,-42 32.5,-90.7 25.4,-138.3zm-246.8,429.3c-5.7,10.1 -18.5,13.8 -28.6,8.1c-10.1,-5.7 -13.8,-18.5 -8.1,-28.6c5.7,-10.1 18.5,-13.8 28.6,-8.1c10.2,5.7 13.8,18.5 8.1,28.6zm132.3,-169.1c-6.6,0 -11.9,-5.3 -11.9,-11.9s5.3,-11.9 11.9,-11.9c6.6,0 11.9,5.3 11.9,11.9s-5.4,11.9 -11.9,11.9z"/>
  <path id="svg_3" stroke-width="10" stroke-miterlimit="10" stroke-linejoin="round" stroke-linecap="round" stroke="#000000" fill="#000000" d="m444.6,425.4c-12.2,-21.8 -39.6,-30.4 -62,-19.5c-0.2,0.1 -0.3,0.2 -0.5,0.3c-11.6,5.8 -25.8,1.3 -31.9,-10.1l-53.8,-102.8l-29.2,52.3l6.4,13.6c3.5,6.5 11.6,9 18.1,5.6l0,0c5.7,-3 12.9,-0.9 15.9,4.9l53.7,101.2c12.3,23.1 41,31.9 64.1,19.6c23.5,-12.5 32.2,-41.8 19.2,-65.1zm-31.5,41.8c-10.3,5.4 -23,1.5 -28.4,-8.7c-5.4,-10.3 -1.5,-23 8.7,-28.4c10.3,-5.4 23,-1.5 28.4,8.7c5.4,10.2 1.5,22.9 -8.7,28.4z"/>
  <path id="svg_4" stroke-width="10" stroke-miterlimit="10" stroke-linejoin="round" stroke-linecap="round" stroke="#000000" fill="#000000" d="m216.8,255.2l29.2,-52.4l-97.5,-186.8l-1.4,8c-8.1,47.5 -0.3,96.3 22.3,138.8l47.4,92.4z"/>
 </g>
</svg>