<?xml version="1.0" encoding="utf-8"?>
<!-- Generator: Adobe Illustrator 21.0.0, SVG Export Plug-In . SVG Version: 6.00 Build 0)  -->
<svg version="1.1" id="Layer_1" xmlns="http://www.w3.org/2000/svg" xmlns:xlink="http://www.w3.org/1999/xlink" x="0px" y="0px"
	 viewBox="0 0 581 444.9" enable-background="new 0 0 581 444.9" xml:space="preserve">
<g>
	<circle fill-rule="evenodd" clip-rule="evenodd" fill="#B3B3B3" cx="398" cy="183" r="183"/>
	<g>
		<g id="chart_1_">
			<g>
				<path fill="#3B576D" d="M172.3,424.9c-2.6,0-4.7-2.1-4.7-4.7V227.7c0-2.6,2.1-4.7,4.7-4.7l0,0c2.6,0,4.7,2.1,4.7,4.7v192.5
					C177.1,422.8,174.9,424.9,172.3,424.9L172.3,424.9z"/>
				<path fill="#3B576D" d="M274.4,420.4c-2.5,0.8-5.1-0.6-5.9-3.1l-57-183.9c-0.8-2.5,0.6-5.1,3.1-5.9l0,0c2.5-0.8,5.1,0.6,5.9,3.1
					l57,183.9C278.3,417,276.9,419.6,274.4,420.4L274.4,420.4z"/>
				<path fill="#3B576D" d="M72,420.4c2.5,0.8,5.1-0.6,5.9-3.1l57-183.9c0.8-2.5-0.6-5.1-3.1-5.9l0,0c-2.5-0.8-5.1,0.6-5.9,3.1
					l-57,183.9C68.2,417,69.5,419.6,72,420.4L72,420.4z"/>
			</g>
			<g display="none">
				<path display="inline" fill="#48677C" d="M172.3,364.8c-5,0-9.1-4.3-9.1-11.9v-67.3c0-7.6,4.1-13.7,9.1-13.7l0,0
					c5,0,9.1,6.2,9.1,13.7V353C181.4,360.6,177.3,364.8,172.3,364.8L172.3,364.8z"/>
			</g>
			<g display="none">
				<g display="inline">
					<g>
						<path fill="#3B576D" d="M225,362.4c-4.8,1.3-9.9-1.8-11.8-9.2l-17.1-65.1c-1.9-7.3,0.4-14.3,5.3-15.6l0,0
							c4.8-1.3,10.3,3.6,12.3,11l17.1,65.1C232.7,356,229.8,361.1,225,362.4L225,362.4z"/>
					</g>
				</g>
			</g>
			<g display="none">
				<g display="inline">
					<g>
						<path fill="#3B576D" d="M121.2,362.4c4.8,1.3,9.9-1.8,11.8-9.2l17.1-65.1c1.9-7.3-0.4-14.3-5.3-15.6l0,0
							c-4.8-1.3-10.3,3.6-12.3,11l-17.1,65.1C113.5,356,116.4,361.1,121.2,362.4L121.2,362.4z"/>
					</g>
				</g>
			</g>
			<rect x="20.4" y="66.1" fill="#FFFFFF" width="303.8" height="208.3"/>
			<path fill="#3B576D" d="M331.4,62.1c0,4.6-6.2,8.4-13.7,8.4H27c-7.6,0-13.7-3.8-13.7-8.4l0,0c0-4.6,6.2-8.4,13.7-8.4h290.6
				C325.2,53.7,331.4,57.4,331.4,62.1L331.4,62.1z"/>
			<path fill="#3B576D" d="M331.4,278.3c0,5.4-6.2,9.8-13.7,9.8H27c-7.6,0-13.7-4.4-13.7-9.8l0,0c0-5.4,6.2-9.8,13.7-9.8h290.6
				C325.2,268.5,331.4,272.9,331.4,278.3L331.4,278.3z"/>
			<circle fill="#3B576D" cx="172.3" cy="52.8" r="7.9"/>
			<g>
				<g>
					<polygon fill="#A0D4E3" points="100.8,254.2 117.2,207.5 133.5,254.2 					"/>
					<polygon fill="#F1902B" points="84.4,254.2 100.8,215.8 117.1,254.2 					"/>
					<polygon fill="#2C5871" points="62.3,254.2 78.6,194.6 95,254.2 					"/>
					<polygon fill="#64CAD4" points="35.7,254.2 52.1,203.3 68.4,254.2 					"/>
				</g>
			</g>
			<g>
				<g>
					<polygon fill-rule="evenodd" clip-rule="evenodd" fill="#2C5871" points="157.3,238 169.5,238 169.5,255 157.3,255 					"/>
					
						<rect x="171.4" y="230.6" transform="matrix(1 -1.147774e-03 1.147774e-03 1 -0.2786 0.2038)" fill-rule="evenodd" clip-rule="evenodd" fill="#A0D4E3" width="12.2" height="24.4"/>
					
						<rect x="185.4" y="213.5" transform="matrix(1 -1.342776e-03 1.342776e-03 1 -0.3144 0.2574)" fill-rule="evenodd" clip-rule="evenodd" fill="#2C5871" width="12.2" height="41.4"/>
					
						<rect x="199.5" y="219.3" transform="matrix(1 -1.114789e-03 1.114789e-03 1 -0.2642 0.2293)" fill-rule="evenodd" clip-rule="evenodd" fill="#A0D4E3" width="12.2" height="35.7"/>
					
						<rect x="213.6" y="237.1" transform="matrix(1 -1.900524e-03 1.900524e-03 1 -0.4671 0.4179)" fill-rule="evenodd" clip-rule="evenodd" fill="#2C5871" width="12.2" height="17.9"/>
					
						<rect x="227.3" y="230.3" transform="matrix(1 -1.765513e-03 1.765513e-03 1 -0.4279 0.4124)" fill-rule="evenodd" clip-rule="evenodd" fill="#A0D4E3" width="12.2" height="24.6"/>
					
						<rect x="241.3" y="219.2" transform="matrix(1 -1.141659e-03 1.141659e-03 1 -0.2704 0.2826)" fill-rule="evenodd" clip-rule="evenodd" fill="#2C5871" width="12.2" height="35.7"/>
					
						<rect x="255.4" y="195.6" transform="matrix(1 -1.248616e-03 1.248616e-03 1 -0.281 0.3266)" fill-rule="evenodd" clip-rule="evenodd" fill="#A0D4E3" width="12.2" height="59.3"/>
				</g>
			</g>
			<g>
				<g>
					<path fill="#A0D4E3" d="M247.5,133.1c-0.7,2.2-1.9,4.2-3.4,5.9l11.7,16.3c5.9-5.1,10.2-12.1,11.8-20L247.5,133.1z"/>
					<path fill="#F3951C" d="M235.5,112.4c6.8,1.4,12,7.2,12.7,14.2l20,2.2c0-0.2,0-0.4,0-0.7c0-18.8-14.4-34.1-32.7-35.8V112.4z"/>
					<path fill="#15AAB9" d="M220.4,117.4c2.2-2.5,5.2-4.3,8.6-5V92.4c-10.7,1-20,6.6-25.9,14.8L220.4,117.4z"/>
					<path fill="#2C5871" d="M238.7,142.9c-2,0.9-4.2,1.4-6.5,1.4c-8.9,0-16.1-7.2-16.1-16.1c0-1.8,0.4-3.5,0.9-5.1l-17.3-10.2
						c-2.2,4.7-3.5,9.9-3.5,15.4c0,19.9,16.1,36,36,36c6.6,0,12.8-1.8,18.2-5L238.7,142.9z"/>
				</g>
				<g>
					<rect x="139.2" y="118.7" fill="#F3951C" width="31.8" height="3.3"/>
					<rect x="139.2" y="129" fill="#15AAB9" width="31.8" height="3.3"/>
					<rect x="139.2" y="139.2" fill="#2C5871" width="31.8" height="3.3"/>
				</g>
				<rect x="35.8" y="90" fill="#C3C3C3" width="48.8" height="14.1"/>
				<rect x="35.8" y="108.8" fill="#C3C3C3" width="32.9" height="14.1"/>
				<rect x="35.8" y="127.5" fill="#C3C3C3" width="65.7" height="14.1"/>
				<rect x="35.8" y="147.2" fill="#C3C3C3" width="52.6" height="14.1"/>
			</g>
		</g>
	</g>
	<g>
		<path opacity="0.1" fill="#231F20" d="M172.7,403.8c89.2,0,162.6,8,171.7,18.4c17.1-2.9,45.2-4.7,77-4.7c52.1,0,94.4,5,94.4,11.2
			c0,6.2-42.2,11.2-94.4,11.2c-41.5,0-76.8-3.2-89.4-7.6c-26.1,7.4-87.6,12.6-159.3,12.6C77.3,444.9,0,435.7,0,424.4
			C0,413,77.3,403.8,172.7,403.8z"/>
	</g>
	<g>
		<path fill-rule="evenodd" clip-rule="evenodd" fill="#616161" d="M398.8,262.9h73.5v149.1h-25.1V298.8c0-6.4-5.3-11.7-11.7-11.7h0
			c-6.4,0-11.7,5.3-11.7,11.7v113.3h-25.1V262.9L398.8,262.9z"/>
		<path fill-rule="evenodd" clip-rule="evenodd" fill="#616161" d="M398.8,262.9h73.5V317h-25.1v-4.6c0-6.4-5.3-11.7-11.7-11.7l0,0
			c-6.4,0-11.7,5.3-11.7,11.7v4.6h-25.1V262.9L398.8,262.9z"/>
		<path fill-rule="evenodd" clip-rule="evenodd" fill="#362A20" d="M423.9,412.1h-29.7c-6.7,0-12.1,5.5-12.1,12.1v2.2
			c0,1.3,1.1,2.4,2.4,2.4h37c1.3,0,2.4-1.1,2.4-2.4V412.1L423.9,412.1z"/>
		<path fill-rule="evenodd" clip-rule="evenodd" fill="#140D0A" d="M382.1,425.9v0.5c0,1.3,1.1,2.4,2.4,2.4h37
			c1.3,0,2.4-1.1,2.4-2.4v-0.5H382.1L382.1,425.9z"/>
		<path fill-rule="evenodd" clip-rule="evenodd" fill="#5C4E42" d="M398.8,412.1h-4.6c-5.7,0-10.5,4-11.8,9.3h13.2
			c1.8,0,3.2-1.4,3.2-3.2V412.1L398.8,412.1z"/>
		<path fill-rule="evenodd" clip-rule="evenodd" fill="#F6CF84" d="M394.9,411.3L394.9,411.3c0.4,0,0.8,0.4,0.8,0.8v4
			c0,0.4-0.4,0.8-0.8,0.8h0c-0.4,0-0.8-0.4-0.8-0.8v-4C394.1,411.6,394.4,411.3,394.9,411.3L394.9,411.3z"/>
		<path fill-rule="evenodd" clip-rule="evenodd" fill="#F6CF84" d="M391.4,411.5L391.4,411.5c0.4,0,0.8,0.4,0.8,0.8v3.7
			c0,0.4-0.4,0.8-0.8,0.8h0c-0.4,0-0.8-0.4-0.8-0.8v-3.7C390.6,411.9,391,411.5,391.4,411.5L391.4,411.5z"/>
		<g>
			<path fill-rule="evenodd" clip-rule="evenodd" fill="#362A20" d="M472.3,412.1h-29.7c-6.7,0-12.1,5.5-12.1,12.1v2.2
				c0,1.3,1.1,2.4,2.4,2.4h37c1.3,0,2.4-1.1,2.4-2.4V412.1L472.3,412.1z"/>
			<path fill-rule="evenodd" clip-rule="evenodd" fill="#140D0A" d="M430.5,425.9v0.5c0,1.3,1.1,2.4,2.4,2.4h37
				c1.3,0,2.4-1.1,2.4-2.4v-0.5H430.5L430.5,425.9z"/>
			<path fill-rule="evenodd" clip-rule="evenodd" fill="#5C4E42" d="M447.3,412.1h-4.6c-5.7,0-10.5,4-11.8,9.3H444
				c1.8,0,3.2-1.4,3.2-3.2V412.1L447.3,412.1z"/>
			<path fill-rule="evenodd" clip-rule="evenodd" fill="#F6CF84" d="M443.3,411.3L443.3,411.3c0.4,0,0.8,0.4,0.8,0.8v4
				c0,0.4-0.4,0.8-0.8,0.8h0c-0.4,0-0.8-0.4-0.8-0.8v-4C442.5,411.6,442.9,411.3,443.3,411.3L443.3,411.3z"/>
			<path fill-rule="evenodd" clip-rule="evenodd" fill="#F6CF84" d="M439.8,411.5L439.8,411.5c0.4,0,0.8,0.4,0.8,0.8v3.7
				c0,0.4-0.4,0.8-0.8,0.8h0c-0.4,0-0.8-0.4-0.8-0.8v-3.7C439,411.9,439.4,411.5,439.8,411.5L439.8,411.5z"/>
		</g>
		<polygon fill-rule="evenodd" clip-rule="evenodd" fill="#616161" points="415.7,301.1 423.9,301.1 423.9,412.1 415.7,412.1 
			415.7,301.1 		"/>
		<polygon fill-rule="evenodd" clip-rule="evenodd" fill="#616161" points="464.1,301.1 472.3,301.1 472.3,412.1 464.1,412.1 
			464.1,301.1 		"/>
		<path fill-rule="evenodd" clip-rule="evenodd" fill="#12375F" d="M472.5,173.2l-25.8-9.5h-20l-24.3,9.5c-3.1,1.2-6.1,2.7-8.4,4.6
			v111.6h85.7v-11h5.2l4.3-52.9h0l-3.5-38.2C485,179.6,479.4,175.8,472.5,173.2L472.5,173.2z"/>
		<path fill-rule="evenodd" clip-rule="evenodd" fill="#12375F" d="M417.9,167.4c-7.4-0.4-30,6.6-34,13.4l-19,32.8l7.1,5.5l8.9,0.1
			l13.1-16.5L417.9,167.4L417.9,167.4z"/>
		<path fill-rule="evenodd" clip-rule="evenodd" fill="#0C2540" d="M467.7,289.4h4.7v-82.7c0-1.3-1-2.3-2.3-2.3l0,0
			c-1.3,0-2.3,1-2.3,2.3V289.4L467.7,289.4z"/>
		<path fill-rule="evenodd" clip-rule="evenodd" fill="#F4C2A0" d="M484.1,278.4v5.2c0,1.4-1.1,2.5-2.5,2.5h-7.8
			c-0.8,0-1.4-0.6-1.4-1.4v-6.2H484.1L484.1,278.4z"/>
		<path fill-rule="evenodd" clip-rule="evenodd" fill="#FFFFFF" d="M437.2,250.3c-1.2,0-2.2,1-2.2,2.2c0,1.2,1,2.2,2.2,2.2
			c1.2,0,2.2-1,2.2-2.2C439.4,251.3,438.4,250.3,437.2,250.3L437.2,250.3z"/>
		<path fill-rule="evenodd" clip-rule="evenodd" fill="#FFFFFF" d="M437.2,230.6c-1.2,0-2.2,1-2.2,2.2c0,1.2,1,2.2,2.2,2.2
			c1.2,0,2.2-1,2.2-2.2C439.4,231.6,438.4,230.6,437.2,230.6L437.2,230.6z"/>
		<path fill-rule="evenodd" clip-rule="evenodd" fill="#FFFFFF" d="M437.2,210.9c-1.2,0-2.2,1-2.2,2.2c0,1.2,1,2.2,2.2,2.2
			c1.2,0,2.2-1,2.2-2.2C439.4,211.9,438.4,210.9,437.2,210.9L437.2,210.9z"/>
		<path fill-rule="evenodd" clip-rule="evenodd" fill="#FFFFFF" d="M437.2,191.2c-1.2,0-2.2,1-2.2,2.2c0,1.2,1,2.2,2.2,2.2
			c1.2,0,2.2-1,2.2-2.2C439.4,192.2,438.4,191.2,437.2,191.2L437.2,191.2z"/>
		<path fill-rule="evenodd" clip-rule="evenodd" fill="#FFFFFF" d="M437.2,270.1c-1.2,0-2.2,1-2.2,2.2c0,1.2,1,2.2,2.2,2.2
			c1.2,0,2.2-1,2.2-2.2C439.4,271.1,438.4,270.1,437.2,270.1L437.2,270.1z"/>
		<polygon fill-rule="evenodd" clip-rule="evenodd" fill="#FFFFFF" points="422.3,160.3 437.1,168.8 451.9,160.3 456.3,167.4 
			437.1,178.6 417.9,167.4 422.3,160.3 		"/>
		<polygon fill-rule="evenodd" clip-rule="evenodd" fill="#C5C5C5" points="422.3,160.3 437.1,160.3 451.9,160.3 437.1,168.8 
			422.3,160.3 		"/>
		<polygon fill-rule="evenodd" clip-rule="evenodd" fill="#E0A790" points="426.4,140 447.8,140 447.8,162.6 437.1,168.8 
			426.4,162.6 426.4,140 		"/>
		<path fill-rule="evenodd" clip-rule="evenodd" fill="#F4C2A0" d="M420.5,83.5H460h1.4c3.2,0,5.8,18.6,5.8,15.4v-3.8v2.4
			c0,1,0.8,1.9,1.9,1.9h0.9v25.3c0,17.4-14.2,31.6-31.6,31.6H436c-17.4,0-31.6-14.2-31.6-31.6v-20.5c0-3.5,1.2-2.1,3.1-4.7v-0.7
			c0-3.2,2.6-15.4,5.8-15.4H420.5L420.5,83.5z"/>
		<path fill-rule="evenodd" clip-rule="evenodd" fill="#F4C2A0" d="M469.8,109h1.3c2.5,0,4.6,2,4.6,4.6v5.5c0,3.2-2.6,5.8-5.8,5.8
			l0,0V109L469.8,109z M404.4,109h-1.3c-2.5,0-4.6,2-4.6,4.6v5.5c0,3.2,2.6,5.8,5.8,5.8l0,0V109L404.4,109z"/>
		<path fill-rule="evenodd" clip-rule="evenodd" fill="#E0A790" d="M400.7,123.6c1,0.8,2.3,1.3,3.7,1.3l0,0v-13h-1.1
			c-2.1,0-3.8,1.7-3.8,3.8v4.6C399.5,121.6,400,122.7,400.7,123.6L400.7,123.6z"/>
		<path fill-rule="evenodd" clip-rule="evenodd" fill="#E0A790" d="M437.6,116.1l4.3,10.3c0.3,0.7,0.4,2.5,0,2.5h-9.7
			c-0.4,0-0.3-1.8,0-2.5l4.3-10.3C436.9,115.4,437.3,115.4,437.6,116.1L437.6,116.1z"/>
		<path opacity="0.18" fill-rule="evenodd" clip-rule="evenodd" fill="#3C3754" d="M445.8,137.2c0,4.3-3.2,5.2-8.6,5.2
			c-5.4,0-8.3-0.9-8.3-5.2c0-2.8,2.9-5,8.3-5C442.6,132.2,445.8,134.4,445.8,137.2z"/>
		<polygon fill-rule="evenodd" clip-rule="evenodd" fill="#3C3754" points="446.9,131.9 427.7,131.9 424.9,139.4 430,139.4 
			444.8,139.4 449.8,139.4 		"/>
		<g>
			<g>
				<path fill="#3C3754" d="M422,127.2h-1.4c-6.2,0-11.3-5.1-11.3-11.3v-5.1h24v5.1C433.4,122.1,428.3,127.2,422,127.2z
					 M411.8,113.1v2.7c0,4.9,4,8.9,8.9,8.9h1.4c4.9,0,8.9-4,8.9-8.9v-2.7H411.8z"/>
			</g>
			<g>
				<path fill="#3C3754" d="M452.5,127.2h-1.4c-6.2,0-11.3-5.1-11.3-11.3v-5.1h24v5.1C463.9,122.1,458.8,127.2,452.5,127.2z
					 M442.3,113.1v2.7c0,4.9,4,8.9,8.9,8.9h1.4c4.9,0,8.9-4,8.9-8.9v-2.7H442.3z"/>
			</g>
			<g>
				<rect x="430.8" y="110.7" fill="#3C3754" width="10.2" height="2.4"/>
			</g>
			<g>
				
					<rect x="404.2" y="111.7" transform="matrix(0.9502 -0.3115 0.3115 0.9502 -14.9056 132.5606)" fill="#3C3754" width="6.5" height="2.4"/>
			</g>
			<g>
				
					<rect x="465" y="109.2" transform="matrix(0.2717 -0.9624 0.9624 0.2717 230.8811 530.963)" fill="#3C3754" width="2.4" height="7.4"/>
			</g>
			<path opacity="0.18" fill="#3C3754" d="M442.3,113.1v2.7c0,4.9,4,8.9,8.9,8.9h1.4c4.9,0,8.9-4,8.9-8.9v-2.7H442.3z"/>
			<path opacity="0.18" fill="#3C3754" d="M411.8,113.1v2.7c0,4.9,4,8.9,8.9,8.9h1.4c4.9,0,8.9-4,8.9-8.9v-2.7H411.8z"/>
		</g>
		<path fill-rule="evenodd" clip-rule="evenodd" fill="#E0A790" d="M473.5,123.6c-1,0.8-2.3,1.3-3.7,1.3l0,0v-13h1.1
			c2.1,0,3.8,1.7,3.8,3.8v4.6C474.7,121.6,474.3,122.7,473.5,123.6L473.5,123.6z"/>
		<path fill-rule="evenodd" clip-rule="evenodd" fill="#3C3754" d="M404.4,116.9c-2-1.4-3.3-3.7-3.3-6.3V84.4v-0.1
			C400.9,72.6,415.2,63,422.4,63s5,0.5,7.3,1.3c2.3-0.8,4.8-1.3,7.3-1.3s5,0.5,7.3,1.3c2.3-0.8,0.1-1.3,7.3-1.3
			c7.2,0,21.3,9.5,21.3,21.3l0,0.1v26.2c0,2.5-1.2,4.7-3.1,6.1v-10.2c0-1.7-1.4-3.1-3.1-3.1h-1.4v-2.1v-0.7l0,0
			c-0.3-4.3-4-7.7-8.4-7.7h-40.3c-4.3,0-7.8,3.5-7.8,7.8l-0.1-0.1v2.8h-1.2c-1.7,0-3.1,1.4-3.1,3.1V116.9L404.4,116.9z"/>
		<path fill-rule="evenodd" clip-rule="evenodd" fill="#12375F" d="M384.2,189.6l12.4,9.4l-15.6,20.2c-2.6,3.4-7.6,4-11,1.4
			l-6.2-4.7l-34.4-24.4l7.1-10.4l37.2,22.1L384.2,189.6L384.2,189.6z"/>
		<path fill-rule="evenodd" clip-rule="evenodd" fill="#0C2540" d="M394,202.7l-13.1,16.5c-2,2.5-5.1,3.5-8,2.8l16.5-21.1
			c1.1-1.4,3.1-1.7,4.6-0.6V202.7L394,202.7z"/>
		<path fill-rule="evenodd" clip-rule="evenodd" fill="#E0A790" d="M328.4,175.8l8,5.4l-6.6,9.7l-8.8-6c-0.8-0.6-1-1.7-0.5-2.5
			l4-5.9C325.4,175.3,327.2,174.9,328.4,175.8L328.4,175.8z"/>
		<polygon fill-rule="evenodd" clip-rule="evenodd" fill="#E67A14" points="276.4,103.9 272.7,106.4 328.6,188.5 332.3,186 
			276.4,103.9 		"/>
		<path fill-rule="evenodd" clip-rule="evenodd" fill="#F4C2A0" d="M323.7,180.4l0.1,0.1c0.7,0.5,0.9,1.4,0.4,2.1l-2.1,3.1l-1.3-0.9
			c-0.7-0.5-0.9-1.5-0.4-2.2l1.3-1.9C322.1,180.1,323,179.9,323.7,180.4L323.7,180.4z"/>
		<path fill-rule="evenodd" clip-rule="evenodd" fill="#F4C2A0" d="M326.3,182.1l0.1,0.1c0.7,0.5,0.9,1.4,0.4,2.1l-2.1,3.1l-2.6-1.7
			l2.1-3.1C324.7,181.8,325.6,181.7,326.3,182.1L326.3,182.1z"/>
		<path fill-rule="evenodd" clip-rule="evenodd" fill="#F4C2A0" d="M328.8,183.9l0.1,0.1c0.7,0.5,0.9,1.4,0.4,2.1l-2.1,3.1l-2.6-1.7
			l2.1-3.1C327.3,183.6,328.2,183.4,328.8,183.9L328.8,183.9z"/>
		<path fill-rule="evenodd" clip-rule="evenodd" fill="#F4C2A0" d="M331.4,185.6l0.1,0.1c0.7,0.5,0.9,1.4,0.4,2.1l-2.1,3.1l-2.6-1.7
			l2.1-3.1C329.8,185.3,330.7,185.2,331.4,185.6L331.4,185.6z"/>
		<path fill-rule="evenodd" clip-rule="evenodd" fill="#F4C2A0" d="M327.3,175.1l1.3,0.9c0,0,0,0.1,0,0.1l-2.9,4.3l-1.3-0.9
			c-0.7-0.5-0.9-1.5-0.4-2.2l1.3-1.9C325.7,174.8,326.6,174.6,327.3,175.1L327.3,175.1z"/>
		<path fill-rule="evenodd" clip-rule="evenodd" fill="#3C3754" d="M421.9,113.9c1.6,0,3,1.3,3,3c0,1.6-1.3,3-3,3c-1.6,0-3-1.3-3-3
			C418.9,115.3,420.2,113.9,421.9,113.9L421.9,113.9z"/>
		<path fill-rule="evenodd" clip-rule="evenodd" fill="#3C3754" d="M451.7,113.9c1.6,0,3,1.3,3,3c0,1.6-1.3,3-3,3c-1.6,0-3-1.3-3-3
			C448.8,115.3,450.1,113.9,451.7,113.9L451.7,113.9z"/>
	</g>
</g>
</svg>
