<?xml version="1.0" encoding="UTF-8"?>
<!-- Generator: Adobe Illustrator 21.0.0, SVG Export Plug-In . SVG Version: 6.00 Build 0)  -->
<svg version="1.1" id="Layer_1" xmlns="http://www.w3.org/2000/svg" xmlns:xlink="http://www.w3.org/1999/xlink" x="0px" y="0px" viewBox="0 0 100 84.3" style="enable-background:new 0 0 100 84.3;" xml:space="preserve">
<style type="text/css">
	.st0{fill:#F2F2F2;}
	.st1{fill:#999999;}
	.st2{fill:#E77A14;}
</style>
<g>
	<path class="st0" d="M98.3,42.1c0,22.3-18.1,40.4-40.4,40.4c-22.3,0-40.4-18.1-40.4-40.4C17.6,19.9,35.7,1.8,58,1.8   C80.3,1.8,98.3,19.9,98.3,42.1"/>
	<path class="st1" d="M25.9,73.3c-0.6,0-1.1-0.5-1.1-1.1c0-0.6,0.5-1.1,1.1-1.1h3.7v-9H5.9c-2.3,0-4.3-2-4.3-4.3v-40   c0-2.3,2-4.3,4.3-4.3h60.8c2.3,0,4.3,2,4.3,4.3v40c0,2.3-2,4.3-4.3,4.3H43v9h3.7c0.6,0,1.1,0.5,1.1,1.1c0,0.6-0.5,1.1-1.1,1.1H25.9   z M31.8,71.2h9v-9.1h-9V71.2z M5.9,15.7c-1.2,0-2.1,0.9-2.1,2.1v40c0,1.2,0.9,2.1,2.1,2.1h60.8c1.2,0,2.1-0.9,2.1-2.1v-40   c0-1.2-0.9-2.1-2.1-2.1H5.9z"/>
	<path class="st2" d="M58.6,48.8c-0.2,0-0.4-0.1-0.6-0.1V26.9c0.2,0,0.3,0,0.5-0.1c0.6-0.1,0.9-0.5,0.9-1.1c0-0.6-0.4-1-1.2-1   c-4.1,0-8.2,0-12.4,0h-0.7v-1c0-0.3,0-0.6,0-0.9c0-0.7-0.6-1.2-1.3-1c-0.5,0.1-0.8,0.5-0.8,1.1c0,0.6,0,1.2,0,1.8h-7.5   c-1.9,0-3.8,0-5.7,0c-0.6,0-1,0.4-1.1,1c0,0.5,0.4,1,1,1c0.1,0,0.3,0,0.5,0.1v0.5c0,1.1,0,2.1,0,3.2v2.1l2-1.6c0,0,0-3.1,0-3.6   c0-0.7,0-0.7,0.6-0.7c7.5,0,15,0,22.6,0c0.2,0,0.3,0,0.5,0v21.9H32.4v-0.6c0-0.4,0-1.8,0-3.6v-1.5l-2,1.6v4.1c-0.2,0-0.2,0-0.3,0   c-0.7,0.1-1.1,0.5-1.1,1.1c0,0.6,0.5,1,1.2,1c4.1,0,8.2,0,12.4,0l2.8,0h12.6c0.2,0,0.4,0,0.6,0c0.5-0.1,0.9-0.5,0.9-1   C59.5,49.4,59.2,49,58.6,48.8"/>
	<path class="st1" d="M13.2,45.8v5.1h0.1h2.1v-5.1c0-2.7,2.2-4.9,4.9-4.9c1.3,0,2.7,0.6,3.6,1.6l0.1,0l0.5,0.5l5.7-5l0,0l4-3.6   c0.2,0.1,0.5,0.3,0.7,0.4l0.2,0.4c0.1,0.1,0.1,0.3-0.1,0.3l-10,8.8l0.1,0.6c0.1,0.3,0.1,0.6,0.1,1v5.2h2.1v-5.1   c0-0.3,0-0.5-0.1-0.8l9.1-8c1-0.8,1.1-2.2,0.3-3.2l-0.2-0.4c-0.4-0.6-1.4-1.2-2.3-1.3c-0.5-0.1-1,0.1-1.4,0.5l-4.1,3.6l0,0   l-4.3,3.9c-0.5-0.4-1-0.6-1.6-0.9c2.2-1,3.7-3.2,3.7-5.7c0-3.4-2.8-6.2-6.2-6.2c-3.4,0-6.2,2.8-6.2,6.2c0,2.5,1.5,4.6,3.6,5.6   C15.1,40.2,13.2,42.8,13.2,45.8 M20.4,37.6c-2.3,0-4.1-1.9-4.1-4.1c0-2.3,1.9-4.1,4.1-4.1c2.2,0,4,1.9,4.1,4.1   C24.5,35.8,22.7,37.6,20.4,37.6"/>
</g>
</svg>