<?xml version="1.0" encoding="utf-8"?>
<!-- Generator: Adobe Illustrator 21.0.0, SVG Export Plug-In . SVG Version: 6.00 Build 0)  -->
<svg version="1.1" id="Layer_1" xmlns="http://www.w3.org/2000/svg" xmlns:xlink="http://www.w3.org/1999/xlink" x="0px" y="0px"
	 viewBox="0 0 24 24" style="enable-background:new 0 0 24 24;" xml:space="preserve">
<style type="text/css">
	.st0{fill:#808080;}
	.st1{fill:#A6A6A6;}
</style>
<g>
	<g>
		<g>
			<circle class="st0" cx="8.384" cy="11.972" r="1.096"/>
		</g>
		<path class="st0" d="M10.933,6.493c-4.032,0-7.298,3.273-7.298,7.305c0,4.032,3.265,7.305,7.298,7.305
			c4.04,0,7.312-3.273,7.312-7.305C18.246,9.765,14.973,6.493,10.933,6.493z M10.941,19.642c-3.229,0-5.844-2.615-5.844-5.844
			c0-3.229,2.615-5.844,5.844-5.844s5.844,2.615,5.844,5.844C16.785,17.027,14.169,19.642,10.941,19.642z"/>
		<g>
			<path class="st0" d="M10.984,17.488c-1.328,0-2.549-0.668-3.269-1.787l1.089-0.699c0.48,0.746,1.295,1.191,2.18,1.191
				c0.884,0,1.699-0.445,2.179-1.192l1.09,0.701C13.533,16.82,12.311,17.488,10.984,17.488z"/>
		</g>
		<g>
			<polygon class="st0" points="13.669,13.041 11.979,12.286 11.998,11.59 13.689,10.948 13.957,11.652 13.118,11.97 13.977,12.354 
							"/>
		</g>
	</g>
	<g>
		<g>
			<polygon class="st1" points="3.133,7.096 2.089,7.096 2.089,6.052 1.044,6.052 1.044,7.096 0,7.096 0,8.14 1.044,8.14 
				1.044,9.185 2.089,9.185 2.089,8.14 3.133,8.14 			"/>
		</g>
	</g>
	<g>
		<g>
			<polygon class="st1" points="14.139,2.592 13.569,2.592 13.569,2.022 13,2.022 13,2.592 12.43,2.592 12.43,3.161 13,3.161 
				13,3.731 13.569,3.731 13.569,3.161 14.139,3.161 			"/>
		</g>
	</g>
	<g>
		<g>
			<path class="st1" d="M19.129,17.209c0.913,0.228,1.623,0.938,1.851,1.851c0.048,0.193,0.221,0.328,0.42,0.328
				c0.199,0,0.372-0.135,0.42-0.328c0.228-0.913,0.938-1.623,1.851-1.851C23.865,17.161,24,16.987,24,16.789
				c0-0.199-0.135-0.372-0.328-0.42c-0.913-0.228-1.623-0.938-1.851-1.851c-0.049-0.193-0.222-0.328-0.421-0.328
				c-0.199,0-0.372,0.135-0.42,0.328c-0.228,0.913-0.938,1.623-1.851,1.851c-0.193,0.048-0.328,0.221-0.328,0.42
				C18.801,16.987,18.936,17.161,19.129,17.209z M21.4,15.715c0.273,0.434,0.639,0.801,1.073,1.074
				c-0.434,0.273-0.801,0.639-1.073,1.074c-0.273-0.434-0.639-0.801-1.073-1.074C20.761,16.516,21.128,16.149,21.4,15.715z"/>
		</g>
	</g>
	<g>
		<g>
			<path class="st1" d="M2.804,20.73c0.523,0.131,0.929,0.537,1.06,1.06c0.028,0.11,0.127,0.188,0.241,0.188
				c0.114,0,0.213-0.077,0.241-0.188c0.131-0.523,0.537-0.929,1.06-1.06c0.111-0.028,0.188-0.127,0.188-0.241
				s-0.077-0.213-0.188-0.241c-0.523-0.131-0.929-0.537-1.06-1.06C4.318,19.078,4.218,19,4.104,19c-0.114,0-0.213,0.077-0.241,0.188
				c-0.131,0.523-0.537,0.929-1.06,1.06c-0.11,0.028-0.188,0.127-0.188,0.241S2.693,20.702,2.804,20.73z M4.104,19.874
				c0.156,0.249,0.366,0.459,0.615,0.615c-0.248,0.156-0.459,0.366-0.615,0.615c-0.156-0.249-0.366-0.459-0.615-0.615
				C3.738,20.333,3.948,20.123,4.104,19.874z"/>
		</g>
	</g>
</g>
</svg>
